
<svg width="100%" height="100%" viewBox="0 0 872 766" version="1.1" xmlns="http://www.w3.org/2000/svg" xmlns:xlink="http://www.w3.org/1999/xlink" xml:space="preserve" xmlns:serif="http://www.serif.com/" style="fill-rule:evenodd;clip-rule:evenodd;stroke-linejoin:round;stroke-miterlimit:2;">
    <g transform="matrix(1,0,0,1,-7696.21,-90.5948)">
        <g id="_1" serif:id="1" transform="matrix(0.714264,0,0,0.683311,4775.23,-39.9822)">
            <rect x="4089.49" y="191.094" width="1220.26" height="1120.61" style="fill:none;"/>
            <g transform="matrix(54.5483,0,0,57.0192,2869.08,223.998)">
                <path d="M33.558,3.187C30.21,3.187 27.495,5.901 27.495,9.25C27.495,12.599 30.21,15.313 33.558,15.313C36.907,15.313 39.622,12.599 39.622,9.25C39.622,5.901 36.907,3.187 33.558,3.187Z" style="fill:rgb(249,190,18);fill-rule:nonzero;"/>
            </g>
            <g transform="matrix(54.5483,0,0,57.0192,2869.08,223.998)">
                <path d="M33.558,3.187C33.319,3.187 33.082,3.202 32.85,3.229C35.865,3.58 38.204,6.141 38.204,9.25C38.204,12.359 35.865,14.919 32.85,15.27C33.082,15.298 33.319,15.313 33.558,15.313C36.907,15.313 39.622,12.599 39.622,9.25C39.622,5.901 36.907,3.187 33.558,3.187Z" style="fill:rgb(245,154,32);fill-rule:nonzero;"/>
            </g>
            <g transform="matrix(54.5483,0,0,57.0192,2869.08,223.998)">
                <path d="M29.989,12.246C29.903,12.246 29.817,12.207 29.761,12.133C29.712,12.068 29.664,12.001 29.617,11.934C29.529,11.804 29.562,11.626 29.693,11.537C29.823,11.448 30,11.482 30.089,11.612C30.13,11.672 30.172,11.73 30.216,11.788C30.311,11.913 30.286,12.092 30.161,12.187C30.109,12.227 30.049,12.246 29.989,12.246Z" style="fill:rgb(245,154,32);fill-rule:nonzero;"/>
            </g>
            <g transform="matrix(54.5483,0,0,57.0192,2869.08,223.998)">
                <path d="M29.408,11.229C29.295,11.229 29.189,11.163 29.143,11.052C28.909,10.48 28.791,9.874 28.791,9.25C28.791,9.092 28.919,8.965 29.076,8.965C29.234,8.965 29.362,9.092 29.362,9.25C29.362,9.799 29.466,10.333 29.672,10.836C29.731,10.982 29.661,11.149 29.515,11.208C29.48,11.223 29.444,11.229 29.408,11.229Z" style="fill:rgb(245,154,32);fill-rule:nonzero;"/>
            </g>
            <g transform="matrix(54.5483,0,0,57.0192,2869.08,223.998)">
                <path d="M29.323,17.156L30.06,15.879C30.139,15.743 30.092,15.569 29.956,15.49C29.819,15.411 29.645,15.458 29.566,15.594L28.829,16.871C28.75,17.007 28.797,17.181 28.933,17.26C28.978,17.286 29.028,17.298 29.076,17.298C29.175,17.298 29.27,17.247 29.323,17.156ZM25.938,13.979L27.214,13.242C27.35,13.164 27.397,12.989 27.318,12.853C27.24,12.716 27.065,12.669 26.929,12.748L25.653,13.485C25.516,13.563 25.47,13.738 25.548,13.874C25.601,13.966 25.697,14.017 25.795,14.017C25.844,14.017 25.893,14.005 25.938,13.979ZM41.569,13.874C41.647,13.738 41.6,13.563 41.464,13.485L40.188,12.748C40.052,12.669 39.877,12.716 39.798,12.853C39.72,12.989 39.766,13.164 39.903,13.242L41.179,13.979C41.224,14.005 41.273,14.017 41.321,14.017C41.42,14.017 41.515,13.966 41.569,13.874ZM38.183,17.26C38.319,17.181 38.366,17.007 38.287,16.871L37.551,15.594C37.472,15.458 37.297,15.411 37.161,15.49C37.025,15.569 36.978,15.743 37.056,15.879L37.793,17.156C37.846,17.247 37.942,17.298 38.041,17.298C38.089,17.298 38.138,17.286 38.183,17.26ZM26.353,9.25C26.353,9.092 26.225,8.965 26.068,8.965L24.594,8.965C24.437,8.965 24.309,9.092 24.309,9.25C24.309,9.407 24.437,9.535 24.594,9.535L26.068,9.535C26.225,9.535 26.353,9.407 26.353,9.25ZM42.807,9.25C42.807,9.092 42.68,8.965 42.522,8.965L41.049,8.965C40.891,8.965 40.764,9.092 40.764,9.25C40.764,9.407 40.891,9.535 41.049,9.535L42.522,9.535C42.68,9.535 42.807,9.407 42.807,9.25ZM33.844,18.214L33.844,16.741C33.844,16.583 33.716,16.455 33.558,16.455C33.401,16.455 33.273,16.583 33.273,16.741L33.273,18.214C33.273,18.372 33.401,18.499 33.558,18.499C33.716,18.499 33.844,18.372 33.844,18.214ZM37.551,2.905L38.287,1.629C38.366,1.493 38.319,1.318 38.183,1.24C38.047,1.161 37.872,1.208 37.793,1.344L37.056,2.62C36.978,2.756 37.025,2.931 37.161,3.01C37.206,3.036 37.255,3.048 37.304,3.048C37.402,3.048 37.498,2.997 37.551,2.905ZM40.188,5.751L41.464,5.015C41.6,4.936 41.647,4.762 41.569,4.625C41.49,4.489 41.315,4.442 41.179,4.521L39.903,5.257C39.766,5.336 39.72,5.511 39.798,5.647C39.851,5.739 39.947,5.79 40.046,5.79C40.094,5.79 40.143,5.777 40.188,5.751ZM27.318,5.647C27.397,5.511 27.35,5.336 27.214,5.257L25.938,4.521C25.802,4.442 25.627,4.489 25.548,4.625C25.47,4.762 25.516,4.936 25.653,5.015L26.929,5.751C26.973,5.777 27.023,5.79 27.071,5.79C27.17,5.79 27.265,5.739 27.318,5.647ZM29.956,3.01C30.092,2.931 30.139,2.756 30.06,2.62L29.323,1.344C29.244,1.208 29.07,1.161 28.933,1.24C28.797,1.318 28.75,1.493 28.829,1.629L29.566,2.905C29.619,2.997 29.715,3.048 29.813,3.048C29.862,3.048 29.911,3.036 29.956,3.01ZM33.558,2.044C33.401,2.044 33.273,1.917 33.273,1.759L33.273,0.286C33.273,0.128 33.401,0 33.558,0C33.716,0 33.844,0.128 33.844,0.286L33.844,1.759C33.844,1.917 33.716,2.044 33.558,2.044Z" style="fill:rgb(249,190,18);fill-rule:nonzero;"/>
            </g>
        </g>
    </g>
</svg>
