
<svg width="100%" height="100%" viewBox="0 0 872 766" version="1.1" xmlns="http://www.w3.org/2000/svg" xmlns:xlink="http://www.w3.org/1999/xlink" xml:space="preserve" xmlns:serif="http://www.serif.com/" style="fill-rule:evenodd;clip-rule:evenodd;stroke-linejoin:round;stroke-miterlimit:2;">
    <g transform="matrix(1,0,0,1,-8691.58,-1888.53)">
        <g id="_14" serif:id="14" transform="matrix(0.714264,0,0,0.683291,5770.61,1757.96)">
            <rect x="4089.49" y="191.094" width="1220.26" height="1120.61" style="fill:none;"/>
            <g transform="matrix(54.5483,0,0,57.0209,-1074.84,-3894.2)">
                <path d="M101.192,75.502C99.504,77.191 99.504,79.928 101.192,81.616C102.881,83.304 105.617,83.304 107.305,81.616C108.993,79.928 108.993,77.191 107.305,75.502C105.617,73.815 102.881,73.815 101.192,75.502Z" style="fill:rgb(249,190,18);fill-rule:nonzero;"/>
            </g>
            <g transform="matrix(54.5483,0,0,57.0209,-1074.84,-3894.2)">
                <path d="M107.305,81.616C107.986,80.935 108.391,80.084 108.523,79.2C107.73,78.294 106.567,77.719 105.267,77.719C103.098,77.719 101.304,79.315 100.989,81.396C101.054,81.471 101.121,81.544 101.192,81.616C102.881,83.304 105.617,83.304 107.305,81.616Z" style="fill:rgb(245,154,32);fill-rule:nonzero;"/>
            </g>
            <g transform="matrix(54.5483,0,0,57.0209,-1074.84,-3894.2)">
                <path d="M107.305,75.502C106.321,74.519 104.981,74.11 103.701,74.273C104.618,74.389 105.505,74.798 106.209,75.502C107.896,77.191 107.896,79.928 106.209,81.616C105.505,82.32 104.618,82.729 103.701,82.846C104.981,83.009 106.321,82.599 107.305,81.616C108.993,79.928 108.993,77.191 107.305,75.502Z" style="fill:rgb(245,154,32);fill-rule:nonzero;"/>
            </g>
            <g transform="matrix(54.5483,0,0,57.0209,-1074.84,-3894.2)">
                <path d="M105.976,85.007C106.129,84.966 106.219,84.81 106.178,84.658L105.906,83.643C105.866,83.492 105.711,83.401 105.557,83.442C105.405,83.483 105.314,83.639 105.355,83.791L105.628,84.806C105.662,84.933 105.777,85.017 105.903,85.017C105.927,85.017 105.952,85.014 105.976,85.007ZM102.871,84.806L103.142,83.791C103.183,83.639 103.093,83.483 102.94,83.442C102.787,83.401 102.632,83.492 102.592,83.643L102.319,84.658C102.279,84.81 102.369,84.966 102.521,85.007C102.546,85.014 102.571,85.017 102.595,85.017C102.721,85.017 102.837,84.933 102.871,84.806ZM109.48,77.453L110.495,77.181C110.647,77.14 110.738,76.984 110.697,76.832C110.656,76.679 110.501,76.589 110.347,76.63L109.333,76.902C109.18,76.943 109.091,77.099 109.132,77.251C109.166,77.378 109.281,77.462 109.407,77.462C109.431,77.462 109.456,77.459 109.48,77.453ZM110.697,80.288C110.738,80.135 110.647,79.979 110.495,79.938L109.48,79.665C109.328,79.624 109.172,79.715 109.132,79.868C109.091,80.02 109.18,80.176 109.333,80.217L110.347,80.489C110.373,80.496 110.397,80.498 110.422,80.498C110.548,80.498 110.663,80.415 110.697,80.288ZM99.932,83.28L100.675,82.537C100.786,82.425 100.786,82.245 100.675,82.133C100.563,82.022 100.383,82.022 100.271,82.133L99.529,82.876C99.416,82.988 99.416,83.168 99.529,83.28C99.584,83.335 99.657,83.363 99.73,83.363C99.803,83.363 99.875,83.335 99.932,83.28ZM108.226,74.985L108.969,74.243C109.081,74.131 109.081,73.951 108.969,73.839C108.858,73.728 108.678,73.728 108.566,73.839L107.823,74.582C107.712,74.693 107.712,74.873 107.823,74.985C107.879,75.04 107.952,75.069 108.025,75.069C108.097,75.069 108.171,75.04 108.226,74.985ZM108.969,83.28C109.081,83.168 109.081,82.988 108.969,82.876L108.226,82.133C108.115,82.022 107.934,82.022 107.823,82.133C107.712,82.245 107.712,82.425 107.823,82.537L108.566,83.28C108.622,83.335 108.694,83.363 108.767,83.363C108.841,83.363 108.914,83.335 108.969,83.28ZM102.94,73.677C103.093,73.636 103.183,73.48 103.142,73.328L102.871,72.313C102.83,72.161 102.675,72.071 102.521,72.111C102.369,72.152 102.279,72.308 102.319,72.46L102.592,73.475C102.626,73.603 102.741,73.687 102.867,73.687C102.891,73.687 102.916,73.683 102.94,73.677ZM105.906,73.475L106.178,72.46C106.219,72.308 106.129,72.152 105.976,72.111C105.823,72.07 105.668,72.161 105.628,72.313L105.355,73.328C105.314,73.48 105.405,73.636 105.557,73.677C105.582,73.683 105.607,73.687 105.632,73.687C105.757,73.687 105.872,73.603 105.906,73.475ZM98.15,80.489L99.164,80.217C99.317,80.176 99.407,80.02 99.366,79.868C99.325,79.715 99.169,79.625 99.017,79.665L98.002,79.938C97.85,79.979 97.759,80.135 97.8,80.288C97.834,80.415 97.95,80.498 98.075,80.498C98.1,80.498 98.125,80.496 98.15,80.489ZM99.366,77.251C99.407,77.099 99.317,76.943 99.164,76.902L98.15,76.63C97.996,76.589 97.841,76.679 97.8,76.832C97.759,76.984 97.85,77.14 98.002,77.181L99.017,77.453C99.041,77.459 99.067,77.462 99.09,77.462C99.216,77.462 99.331,77.378 99.366,77.251ZM100.473,75.069C100.4,75.069 100.327,75.04 100.271,74.985L99.529,74.243C99.416,74.131 99.416,73.951 99.529,73.839C99.64,73.728 99.82,73.728 99.932,73.839L100.675,74.582C100.786,74.693 100.786,74.873 100.675,74.985C100.619,75.04 100.546,75.069 100.473,75.069Z" style="fill:rgb(249,190,18);fill-rule:nonzero;"/>
            </g>
            <g transform="matrix(54.5483,0,0,57.0209,-1074.84,-3894.2)">
                <path d="M110.989,81.339C110.426,81.339 109.9,81.5 109.453,81.776C108.962,79.924 107.274,78.559 105.267,78.559C103.055,78.559 101.232,80.218 100.97,82.36C100.783,82.314 100.587,82.287 100.385,82.287C99.022,82.287 97.917,83.391 97.917,84.753C97.917,86.116 99.022,87.22 100.385,87.22L110.989,87.22C112.613,87.22 113.929,85.904 113.929,84.28C113.929,82.656 112.613,81.339 110.989,81.339Z" style="fill:rgb(33,163,185);fill-rule:nonzero;"/>
            </g>
            <g transform="matrix(54.5483,0,0,57.0209,-1074.84,-3894.2)">
                <path d="M110.989,81.339C110.767,81.339 110.552,81.365 110.344,81.413C111.657,81.707 112.639,82.877 112.639,84.28C112.639,85.904 111.323,87.22 109.699,87.22L110.989,87.22C112.613,87.22 113.929,85.904 113.929,84.28C113.929,82.656 112.613,81.339 110.989,81.339Z" style="fill:rgb(26,139,166);fill-rule:nonzero;"/>
            </g>
            <g transform="matrix(54.5483,0,0,57.0209,-1074.84,-3894.2)">
                <path d="M109.31,81.344C108.687,79.717 107.114,78.559 105.267,78.559C105.046,78.559 104.828,78.577 104.615,78.609C106.261,78.852 107.61,80.113 108.107,81.669C107.623,82.903 108.349,83.823 108.349,83.823C108.349,83.823 108.349,82.439 109.453,81.776C109.416,81.635 109.371,81.498 109.32,81.364C109.317,81.357 109.313,81.351 109.31,81.344Z" style="fill:rgb(26,139,166);fill-rule:nonzero;"/>
            </g>
            <g transform="matrix(1,0,0,1.00003,10.766,2.90253)">
                <g transform="matrix(54.5483,0,0,57.0192,-1141.5,-3918.75)">
                    <path d="M103.754,89.937C103.754,90.437 103.348,90.843 102.847,90.843C102.347,90.843 101.941,90.437 101.941,89.937C101.941,89.436 102.847,88.126 102.847,88.126C102.847,88.126 103.754,89.436 103.754,89.937Z" style="fill:rgb(33,163,185);fill-rule:nonzero;"/>
                </g>
                <g transform="matrix(54.5483,0,0,57.0192,-1141.5,-3918.75)">
                    <path d="M102.847,88.126C102.847,88.126 102.726,88.302 102.573,88.548C102.84,88.976 103.205,89.619 103.205,89.937C103.205,90.341 102.939,90.684 102.573,90.8C102.66,90.828 102.752,90.842 102.847,90.842C103.348,90.842 103.754,90.437 103.754,89.937C103.754,89.436 102.847,88.126 102.847,88.126Z" style="fill:rgb(26,139,166);fill-rule:nonzero;"/>
                </g>
            </g>
            <g transform="matrix(1,0,0,1.00003,1.82077e-12,2.90253)">
                <g transform="matrix(54.5483,0,0,57.0192,-1215.08,-3918.75)">
                    <path d="M109.337,89.937C109.337,90.437 108.93,90.843 108.43,90.843C107.929,90.843 107.524,90.437 107.524,89.937C107.524,89.436 108.43,88.126 108.43,88.126C108.43,88.126 109.337,89.436 109.337,89.937Z" style="fill:rgb(33,163,185);fill-rule:nonzero;"/>
                </g>
                <g transform="matrix(54.5483,0,0,57.0192,-1215.08,-3918.75)">
                    <path d="M108.43,88.126C108.43,88.126 108.308,88.302 108.155,88.548C108.423,88.976 108.787,89.619 108.787,89.937C108.787,90.341 108.521,90.684 108.155,90.8C108.242,90.828 108.335,90.842 108.43,90.842C108.93,90.842 109.337,90.437 109.337,89.937C109.337,89.436 108.43,88.126 108.43,88.126Z" style="fill:rgb(26,139,166);fill-rule:nonzero;"/>
                </g>
            </g>
            <g transform="matrix(1,0,0,1.00003,10.766,2.90253)">
                <g transform="matrix(54.5483,0,0,57.0192,-1005.65,-3918.81)">
                    <path d="M109.337,89.937C109.337,90.437 108.93,90.843 108.43,90.843C107.929,90.843 107.524,90.437 107.524,89.937C107.524,89.436 108.43,88.126 108.43,88.126C108.43,88.126 109.337,89.436 109.337,89.937Z" style="fill:rgb(33,163,185);fill-rule:nonzero;"/>
                </g>
                <g transform="matrix(54.5483,0,0,57.0192,-1005.65,-3918.81)">
                    <path d="M108.43,88.126C108.43,88.126 108.308,88.302 108.155,88.548C108.423,88.976 108.787,89.619 108.787,89.937C108.787,90.341 108.521,90.684 108.155,90.8C108.242,90.828 108.335,90.842 108.43,90.842C108.93,90.842 109.337,90.437 109.337,89.937C109.337,89.436 108.43,88.126 108.43,88.126Z" style="fill:rgb(26,139,166);fill-rule:nonzero;"/>
                </g>
            </g>
        </g>
    </g>
</svg>
