
<svg width="100%" height="100%" viewBox="0 0 872 766" version="1.1" xmlns="http://www.w3.org/2000/svg" xmlns:xlink="http://www.w3.org/1999/xlink" xml:space="preserve" xmlns:serif="http://www.serif.com/" style="fill-rule:evenodd;clip-rule:evenodd;stroke-linejoin:round;stroke-miterlimit:2;">
    <g transform="matrix(1,0,0,1,-11583.1,-1924.19)">
        <g id="_17" serif:id="17" transform="matrix(0.714264,0,0,0.683291,8662.16,1793.61)">
            <rect x="4089.49" y="191.094" width="1220.26" height="1120.61" style="fill:none;"/>
            <g transform="matrix(0.786348,0,0,0.786371,865.536,63.8737)">
                <g transform="matrix(54.5483,0,0,57.0192,2869.08,223.998)">
                    <path d="M33.558,3.187C30.21,3.187 27.495,5.901 27.495,9.25C27.495,12.599 30.21,15.313 33.558,15.313C36.907,15.313 39.622,12.599 39.622,9.25C39.622,5.901 36.907,3.187 33.558,3.187Z" style="fill:rgb(249,190,18);fill-rule:nonzero;"/>
                </g>
                <g transform="matrix(54.5483,0,0,57.0192,2869.08,223.998)">
                    <path d="M33.558,3.187C33.319,3.187 33.082,3.202 32.85,3.229C35.865,3.58 38.204,6.141 38.204,9.25C38.204,12.359 35.865,14.919 32.85,15.27C33.082,15.298 33.319,15.313 33.558,15.313C36.907,15.313 39.622,12.599 39.622,9.25C39.622,5.901 36.907,3.187 33.558,3.187Z" style="fill:rgb(245,154,32);fill-rule:nonzero;"/>
                </g>
                <g transform="matrix(54.5483,0,0,57.0192,2869.08,223.998)">
                    <path d="M29.989,12.246C29.903,12.246 29.817,12.207 29.761,12.133C29.712,12.068 29.664,12.001 29.617,11.934C29.529,11.804 29.562,11.626 29.693,11.537C29.823,11.448 30,11.482 30.089,11.612C30.13,11.672 30.172,11.73 30.216,11.788C30.311,11.913 30.286,12.092 30.161,12.187C30.109,12.227 30.049,12.246 29.989,12.246Z" style="fill:rgb(245,154,32);fill-rule:nonzero;"/>
                </g>
                <g transform="matrix(54.5483,0,0,57.0192,2869.08,223.998)">
                    <path d="M29.408,11.229C29.295,11.229 29.189,11.163 29.143,11.052C28.909,10.48 28.791,9.874 28.791,9.25C28.791,9.092 28.919,8.965 29.076,8.965C29.234,8.965 29.362,9.092 29.362,9.25C29.362,9.799 29.466,10.333 29.672,10.836C29.731,10.982 29.661,11.149 29.515,11.208C29.48,11.223 29.444,11.229 29.408,11.229Z" style="fill:rgb(245,154,32);fill-rule:nonzero;"/>
                </g>
                <g transform="matrix(54.5483,0,0,57.0192,2869.08,223.998)">
                    <path d="M29.323,17.156L30.06,15.879C30.139,15.743 30.092,15.569 29.956,15.49C29.819,15.411 29.645,15.458 29.566,15.594L28.829,16.871C28.75,17.007 28.797,17.181 28.933,17.26C28.978,17.286 29.028,17.298 29.076,17.298C29.175,17.298 29.27,17.247 29.323,17.156ZM25.938,13.979L27.214,13.242C27.35,13.164 27.397,12.989 27.318,12.853C27.24,12.716 27.065,12.669 26.929,12.748L25.653,13.485C25.516,13.563 25.47,13.738 25.548,13.874C25.601,13.966 25.697,14.017 25.795,14.017C25.844,14.017 25.893,14.005 25.938,13.979ZM41.569,13.874C41.647,13.738 41.6,13.563 41.464,13.485L40.188,12.748C40.052,12.669 39.877,12.716 39.798,12.853C39.72,12.989 39.766,13.164 39.903,13.242L41.179,13.979C41.224,14.005 41.273,14.017 41.321,14.017C41.42,14.017 41.515,13.966 41.569,13.874ZM38.183,17.26C38.319,17.181 38.366,17.007 38.287,16.871L37.551,15.594C37.472,15.458 37.297,15.411 37.161,15.49C37.025,15.569 36.978,15.743 37.056,15.879L37.793,17.156C37.846,17.247 37.942,17.298 38.041,17.298C38.089,17.298 38.138,17.286 38.183,17.26ZM26.353,9.25C26.353,9.092 26.225,8.965 26.068,8.965L24.594,8.965C24.437,8.965 24.309,9.092 24.309,9.25C24.309,9.407 24.437,9.535 24.594,9.535L26.068,9.535C26.225,9.535 26.353,9.407 26.353,9.25ZM42.807,9.25C42.807,9.092 42.68,8.965 42.522,8.965L41.049,8.965C40.891,8.965 40.764,9.092 40.764,9.25C40.764,9.407 40.891,9.535 41.049,9.535L42.522,9.535C42.68,9.535 42.807,9.407 42.807,9.25ZM33.844,18.214L33.844,16.741C33.844,16.583 33.716,16.455 33.558,16.455C33.401,16.455 33.273,16.583 33.273,16.741L33.273,18.214C33.273,18.372 33.401,18.499 33.558,18.499C33.716,18.499 33.844,18.372 33.844,18.214ZM37.551,2.905L38.287,1.629C38.366,1.493 38.319,1.318 38.183,1.24C38.047,1.161 37.872,1.208 37.793,1.344L37.056,2.62C36.978,2.756 37.025,2.931 37.161,3.01C37.206,3.036 37.255,3.048 37.304,3.048C37.402,3.048 37.498,2.997 37.551,2.905ZM40.188,5.751L41.464,5.015C41.6,4.936 41.647,4.762 41.569,4.625C41.49,4.489 41.315,4.442 41.179,4.521L39.903,5.257C39.766,5.336 39.72,5.511 39.798,5.647C39.851,5.739 39.947,5.79 40.046,5.79C40.094,5.79 40.143,5.777 40.188,5.751ZM27.318,5.647C27.397,5.511 27.35,5.336 27.214,5.257L25.938,4.521C25.802,4.442 25.627,4.489 25.548,4.625C25.47,4.762 25.516,4.936 25.653,5.015L26.929,5.751C26.973,5.777 27.023,5.79 27.071,5.79C27.17,5.79 27.265,5.739 27.318,5.647ZM29.956,3.01C30.092,2.931 30.139,2.756 30.06,2.62L29.323,1.344C29.244,1.208 29.07,1.161 28.933,1.24C28.797,1.318 28.75,1.493 28.829,1.629L29.566,2.905C29.619,2.997 29.715,3.048 29.813,3.048C29.862,3.048 29.911,3.036 29.956,3.01ZM33.558,2.044C33.401,2.044 33.273,1.917 33.273,1.759L33.273,0.286C33.273,0.128 33.401,0 33.558,0C33.716,0 33.844,0.128 33.844,0.286L33.844,1.759C33.844,1.917 33.716,2.044 33.558,2.044Z" style="fill:rgb(249,190,18);fill-rule:nonzero;"/>
                </g>
            </g>
            <g transform="matrix(0.646107,0,0,0.646107,1859.63,468.942)">
                <g transform="matrix(54.5483,0,0,57.0209,245.253,-1159.57)">
                    <path d="M89.382,29.815C89.397,29.7 89.407,29.583 89.407,29.464C89.407,27.919 88.154,26.666 86.609,26.666C85.947,26.666 85.339,26.898 84.86,27.283C84.056,26.098 82.701,25.318 81.162,25.318C79.08,25.318 77.332,26.742 76.836,28.669C76.446,28.478 76.008,28.367 75.544,28.367C73.919,28.367 72.602,29.684 72.602,31.309C72.602,32.934 73.919,34.251 75.544,34.251L89.038,34.251C90.272,34.251 91.272,33.251 91.272,32.018C91.272,30.902 90.452,29.981 89.382,29.815Z" style="fill:rgb(33,163,185);fill-rule:nonzero;"/>
                </g>
                <g transform="matrix(54.5483,0,0,57.0209,245.253,-1159.57)">
                    <path d="M81.242,31.409L78.975,34.251L82.088,34.251L84.355,31.409L81.242,31.409Z" style="fill:rgb(26,139,166);fill-rule:nonzero;"/>
                </g>
                <g transform="matrix(54.5483,0,0,57.0209,245.253,-1159.57)">
                    <path d="M89.382,29.815C89.397,29.7 89.407,29.583 89.407,29.464C89.407,27.919 88.154,26.666 86.609,26.666C86.344,26.666 86.089,26.705 85.846,26.774C87.022,27.105 87.884,28.183 87.884,29.464C87.884,29.583 87.874,29.7 87.86,29.815C88.93,29.981 89.749,30.902 89.749,32.018C89.749,33.251 88.75,34.251 87.517,34.251L89.038,34.251C90.272,34.251 91.272,33.251 91.272,32.018C91.272,30.902 90.452,29.981 89.382,29.815Z" style="fill:rgb(26,139,166);fill-rule:nonzero;"/>
                </g>
                <g transform="matrix(54.5483,0,0,57.0209,245.253,-1159.57)">
                    <path d="M75.544,28.367C75.453,28.367 75.365,28.373 75.276,28.38C75.618,29.966 76.908,30.836 76.908,30.836C76.908,30.836 76.594,29.902 76.836,28.669C76.446,28.478 76.008,28.367 75.544,28.367Z" style="fill:rgb(26,139,166);fill-rule:nonzero;"/>
                </g>
                <g transform="matrix(54.5483,0,0,57.0209,245.253,-1159.57)">
                    <path d="M86.671,35.576L84.677,35.576L82.726,38.022L84.436,38.022L82.516,40.431L87.124,37.397L85.219,37.397L86.671,35.576Z" style="fill:rgb(249,190,18);fill-rule:nonzero;"/>
                </g>
                <g transform="matrix(54.5483,0,0,57.0209,245.253,-1159.57)">
                    <path d="M83.131,31.409L80.018,31.409L76.973,35.227L79.643,35.227L76.644,38.987L83.838,34.251L80.864,34.251L83.131,31.409Z" style="fill:rgb(249,190,18);fill-rule:nonzero;"/>
                </g>
                <g transform="matrix(54.5483,0,0,57.0209,245.253,-1159.57)">
                    <path d="M85.219,37.397L86.671,35.576L85.723,35.576L84.271,37.397L85.219,37.397Z" style="fill:rgb(245,154,32);fill-rule:nonzero;"/>
                </g>
                <g transform="matrix(54.5483,0,0,57.0209,245.253,-1159.57)">
                    <path d="M86.176,37.397L83.564,39.117L82.516,40.431L87.124,37.397L86.176,37.397Z" style="fill:rgb(245,154,32);fill-rule:nonzero;"/>
                </g>
                <g transform="matrix(54.5483,0,0,57.0209,245.253,-1159.57)">
                    <path d="M80.864,34.251L83.131,31.409L82.183,31.409L79.916,34.251L80.864,34.251Z" style="fill:rgb(245,154,32);fill-rule:nonzero;"/>
                </g>
                <g transform="matrix(54.5483,0,0,57.0209,245.253,-1159.57)">
                    <path d="M82.89,34.251L77.692,37.673L76.644,38.987L83.838,34.251L82.89,34.251Z" style="fill:rgb(245,154,32);fill-rule:nonzero;"/>
                </g>
                <g transform="matrix(54.5483,0,0,57.0209,245.253,-1159.57)">
                    <path d="M72.331,39.272C72.269,39.272 72.205,39.252 72.154,39.21C72.031,39.112 72.01,38.932 72.108,38.809L72.849,37.881C72.948,37.758 73.126,37.738 73.249,37.836C73.372,37.935 73.393,38.114 73.295,38.237L72.554,39.165C72.497,39.236 72.414,39.272 72.331,39.272Z" style="fill:rgb(190,218,230);fill-rule:nonzero;"/>
                </g>
                <g transform="matrix(54.5483,0,0,57.0209,245.253,-1159.57)">
                    <path d="M73.814,37.415C73.751,37.415 73.689,37.394 73.636,37.352C73.513,37.254 73.493,37.074 73.591,36.951L74.984,35.207C75.082,35.083 75.262,35.063 75.385,35.162C75.508,35.26 75.529,35.439 75.43,35.562L74.037,37.307C73.981,37.378 73.898,37.415 73.814,37.415Z" style="fill:rgb(33,163,185);fill-rule:nonzero;"/>
                </g>
                <g transform="matrix(54.5483,0,0,57.0209,245.253,-1159.57)">
                    <path d="M72.925,41.709C72.863,41.709 72.8,41.689 72.747,41.647C72.624,41.549 72.604,41.37 72.702,41.247L73.591,40.133C73.69,40.009 73.869,39.989 73.992,40.087C74.116,40.186 74.135,40.365 74.037,40.488L73.148,41.603C73.092,41.673 73.009,41.709 72.925,41.709Z" style="fill:rgb(190,218,230);fill-rule:nonzero;"/>
                </g>
                <g transform="matrix(54.5483,0,0,57.0209,245.253,-1159.57)">
                    <path d="M74.51,39.724C74.448,39.724 74.385,39.703 74.332,39.661C74.209,39.563 74.19,39.383 74.287,39.26L74.914,38.475C75.013,38.352 75.193,38.332 75.316,38.43C75.439,38.528 75.458,38.707 75.361,38.831L74.734,39.616C74.677,39.686 74.594,39.724 74.51,39.724Z" style="fill:rgb(33,163,185);fill-rule:nonzero;"/>
                </g>
                <g transform="matrix(54.5483,0,0,57.0209,245.253,-1159.57)">
                    <path d="M75.847,38.049C75.784,38.049 75.722,38.028 75.669,37.986C75.546,37.888 75.526,37.709 75.624,37.585L76.827,36.079C76.925,35.956 77.105,35.936 77.228,36.034C77.351,36.132 77.371,36.311 77.273,36.435L76.071,37.941C76.014,38.012 75.931,38.049 75.847,38.049Z" style="fill:rgb(190,218,230);fill-rule:nonzero;"/>
                </g>
                <g transform="matrix(54.5483,0,0,57.0209,245.253,-1159.57)">
                    <path d="M75.464,41.709C75.402,41.709 75.339,41.689 75.286,41.647C75.163,41.549 75.144,41.37 75.242,41.247L76.421,39.769C76.52,39.645 76.7,39.625 76.823,39.724C76.946,39.822 76.965,40.001 76.867,40.124L75.688,41.603C75.631,41.673 75.548,41.709 75.464,41.709Z" style="fill:rgb(190,218,230);fill-rule:nonzero;"/>
                </g>
                <g transform="matrix(54.5483,0,0,57.0209,245.253,-1159.57)">
                    <path d="M78.004,41.709C77.942,41.709 77.878,41.689 77.826,41.647C77.703,41.549 77.683,41.37 77.782,41.247L79.367,39.26C79.465,39.137 79.645,39.117 79.768,39.215C79.891,39.313 79.91,39.493 79.813,39.616L78.227,41.603C78.171,41.673 78.087,41.709 78.004,41.709Z" style="fill:rgb(190,218,230);fill-rule:nonzero;"/>
                </g>
                <g transform="matrix(54.5483,0,0,57.0209,245.253,-1159.57)">
                    <path d="M80.414,38.689C80.352,38.689 80.289,38.669 80.237,38.627C80.114,38.529 80.094,38.35 80.192,38.227L81.529,36.551C81.627,36.428 81.807,36.408 81.93,36.506C82.053,36.604 82.074,36.784 81.975,36.907L80.638,38.582C80.581,38.653 80.498,38.689 80.414,38.689Z" style="fill:rgb(33,163,185);fill-rule:nonzero;"/>
                </g>
                <g transform="matrix(54.5483,0,0,57.0209,245.253,-1159.57)">
                    <path d="M80.543,41.709C80.481,41.709 80.418,41.689 80.366,41.647C80.242,41.549 80.222,41.37 80.321,41.247L82.162,38.938C82.261,38.815 82.441,38.795 82.564,38.894C82.687,38.992 82.707,39.171 82.609,39.294L80.767,41.603C80.71,41.673 80.627,41.709 80.543,41.709Z" style="fill:rgb(190,218,230);fill-rule:nonzero;"/>
                </g>
                <g transform="matrix(54.5483,0,0,57.0209,245.253,-1159.57)">
                    <path d="M83.083,41.709C83.021,41.709 82.957,41.689 82.906,41.647C82.783,41.549 82.762,41.37 82.861,41.247L83.152,40.881C83.249,40.758 83.429,40.738 83.552,40.836C83.675,40.935 83.696,41.114 83.597,41.237L83.306,41.602C83.25,41.673 83.166,41.709 83.083,41.709Z" style="fill:rgb(33,163,185);fill-rule:nonzero;"/>
                </g>
                <g transform="matrix(54.5483,0,0,57.0209,245.253,-1159.57)">
                    <path d="M86.999,36.804C86.937,36.804 86.873,36.784 86.822,36.742C86.699,36.643 86.678,36.464 86.776,36.341L87.681,35.207C87.78,35.083 87.959,35.063 88.082,35.162C88.205,35.26 88.226,35.439 88.127,35.562L87.222,36.697C87.165,36.767 87.082,36.804 86.999,36.804Z" style="fill:rgb(190,218,230);fill-rule:nonzero;"/>
                </g>
                <g transform="matrix(54.5483,0,0,57.0209,245.253,-1159.57)">
                    <path d="M85.622,41.709C85.56,41.709 85.497,41.689 85.445,41.647C85.322,41.549 85.301,41.37 85.4,41.247L86.506,39.86C86.605,39.737 86.784,39.717 86.907,39.815C87.03,39.914 87.05,40.093 86.952,40.216L85.846,41.603C85.789,41.673 85.706,41.709 85.622,41.709Z" style="fill:rgb(190,218,230);fill-rule:nonzero;"/>
                </g>
                <g transform="matrix(54.5483,0,0,57.0209,245.253,-1159.57)">
                    <path d="M87.337,39.561C87.276,39.561 87.212,39.54 87.159,39.498C87.036,39.4 87.017,39.221 87.115,39.098L87.421,38.714C87.519,38.591 87.699,38.571 87.822,38.669C87.945,38.768 87.965,38.947 87.867,39.07L87.561,39.454C87.504,39.524 87.421,39.561 87.337,39.561Z" style="fill:rgb(33,163,185);fill-rule:nonzero;"/>
                </g>
                <g transform="matrix(54.5483,0,0,57.0209,245.253,-1159.57)">
                    <path d="M88.396,38.235C88.333,38.235 88.271,38.215 88.218,38.173C88.095,38.075 88.075,37.895 88.173,37.772L89.525,36.079C89.623,35.956 89.802,35.936 89.925,36.034C90.048,36.132 90.069,36.311 89.971,36.435L88.618,38.128C88.563,38.199 88.48,38.235 88.396,38.235Z" style="fill:rgb(33,163,185);fill-rule:nonzero;"/>
                </g>
            </g>
        </g>
    </g>
</svg>
