
<svg width="100%" height="100%" viewBox="0 0 872 766" version="1.1" xmlns="http://www.w3.org/2000/svg" xmlns:xlink="http://www.w3.org/1999/xlink" xml:space="preserve" xmlns:serif="http://www.serif.com/" style="fill-rule:evenodd;clip-rule:evenodd;stroke-linejoin:round;stroke-miterlimit:2;">
    <g transform="matrix(1,0,0,1,-7748.7,-2774.25)">
        <g id="_18" serif:id="18" transform="matrix(0.714264,0,0,0.683311,4827.73,2643.68)">
            <rect x="4089.49" y="191.094" width="1220.26" height="1120.61" style="fill:none;"/>
            <g transform="matrix(54.5483,0,0,57.0192,4184.87,-2526.81)">
                <path d="M3.904,63.707C3.904,64.298 3.423,64.779 2.831,64.779C2.239,64.779 1.759,64.298 1.759,63.707C1.759,63.114 2.831,61.565 2.831,61.565C2.831,61.565 3.904,63.114 3.904,63.707Z" style="fill:rgb(33,163,185);fill-rule:nonzero;"/>
            </g>
            <g transform="matrix(54.5483,0,0,57.0192,4184.87,-2526.81)">
                <path d="M7.524,60.183C7.524,60.775 7.044,61.255 6.452,61.255C5.86,61.255 5.38,60.775 5.38,60.183C5.38,59.59 6.452,58.041 6.452,58.041C6.452,58.041 7.524,59.59 7.524,60.183Z" style="fill:rgb(33,163,185);fill-rule:nonzero;"/>
            </g>
            <g transform="matrix(54.5483,0,0,57.0192,4184.87,-2526.81)">
                <path d="M10.509,63.707C10.509,64.298 10.029,64.779 9.437,64.779C8.844,64.779 8.364,64.298 8.364,63.707C8.364,63.114 9.437,61.565 9.437,61.565C9.437,61.565 10.509,63.114 10.509,63.707Z" style="fill:rgb(33,163,185);fill-rule:nonzero;"/>
            </g>
            <g transform="matrix(54.5483,0,0,57.0192,4184.87,-2526.81)">
                <path d="M14.13,60.183C14.13,60.775 13.65,61.255 13.057,61.255C12.465,61.255 11.985,60.775 11.985,60.183C11.985,59.59 13.057,58.041 13.057,58.041C13.057,58.041 14.13,59.59 14.13,60.183Z" style="fill:rgb(33,163,185);fill-rule:nonzero;"/>
            </g>
            <g transform="matrix(54.5483,0,0,57.0192,4184.87,-2526.81)">
                <path d="M5.448,59.854L7.455,59.854C7.221,59.155 6.452,58.041 6.452,58.041C6.452,58.041 5.682,59.155 5.448,59.854Z" style="fill:rgb(26,139,166);fill-rule:nonzero;"/>
            </g>
            <g transform="matrix(54.5483,0,0,57.0192,4184.87,-2526.81)">
                <path d="M14.061,59.854C13.827,59.155 13.057,58.041 13.057,58.041C13.057,58.041 12.288,59.155 12.054,59.854L14.061,59.854Z" style="fill:rgb(26,139,166);fill-rule:nonzero;"/>
            </g>
            <g transform="matrix(54.5483,0,0,57.0192,4184.87,-2526.81)">
                <path d="M17.115,63.707C17.115,64.298 16.635,64.779 16.042,64.779C15.45,64.779 14.97,64.298 14.97,63.707C14.97,63.114 16.042,61.565 16.042,61.565C16.042,61.565 17.115,63.114 17.115,63.707Z" style="fill:rgb(33,163,185);fill-rule:nonzero;"/>
            </g>
            <g transform="matrix(54.5483,0,0,57.0192,4184.87,-2526.81)">
                <path d="M2.831,61.565C2.831,61.565 2.726,61.716 2.582,61.942C2.899,62.439 3.406,63.299 3.406,63.707C3.406,64.212 3.054,64.636 2.582,64.748C2.662,64.767 2.745,64.779 2.831,64.779C3.423,64.779 3.904,64.298 3.904,63.707C3.904,63.114 2.831,61.565 2.831,61.565Z" style="fill:rgb(26,139,166);fill-rule:nonzero;"/>
            </g>
            <g transform="matrix(54.5483,0,0,57.0192,4184.87,-2526.81)">
                <path d="M6.452,58.041C6.452,58.041 6.347,58.192 6.203,58.418C6.52,58.915 7.027,59.776 7.027,60.183C7.027,60.689 6.676,61.113 6.203,61.225C6.283,61.244 6.366,61.255 6.452,61.255C7.044,61.255 7.524,60.775 7.524,60.183C7.524,59.59 6.452,58.041 6.452,58.041Z" style="fill:rgb(26,139,166);fill-rule:nonzero;"/>
            </g>
            <g transform="matrix(54.5483,0,0,57.0192,4184.87,-2526.81)">
                <path d="M9.437,61.565C9.437,61.565 9.332,61.716 9.188,61.942C9.505,62.439 10.012,63.299 10.012,63.707C10.012,64.212 9.66,64.636 9.188,64.748C9.268,64.767 9.351,64.779 9.437,64.779C10.029,64.779 10.509,64.298 10.509,63.707C10.509,63.114 9.437,61.565 9.437,61.565Z" style="fill:rgb(26,139,166);fill-rule:nonzero;"/>
            </g>
            <g transform="matrix(54.5483,0,0,57.0192,4184.87,-2526.81)">
                <path d="M13.057,58.041C13.057,58.041 12.953,58.192 12.809,58.418C13.126,58.915 13.633,59.776 13.633,60.183C13.633,60.689 13.281,61.113 12.809,61.225C12.888,61.244 12.971,61.255 13.057,61.255C13.65,61.255 14.13,60.775 14.13,60.183C14.13,59.59 13.057,58.041 13.057,58.041Z" style="fill:rgb(26,139,166);fill-rule:nonzero;"/>
            </g>
            <g transform="matrix(54.5483,0,0,57.0192,4184.87,-2526.81)">
                <path d="M16.042,61.565C16.042,61.565 15.937,61.716 15.794,61.942C16.11,62.439 16.617,63.299 16.617,63.707C16.617,64.212 16.266,64.636 15.794,64.748C15.873,64.767 15.956,64.779 16.042,64.779C16.635,64.779 17.115,64.298 17.115,63.707C17.115,63.114 16.042,61.565 16.042,61.565Z" style="fill:rgb(26,139,166);fill-rule:nonzero;"/>
            </g>
            <g transform="matrix(54.5483,0,0,57.0192,4184.87,-2526.81)">
                <path d="M15.299,52.71C14.794,52.71 14.317,52.828 13.89,53.033C13.222,51.377 11.601,50.207 9.706,50.207C7.704,50.207 6.008,51.513 5.419,53.318C4.269,53.32 3.276,53.98 2.789,54.94C2.686,54.925 2.58,54.915 2.472,54.915C1.281,54.915 0.315,55.88 0.315,57.071C0.315,58.263 1.281,59.228 2.472,59.228L15.299,59.228C17.099,59.228 18.558,57.769 18.558,55.969C18.558,54.169 17.099,52.71 15.299,52.71Z" style="fill:rgb(217,237,244);fill-rule:nonzero;"/>
            </g>
            <g transform="matrix(54.5483,0,0,57.0192,4184.87,-2526.81)">
                <path d="M12.789,53.479C13.089,53.228 13.568,53.083 13.89,53.033C13.836,52.897 13.788,52.8 13.749,52.72C13.013,51.231 11.479,50.207 9.706,50.207C9.485,50.207 9.269,50.226 9.056,50.257C10.662,50.492 12.272,51.843 12.789,53.479Z" style="fill:rgb(190,218,230);fill-rule:nonzero;"/>
            </g>
            <g transform="matrix(54.5483,0,0,57.0192,4184.87,-2526.81)">
                <path d="M15.299,52.71C15.076,52.71 14.86,52.734 14.651,52.777C16.134,53.082 17.248,54.395 17.248,55.969C17.248,57.769 15.789,59.228 13.989,59.228L15.299,59.228C17.099,59.228 18.558,57.769 18.558,55.969C18.558,54.169 17.099,52.71 15.299,52.71Z" style="fill:rgb(190,218,230);fill-rule:nonzero;"/>
            </g>
            <g transform="matrix(54.5483,0,0,57.0192,4184.87,-2526.81)">
                <path d="M4.533,53.457C4.714,54.74 5.667,55.344 5.667,55.344C5.667,55.344 5.017,54.542 5.419,53.318C5.11,53.318 4.813,53.368 4.533,53.457Z" style="fill:rgb(190,218,230);fill-rule:nonzero;"/>
            </g>
            <g transform="matrix(54.5483,0,0,57.0192,4184.87,-2526.81)">
                <path d="M2.472,54.915C2.34,54.915 2.211,54.928 2.085,54.951C2.16,55.666 2.622,56.18 2.622,56.18C2.622,56.18 2.519,55.472 2.789,54.94C2.686,54.925 2.58,54.915 2.472,54.915Z" style="fill:rgb(190,218,230);fill-rule:nonzero;"/>
            </g>
        </g>
    </g>
</svg>
