
<svg width="100%" height="100%" viewBox="0 0 872 766" version="1.1" xmlns="http://www.w3.org/2000/svg" xmlns:xlink="http://www.w3.org/1999/xlink" xml:space="preserve" xmlns:serif="http://www.serif.com/" style="fill-rule:evenodd;clip-rule:evenodd;stroke-linejoin:round;stroke-miterlimit:2;">
    <g transform="matrix(1,0,0,1,-9692.34,-3695.22)">
        <g id="_25" serif:id="25" transform="matrix(0.714264,0,0,0.683311,6771.36,3564.64)">
            <rect x="4089.49" y="191.094" width="1220.26" height="1120.61" style="fill:none;"/>
            <g transform="matrix(61.041,0,0,63.8061,-1769.14,-4621.97)">
                <path d="M108.518,80.851C108.445,80.851 108.372,80.823 108.317,80.767L107.739,80.19C107.628,80.079 107.628,79.898 107.739,79.787C107.85,79.675 108.03,79.675 108.141,79.787L108.72,80.365C108.831,80.476 108.831,80.656 108.72,80.767C108.664,80.823 108.591,80.851 108.518,80.851Z" style="fill:rgb(249,190,18);fill-rule:nonzero;"/>
            </g>
            <g transform="matrix(61.041,0,0,63.8061,-1769.14,-4621.97)">
                <path d="M101.489,80.851C101.416,80.851 101.344,80.823 101.288,80.767C101.177,80.656 101.177,80.476 101.288,80.365L101.865,79.787C101.976,79.675 102.157,79.675 102.268,79.787C102.38,79.898 102.38,80.079 102.268,80.19L101.69,80.767C101.635,80.823 101.562,80.851 101.489,80.851Z" style="fill:rgb(249,190,18);fill-rule:nonzero;"/>
            </g>
            <g transform="matrix(61.041,0,0,63.8061,-1769.14,-4621.97)">
                <path d="M103.718,82.137C103.693,82.137 103.668,82.134 103.643,82.127C103.491,82.086 103.401,81.93 103.442,81.779L103.653,80.99C103.694,80.837 103.851,80.748 104.003,80.788C104.154,80.829 104.245,80.985 104.204,81.137L103.992,81.926C103.958,82.053 103.843,82.137 103.718,82.137Z" style="fill:rgb(249,190,18);fill-rule:nonzero;"/>
            </g>
            <g transform="matrix(61.041,0,0,63.8061,-1769.14,-4621.97)">
                <path d="M106.29,82.137C106.164,82.137 106.049,82.053 106.014,81.926L105.804,81.137C105.763,80.985 105.852,80.829 106.005,80.788C106.158,80.747 106.313,80.837 106.353,80.99L106.565,81.779C106.606,81.93 106.515,82.086 106.364,82.127C106.339,82.134 106.314,82.137 106.29,82.137Z" style="fill:rgb(249,190,18);fill-rule:nonzero;"/>
            </g>
            <g transform="matrix(61.041,0,0,63.8061,-1769.14,-4621.97)">
                <path d="M110.91,79.759C110.36,79.759 109.849,79.916 109.413,80.185C108.934,78.381 107.291,77.051 105.336,77.051C103.18,77.051 101.404,78.667 101.149,80.754C100.966,80.709 100.775,80.683 100.578,80.683C99.25,80.683 98.174,81.759 98.174,83.086C98.174,84.414 99.25,85.49 100.578,85.49L110.91,85.49C112.492,85.49 113.774,84.207 113.774,82.624C113.774,81.042 112.492,79.759 110.91,79.759Z" style="fill:rgb(217,237,244);fill-rule:nonzero;"/>
            </g>
            <g transform="matrix(61.041,0,0,63.8061,-1769.14,-4621.97)">
                <path d="M109.295,79.816C109.284,79.787 109.271,79.759 109.26,79.73C109.236,79.67 109.213,79.609 109.185,79.55C109.158,79.488 109.127,79.426 109.096,79.366C109.081,79.336 109.067,79.307 109.052,79.279C109.01,79.201 108.965,79.123 108.918,79.048C108.912,79.039 108.907,79.029 108.901,79.019L108.9,79.02C108.153,77.837 106.838,77.051 105.336,77.051C105.152,77.051 104.972,77.064 104.796,77.086C105.789,77.208 106.675,77.674 107.331,78.362C107.976,79.04 108.256,79.976 108.198,80.911C108.187,81.08 108.189,81.238 108.198,81.382C108.208,81.537 108.427,81.566 108.474,81.418C108.609,81.002 108.878,80.506 109.413,80.185C109.38,80.059 109.339,79.937 109.294,79.816L109.295,79.816Z" style="fill:rgb(190,218,230);fill-rule:nonzero;"/>
            </g>
            <g transform="matrix(61.041,0,0,63.8061,-1769.14,-4621.97)">
                <path d="M110.91,79.759C110.729,79.759 110.553,79.778 110.382,79.811C111.711,80.059 112.717,81.223 112.717,82.624C112.717,84.207 111.434,85.49 109.852,85.49L110.91,85.49C112.492,85.49 113.774,84.207 113.774,82.624C113.774,81.042 112.492,79.759 110.91,79.759Z" style="fill:rgb(190,218,230);fill-rule:nonzero;"/>
            </g>
            <g transform="matrix(61.041,0,0,63.8061,-1769.14,-4621.97)">
                <path d="M108.264,84.178C108.264,84.473 108.026,84.711 107.732,84.711C107.438,84.711 107.199,84.473 107.199,84.178C107.199,83.884 107.438,83.646 107.732,83.646C108.026,83.646 108.264,83.884 108.264,84.178Z" style="fill:rgb(190,218,230);fill-rule:nonzero;"/>
            </g>
            <g transform="matrix(61.041,0,0,63.8061,-1769.14,-4621.97)">
                <path d="M105.045,85.205L104.564,85.205L104.909,84.86C105.02,84.748 105.02,84.568 104.909,84.457C104.798,84.345 104.618,84.345 104.507,84.457L103.759,85.205L103.138,85.205L103.138,84.583L103.886,83.836C103.997,83.725 103.997,83.544 103.886,83.433C103.774,83.322 103.594,83.322 103.482,83.433L103.138,83.778L103.138,83.298C103.138,83.14 103.011,83.013 102.853,83.013C102.695,83.013 102.568,83.14 102.568,83.298L102.568,83.778L102.223,83.433C102.112,83.322 101.931,83.322 101.82,83.433C101.709,83.544 101.709,83.725 101.82,83.836L102.568,84.583L102.568,85.205L101.947,85.205L101.199,84.457C101.088,84.345 100.908,84.345 100.797,84.457C100.685,84.568 100.685,84.748 100.797,84.86L101.141,85.205L100.661,85.205C100.504,85.205 100.377,85.332 100.377,85.49C100.377,85.647 100.504,85.774 100.661,85.774L101.141,85.774L100.797,86.12C100.685,86.231 100.685,86.411 100.797,86.522C100.852,86.578 100.925,86.606 100.998,86.606C101.071,86.606 101.143,86.578 101.199,86.522L101.947,85.774L102.568,85.774L102.568,86.395L101.82,87.143C101.709,87.254 101.709,87.434 101.82,87.545C101.931,87.657 102.112,87.657 102.223,87.545L102.568,87.201L102.568,87.681C102.568,87.838 102.695,87.966 102.853,87.966C103.011,87.966 103.138,87.838 103.138,87.681L103.138,87.201L103.482,87.545C103.538,87.601 103.611,87.629 103.684,87.629C103.757,87.629 103.83,87.601 103.886,87.545C103.997,87.435 103.997,87.254 103.886,87.143L103.138,86.395L103.138,85.774L103.759,85.774L104.507,86.522C104.562,86.578 104.635,86.606 104.708,86.606C104.781,86.606 104.853,86.578 104.909,86.522C105.02,86.411 105.02,86.231 104.909,86.12L104.564,85.774L105.045,85.774C105.202,85.774 105.329,85.647 105.329,85.49C105.329,85.332 105.202,85.205 105.045,85.205Z" style="fill:rgb(33,163,185);fill-rule:nonzero;"/>
            </g>
            <g transform="matrix(61.041,0,0,63.8061,-1769.14,-4621.97)">
                <path d="M102.825,83.298L102.825,83.778L103.138,83.465L103.138,83.298C103.138,83.14 103.011,83.013 102.853,83.013C102.795,83.013 102.741,83.031 102.696,83.06C102.774,83.111 102.825,83.199 102.825,83.298Z" style="fill:rgb(26,139,166);fill-rule:nonzero;"/>
            </g>
            <g transform="matrix(61.041,0,0,63.8061,-1769.14,-4621.97)">
                <path d="M100.887,84.457L101.635,85.205L101.947,85.205L101.199,84.457C101.102,84.36 100.952,84.347 100.842,84.42C100.857,84.43 100.873,84.443 100.887,84.457Z" style="fill:rgb(26,139,166);fill-rule:nonzero;"/>
            </g>
            <g transform="matrix(61.041,0,0,63.8061,-1769.14,-4621.97)">
                <path d="M101.91,83.433L102.256,83.778L102.256,83.465L102.223,83.433C102.126,83.335 101.975,83.324 101.865,83.396C101.882,83.407 101.896,83.419 101.91,83.433Z" style="fill:rgb(26,139,166);fill-rule:nonzero;"/>
            </g>
            <g transform="matrix(61.041,0,0,63.8061,-1769.14,-4621.97)">
                <path d="M104.597,84.457C104.708,84.568 104.708,84.748 104.597,84.86L104.252,85.205L104.564,85.205L104.909,84.86C105.02,84.748 105.02,84.568 104.909,84.457C104.812,84.36 104.662,84.347 104.552,84.42C104.567,84.431 104.583,84.443 104.597,84.457Z" style="fill:rgb(26,139,166);fill-rule:nonzero;"/>
            </g>
            <g transform="matrix(61.041,0,0,63.8061,-1769.14,-4621.97)">
                <path d="M103.573,83.433C103.684,83.544 103.684,83.725 103.573,83.836L102.825,84.583L102.825,85.205L103.138,85.205L103.138,84.583L103.886,83.836C103.997,83.725 103.997,83.544 103.886,83.433C103.788,83.335 103.639,83.324 103.527,83.396C103.544,83.407 103.558,83.419 103.573,83.433Z" style="fill:rgb(26,139,166);fill-rule:nonzero;"/>
            </g>
            <g transform="matrix(61.041,0,0,63.8061,-1769.14,-4621.97)">
                <path d="M103.138,86.395L103.138,85.774L102.825,85.774L102.825,86.395L103.573,87.143C103.684,87.254 103.684,87.435 103.573,87.545C103.558,87.56 103.544,87.572 103.527,87.582C103.575,87.614 103.63,87.629 103.684,87.629C103.757,87.629 103.83,87.601 103.886,87.545C103.997,87.435 103.997,87.254 103.886,87.143L103.138,86.395Z" style="fill:rgb(26,139,166);fill-rule:nonzero;"/>
            </g>
            <g transform="matrix(61.041,0,0,63.8061,-1769.14,-4621.97)">
                <path d="M105.045,85.205L104.731,85.205C104.889,85.205 105.016,85.332 105.016,85.49C105.016,85.647 104.889,85.774 104.731,85.774L105.045,85.774C105.202,85.774 105.329,85.647 105.329,85.49C105.329,85.332 105.202,85.205 105.045,85.205Z" style="fill:rgb(26,139,166);fill-rule:nonzero;"/>
            </g>
            <g transform="matrix(61.041,0,0,63.8061,-1769.14,-4621.97)">
                <path d="M104.564,85.774L104.252,85.774L104.597,86.12C104.708,86.231 104.708,86.411 104.597,86.522C104.583,86.536 104.567,86.548 104.552,86.559C104.598,86.59 104.653,86.606 104.708,86.606C104.781,86.606 104.853,86.578 104.909,86.522C105.02,86.411 105.02,86.231 104.909,86.12L104.564,85.774Z" style="fill:rgb(26,139,166);fill-rule:nonzero;"/>
            </g>
            <g transform="matrix(61.041,0,0,63.8061,-1769.14,-4621.97)">
                <path d="M102.256,87.201L101.91,87.545C101.896,87.56 101.882,87.572 101.865,87.582C101.975,87.655 102.126,87.643 102.223,87.545L102.256,87.513L102.256,87.201Z" style="fill:rgb(26,139,166);fill-rule:nonzero;"/>
            </g>
            <g transform="matrix(61.041,0,0,63.8061,-1769.14,-4621.97)">
                <path d="M102.825,87.201L102.825,87.681C102.825,87.781 102.774,87.868 102.696,87.918C102.741,87.949 102.795,87.966 102.853,87.966C103.011,87.966 103.138,87.838 103.138,87.681L103.138,87.514L102.825,87.201Z" style="fill:rgb(26,139,166);fill-rule:nonzero;"/>
            </g>
            <g transform="matrix(61.041,0,0,63.8061,-1769.14,-4621.97)">
                <path d="M101.635,85.774L100.887,86.522C100.873,86.536 100.857,86.548 100.842,86.559C100.889,86.59 100.943,86.606 100.998,86.606C101.071,86.606 101.143,86.578 101.199,86.522L101.947,85.774L101.635,85.774Z" style="fill:rgb(26,139,166);fill-rule:nonzero;"/>
            </g>
            <g transform="matrix(61.041,0,0,63.8061,-1769.14,-4621.97)">
                <path d="M107.893,84.178C107.893,84.473 107.655,84.711 107.361,84.711C107.066,84.711 106.828,84.473 106.828,84.178C106.828,83.884 107.066,83.646 107.361,83.646C107.655,83.646 107.893,83.884 107.893,84.178Z" style="fill:rgb(33,163,185);fill-rule:nonzero;"/>
            </g>
            <g transform="matrix(61.041,0,0,63.8061,-1769.14,-4621.97)">
                <path d="M107.361,83.646C107.312,83.646 107.265,83.655 107.221,83.667C107.447,83.729 107.614,83.933 107.614,84.178C107.614,84.424 107.447,84.628 107.221,84.69C107.265,84.703 107.312,84.711 107.361,84.711C107.655,84.711 107.893,84.473 107.893,84.178C107.893,83.884 107.655,83.646 107.361,83.646Z" style="fill:rgb(26,139,166);fill-rule:nonzero;"/>
            </g>
            <g transform="matrix(61.041,0,0,63.8061,-1769.14,-4621.97)">
                <path d="M100.386,89.016C100.06,89.016 99.797,89.28 99.797,89.604C99.797,89.929 100.06,90.192 100.386,90.192C100.71,90.192 100.973,89.929 100.973,89.604C100.973,89.28 100.71,89.016 100.386,89.016ZM112.94,87.344C112.94,87.738 112.622,88.057 112.228,88.057C111.835,88.057 111.515,87.738 111.515,87.344C111.515,86.951 111.835,86.632 112.228,86.632C112.622,86.632 112.94,86.951 112.94,87.344Z" style="fill:rgb(217,237,244);fill-rule:nonzero;"/>
            </g>
            <g transform="matrix(61.041,0,0,63.8061,-1769.14,-4621.97)">
                <path d="M100.386,89.016C100.316,89.016 100.25,89.031 100.188,89.053C100.415,89.134 100.579,89.349 100.579,89.604C100.579,89.859 100.415,90.075 100.188,90.156C100.25,90.178 100.316,90.192 100.386,90.192C100.71,90.192 100.973,89.929 100.973,89.604C100.973,89.28 100.71,89.016 100.386,89.016Z" style="fill:rgb(190,218,230);fill-rule:nonzero;"/>
            </g>
            <g transform="matrix(61.041,0,0,63.8061,-1769.14,-4621.97)">
                <path d="M112.228,86.632C112.159,86.632 112.094,86.645 112.031,86.664C112.328,86.749 112.546,87.02 112.546,87.344C112.546,87.668 112.328,87.94 112.031,88.026C112.094,88.043 112.159,88.057 112.228,88.057C112.622,88.057 112.94,87.738 112.94,87.344C112.94,86.951 112.622,86.632 112.228,86.632Z" style="fill:rgb(190,218,230);fill-rule:nonzero;"/>
            </g>
            <g transform="matrix(61.041,0,0,63.8061,-1769.14,-4621.97)">
                <path d="M107.699,88.943C107.562,88.943 107.452,88.832 107.452,88.695C107.452,88.558 107.562,88.447 107.699,88.447C107.836,88.447 107.947,88.558 107.947,88.695C107.947,88.832 107.836,88.943 107.699,88.943ZM110.097,88.41L109.507,88.41L109.93,87.987C110.042,87.875 110.042,87.695 109.93,87.583C109.819,87.472 109.639,87.472 109.527,87.583L108.701,88.41L108.463,88.41C108.38,88.189 108.205,88.014 107.984,87.931L107.984,87.693L108.81,86.867C108.922,86.755 108.922,86.575 108.81,86.463C108.699,86.353 108.518,86.353 108.407,86.463L107.984,86.887L107.984,86.296C107.984,86.139 107.856,86.012 107.699,86.012C107.542,86.012 107.415,86.139 107.415,86.296L107.415,86.887L106.991,86.463C106.88,86.353 106.7,86.353 106.589,86.463C106.477,86.575 106.477,86.755 106.589,86.867L107.415,87.693L107.415,87.931C107.193,88.014 107.018,88.189 106.936,88.41L106.697,88.41L105.871,87.583C105.76,87.472 105.58,87.472 105.469,87.583C105.357,87.695 105.357,87.875 105.469,87.987L105.891,88.41L105.302,88.41C105.144,88.41 105.016,88.538 105.016,88.695C105.016,88.852 105.144,88.98 105.302,88.98L105.891,88.98L105.469,89.403C105.357,89.514 105.357,89.695 105.469,89.805C105.524,89.861 105.597,89.889 105.67,89.889C105.743,89.889 105.815,89.861 105.871,89.805L106.697,88.98L106.936,88.98C107.018,89.201 107.193,89.375 107.415,89.458L107.415,89.697L106.589,90.523C106.477,90.634 106.477,90.814 106.589,90.925C106.7,91.037 106.88,91.037 106.991,90.925L107.415,90.502L107.415,91.092C107.415,91.25 107.542,91.377 107.699,91.377C107.856,91.377 107.984,91.25 107.984,91.092L107.984,90.502L108.407,90.925C108.463,90.981 108.536,91.009 108.609,91.009C108.681,91.009 108.755,90.981 108.81,90.925C108.922,90.814 108.922,90.634 108.81,90.523L107.984,89.697L107.984,89.458C108.205,89.375 108.38,89.201 108.463,88.98L108.701,88.98L109.527,89.805C109.583,89.861 109.656,89.889 109.729,89.889C109.802,89.889 109.875,89.861 109.93,89.805C110.042,89.695 110.042,89.514 109.93,89.403L109.507,88.98L110.097,88.98C110.255,88.98 110.383,88.852 110.383,88.695C110.383,88.538 110.255,88.41 110.097,88.41Z" style="fill:rgb(33,163,185);fill-rule:nonzero;"/>
            </g>
            <g transform="matrix(61.041,0,0,63.8061,-1769.14,-4621.97)">
                <path d="M106.676,86.463L107.098,86.887L107.098,86.571L106.991,86.463C106.893,86.366 106.743,86.354 106.632,86.428C106.647,86.439 106.662,86.451 106.676,86.463Z" style="fill:rgb(26,139,166);fill-rule:nonzero;"/>
            </g>
            <g transform="matrix(61.041,0,0,63.8061,-1769.14,-4621.97)">
                <path d="M105.555,87.583L106.382,88.41L106.62,88.41C106.627,88.392 106.638,88.376 106.646,88.359L105.871,87.583C105.773,87.486 105.623,87.474 105.512,87.548C105.527,87.558 105.542,87.57 105.555,87.583Z" style="fill:rgb(26,139,166);fill-rule:nonzero;"/>
            </g>
            <g transform="matrix(61.041,0,0,63.8061,-1769.14,-4621.97)">
                <path d="M109.614,87.583C109.725,87.695 109.725,87.875 109.614,87.987L109.191,88.41L109.507,88.41L109.93,87.987C110.042,87.875 110.042,87.695 109.93,87.583C109.833,87.486 109.681,87.474 109.571,87.548C109.586,87.558 109.6,87.57 109.614,87.583Z" style="fill:rgb(26,139,166);fill-rule:nonzero;"/>
            </g>
            <g transform="matrix(61.041,0,0,63.8061,-1769.14,-4621.97)">
                <path d="M107.668,86.296L107.668,86.887L107.984,86.571L107.984,86.296C107.984,86.139 107.856,86.012 107.699,86.012C107.64,86.012 107.587,86.03 107.541,86.06C107.618,86.111 107.668,86.198 107.668,86.296Z" style="fill:rgb(26,139,166);fill-rule:nonzero;"/>
            </g>
            <g transform="matrix(61.041,0,0,63.8061,-1769.14,-4621.97)">
                <path d="M108.494,86.463C108.605,86.575 108.605,86.755 108.494,86.867L107.668,87.693L107.668,87.931C107.889,88.014 108.064,88.189 108.146,88.41L108.386,88.41L108.436,88.359C108.347,88.163 108.187,88.007 107.984,87.931L107.984,87.693L108.81,86.867C108.922,86.755 108.922,86.575 108.81,86.463C108.713,86.366 108.561,86.354 108.451,86.428C108.466,86.439 108.48,86.451 108.494,86.463Z" style="fill:rgb(26,139,166);fill-rule:nonzero;"/>
            </g>
            <g transform="matrix(61.041,0,0,63.8061,-1769.14,-4621.97)">
                <path d="M107.452,88.695C107.452,88.619 107.487,88.551 107.541,88.505C107.498,88.469 107.444,88.447 107.384,88.447C107.247,88.447 107.136,88.558 107.136,88.695C107.136,88.832 107.247,88.943 107.384,88.943C107.444,88.943 107.498,88.919 107.541,88.884C107.487,88.838 107.452,88.771 107.452,88.695Z" style="fill:rgb(26,139,166);fill-rule:nonzero;"/>
            </g>
            <g transform="matrix(61.041,0,0,63.8061,-1769.14,-4621.97)">
                <path d="M106.62,88.98L106.382,88.98L105.555,89.805C105.542,89.819 105.527,89.831 105.512,89.841C105.559,89.873 105.614,89.889 105.67,89.889C105.743,89.889 105.815,89.861 105.871,89.805L106.646,89.031C106.638,89.013 106.627,88.998 106.62,88.98Z" style="fill:rgb(26,139,166);fill-rule:nonzero;"/>
            </g>
            <g transform="matrix(61.041,0,0,63.8061,-1769.14,-4621.97)">
                <path d="M109.507,88.98L109.191,88.98L109.614,89.403C109.725,89.514 109.725,89.695 109.614,89.805C109.6,89.819 109.586,89.831 109.571,89.841C109.619,89.873 109.674,89.889 109.729,89.889C109.802,89.889 109.875,89.861 109.93,89.805C110.042,89.695 110.042,89.514 109.93,89.403L109.507,88.98Z" style="fill:rgb(26,139,166);fill-rule:nonzero;"/>
            </g>
            <g transform="matrix(61.041,0,0,63.8061,-1769.14,-4621.97)">
                <path d="M107.098,90.502L106.676,90.925C106.662,90.939 106.647,90.951 106.632,90.961C106.743,91.036 106.893,91.024 106.991,90.925L107.098,90.819L107.098,90.502Z" style="fill:rgb(26,139,166);fill-rule:nonzero;"/>
            </g>
            <g transform="matrix(61.041,0,0,63.8061,-1769.14,-4621.97)">
                <path d="M110.097,88.41L109.781,88.41C109.938,88.41 110.066,88.538 110.066,88.695C110.066,88.852 109.938,88.98 109.781,88.98L110.097,88.98C110.255,88.98 110.383,88.852 110.383,88.695C110.383,88.538 110.255,88.41 110.097,88.41Z" style="fill:rgb(26,139,166);fill-rule:nonzero;"/>
            </g>
            <g transform="matrix(61.041,0,0,63.8061,-1769.14,-4621.97)">
                <path d="M107.668,90.502L107.668,91.092C107.668,91.192 107.618,91.279 107.541,91.33C107.587,91.36 107.64,91.377 107.699,91.377C107.856,91.377 107.984,91.25 107.984,91.092L107.984,90.819L107.668,90.502Z" style="fill:rgb(26,139,166);fill-rule:nonzero;"/>
            </g>
            <g transform="matrix(61.041,0,0,63.8061,-1769.14,-4621.97)">
                <path d="M107.984,89.697L107.984,89.458C108.187,89.382 108.347,89.227 108.436,89.031L108.386,88.98L108.146,88.98C108.064,89.201 107.889,89.375 107.668,89.458L107.668,89.697L108.494,90.523C108.605,90.634 108.605,90.814 108.494,90.925C108.48,90.939 108.466,90.951 108.451,90.961C108.499,90.993 108.554,91.009 108.609,91.009C108.681,91.009 108.755,90.981 108.81,90.925C108.922,90.814 108.922,90.634 108.81,90.523L107.984,89.697Z" style="fill:rgb(26,139,166);fill-rule:nonzero;"/>
            </g>
        </g>
    </g>
</svg>
