
<svg width="100%" height="100%" viewBox="0 0 872 766" version="1.1" xmlns="http://www.w3.org/2000/svg" xmlns:xlink="http://www.w3.org/1999/xlink" xml:space="preserve" xmlns:serif="http://www.serif.com/" style="fill-rule:evenodd;clip-rule:evenodd;stroke-linejoin:round;stroke-miterlimit:2;">
    <g transform="matrix(1,0,0,1,-9055.18,-4677.81)">
        <g id="_30" serif:id="30" transform="matrix(0.714264,0,0,0.683291,6134.21,4547.24)">
            <rect x="4089.49" y="191.094" width="1220.26" height="1120.61" style="fill:none;"/>
            <g transform="matrix(54.5483,0,0,57.0209,-1070.53,-5277.76)">
                <path d="M101.183,102.68C99.495,104.367 99.495,107.104 101.183,108.792C102.872,110.48 105.608,110.48 107.297,108.792C108.984,107.104 108.984,104.367 107.297,102.68C105.608,100.991 102.872,100.991 101.183,102.68Z" style="fill:rgb(249,190,18);fill-rule:nonzero;"/>
            </g>
            <g transform="matrix(54.5483,0,0,57.0209,-1070.53,-5277.76)">
                <path d="M105.968,112.184C106.12,112.144 106.211,111.987 106.17,111.835L105.898,110.82C105.857,110.668 105.702,110.578 105.549,110.618C105.396,110.659 105.306,110.815 105.346,110.968L105.619,111.982C105.653,112.109 105.768,112.193 105.894,112.193C105.919,112.193 105.943,112.19 105.968,112.184ZM102.862,111.982L103.134,110.968C103.175,110.815 103.084,110.659 102.931,110.618C102.778,110.577 102.623,110.668 102.583,110.82L102.31,111.835C102.27,111.987 102.36,112.144 102.512,112.184C102.537,112.19 102.562,112.193 102.587,112.193C102.713,112.193 102.828,112.109 102.862,111.982ZM109.471,104.629L110.487,104.357C110.638,104.316 110.729,104.16 110.688,104.008C110.647,103.856 110.492,103.767 110.339,103.807L109.324,104.078C109.172,104.119 109.082,104.275 109.123,104.428C109.157,104.555 109.272,104.639 109.398,104.639C109.423,104.639 109.447,104.636 109.471,104.629ZM110.688,107.464C110.729,107.312 110.638,107.155 110.487,107.114L109.471,106.843C109.318,106.802 109.163,106.892 109.123,107.044C109.082,107.196 109.172,107.353 109.324,107.394L110.339,107.665C110.364,107.672 110.388,107.675 110.413,107.675C110.539,107.675 110.654,107.591 110.688,107.464ZM99.923,110.456L100.666,109.714C100.777,109.603 100.777,109.422 100.666,109.311C100.554,109.199 100.374,109.199 100.262,109.311L99.52,110.053C99.408,110.164 99.408,110.345 99.52,110.456C99.575,110.512 99.648,110.54 99.721,110.54C99.794,110.54 99.867,110.512 99.923,110.456ZM108.218,102.162L108.961,101.419C109.072,101.308 109.072,101.127 108.961,101.016C108.849,100.904 108.669,100.904 108.557,101.016L107.814,101.759C107.703,101.87 107.703,102.05 107.814,102.162C107.87,102.218 107.943,102.245 108.016,102.245C108.089,102.245 108.162,102.218 108.218,102.162ZM108.961,110.456C109.072,110.345 109.072,110.164 108.961,110.053L108.218,109.311C108.106,109.199 107.926,109.199 107.814,109.311C107.703,109.422 107.703,109.603 107.814,109.714L108.557,110.456C108.613,110.512 108.685,110.54 108.759,110.54C108.832,110.54 108.905,110.512 108.961,110.456ZM102.931,100.854C103.084,100.813 103.175,100.656 103.134,100.504L102.862,99.49C102.821,99.338 102.666,99.248 102.512,99.289C102.36,99.329 102.27,99.486 102.31,99.637L102.583,100.651C102.617,100.779 102.732,100.863 102.858,100.863C102.883,100.863 102.907,100.86 102.931,100.854ZM105.898,100.651L106.17,99.637C106.211,99.486 106.12,99.329 105.968,99.289C105.814,99.248 105.659,99.337 105.619,99.49L105.346,100.504C105.306,100.656 105.396,100.813 105.549,100.854C105.573,100.86 105.598,100.863 105.623,100.863C105.748,100.863 105.863,100.779 105.898,100.651ZM98.141,107.665L99.156,107.394C99.308,107.353 99.398,107.196 99.357,107.044C99.317,106.893 99.161,106.802 99.008,106.843L97.993,107.114C97.841,107.155 97.75,107.312 97.791,107.464C97.825,107.591 97.941,107.675 98.067,107.675C98.091,107.675 98.117,107.672 98.141,107.665ZM99.357,104.428C99.398,104.275 99.308,104.119 99.156,104.078L98.141,103.807C97.988,103.766 97.832,103.855 97.791,104.008C97.75,104.16 97.841,104.316 97.993,104.357L99.008,104.629C99.033,104.636 99.058,104.639 99.082,104.639C99.207,104.639 99.323,104.555 99.357,104.428ZM100.465,102.245C100.391,102.245 100.318,102.218 100.262,102.162L99.52,101.419C99.408,101.308 99.408,101.127 99.52,101.016C99.631,100.904 99.811,100.904 99.923,101.016L100.666,101.759C100.777,101.87 100.777,102.05 100.666,102.162C100.61,102.218 100.537,102.245 100.465,102.245Z" style="fill:rgb(249,190,18);fill-rule:nonzero;"/>
            </g>
            <g transform="matrix(54.5483,0,0,57.0209,-1070.53,-5277.76)">
                <path d="M103.547,101.471L103.547,110.002C104.871,110.216 106.275,109.813 107.297,108.792C108.984,107.104 108.984,104.367 107.297,102.68C106.275,101.658 104.871,101.256 103.547,101.471Z" style="fill:rgb(245,154,32);fill-rule:nonzero;"/>
            </g>
            <g transform="matrix(54.5483,0,0,57.0209,-1070.53,-5277.76)">
                <path d="M112.425,114.858L105.595,114.858C104.846,114.858 104.24,114.252 104.24,113.504L104.24,97.969C104.24,97.22 104.846,96.614 105.595,96.614L112.425,96.614C113.173,96.614 113.78,97.22 113.78,97.969L113.78,113.504C113.78,114.252 113.173,114.858 112.425,114.858Z" style="fill:rgb(217,237,244);fill-rule:nonzero;"/>
            </g>
            <g transform="matrix(54.5483,0,0,57.0209,-1070.53,-5277.76)">
                <path d="M106.984,99.638L106.209,99.638C106.052,99.638 105.924,99.51 105.924,99.353C105.924,99.196 106.052,99.068 106.209,99.068L106.984,99.068C107.141,99.068 107.269,99.196 107.269,99.353C107.269,99.51 107.141,99.638 106.984,99.638Z" style="fill:rgb(190,218,230);fill-rule:nonzero;"/>
            </g>
            <g transform="matrix(54.5483,0,0,57.0209,-1070.53,-5277.76)">
                <path d="M106.984,100.89L106.209,100.89C106.052,100.89 105.924,100.762 105.924,100.604C105.924,100.446 106.052,100.319 106.209,100.319L106.984,100.319C107.141,100.319 107.269,100.446 107.269,100.604C107.269,100.762 107.141,100.89 106.984,100.89Z" style="fill:rgb(190,218,230);fill-rule:nonzero;"/>
            </g>
            <g transform="matrix(54.5483,0,0,57.0209,-1070.53,-5277.76)">
                <path d="M106.984,102.142L106.209,102.142C106.052,102.142 105.924,102.014 105.924,101.856C105.924,101.698 106.052,101.571 106.209,101.571L106.984,101.571C107.141,101.571 107.269,101.698 107.269,101.856C107.269,102.014 107.141,102.142 106.984,102.142Z" style="fill:rgb(190,218,230);fill-rule:nonzero;"/>
            </g>
            <g transform="matrix(54.5483,0,0,57.0209,-1070.53,-5277.76)">
                <path d="M106.984,103.394L106.209,103.394C106.052,103.394 105.924,103.266 105.924,103.108C105.924,102.95 106.052,102.822 106.209,102.822L106.984,102.822C107.141,102.822 107.269,102.95 107.269,103.108C107.269,103.266 107.141,103.394 106.984,103.394Z" style="fill:rgb(190,218,230);fill-rule:nonzero;"/>
            </g>
            <g transform="matrix(54.5483,0,0,57.0209,-1070.53,-5277.76)">
                <path d="M106.984,104.646L106.209,104.646C106.052,104.646 105.924,104.518 105.924,104.359C105.924,104.202 106.052,104.074 106.209,104.074L106.984,104.074C107.141,104.074 107.269,104.202 107.269,104.359C107.269,104.518 107.141,104.646 106.984,104.646Z" style="fill:rgb(190,218,230);fill-rule:nonzero;"/>
            </g>
            <g transform="matrix(54.5483,0,0,57.0209,-1070.53,-5277.76)">
                <path d="M106.984,105.896L106.209,105.896C106.052,105.896 105.924,105.77 105.924,105.611C105.924,105.454 106.052,105.326 106.209,105.326L106.984,105.326C107.141,105.326 107.269,105.454 107.269,105.611C107.269,105.77 107.141,105.896 106.984,105.896Z" style="fill:rgb(190,218,230);fill-rule:nonzero;"/>
            </g>
            <g transform="matrix(54.5483,0,0,57.0209,-1070.53,-5277.76)">
                <path d="M106.984,107.148L106.209,107.148C106.052,107.148 105.924,107.021 105.924,106.863C105.924,106.706 106.052,106.578 106.209,106.578L106.984,106.578C107.141,106.578 107.269,106.706 107.269,106.863C107.269,107.021 107.141,107.148 106.984,107.148Z" style="fill:rgb(190,218,230);fill-rule:nonzero;"/>
            </g>
            <g transform="matrix(54.5483,0,0,57.0209,-1070.53,-5277.76)">
                <path d="M106.984,108.4L106.209,108.4C106.052,108.4 105.924,108.273 105.924,108.115C105.924,107.958 106.052,107.83 106.209,107.83L106.984,107.83C107.141,107.83 107.269,107.958 107.269,108.115C107.269,108.273 107.141,108.4 106.984,108.4Z" style="fill:rgb(190,218,230);fill-rule:nonzero;"/>
            </g>
            <g transform="matrix(54.5483,0,0,57.0209,-1070.53,-5277.76)">
                <path d="M112.425,96.614L111.503,96.614C112.252,96.614 112.858,97.22 112.858,97.969L112.858,113.504C112.858,114.252 112.252,114.858 111.503,114.858L112.425,114.858C113.173,114.858 113.78,114.252 113.78,113.504L113.78,97.969C113.78,97.22 113.173,96.614 112.425,96.614Z" style="fill:rgb(190,218,230);fill-rule:nonzero;"/>
            </g>
            <g transform="matrix(54.5483,0,0,57.0209,-1070.53,-5277.76)">
                <path d="M110.2,109.043L110.2,99.715C110.2,99.058 109.668,98.525 109.01,98.525C108.352,98.525 107.82,99.058 107.82,99.715L107.82,109.043C107.251,109.427 106.877,110.076 106.877,110.813C106.877,111.992 107.832,112.947 109.01,112.947C110.188,112.947 111.143,111.992 111.143,110.813C111.143,110.076 110.769,109.427 110.2,109.043Z" style="fill:rgb(249,190,18);fill-rule:nonzero;"/>
            </g>
            <g transform="matrix(54.5483,0,0,57.0209,-1070.53,-5277.76)">
                <path d="M109.683,109.771L109.683,99.805C109.683,99.648 109.555,99.52 109.398,99.52C109.241,99.52 109.113,99.648 109.113,99.805L109.113,109.771C108.654,109.896 108.316,110.315 108.316,110.813C108.316,111.411 108.801,111.896 109.398,111.896C109.996,111.896 110.479,111.411 110.479,110.813C110.479,110.315 110.142,109.896 109.683,109.771Z" style="fill:rgb(245,154,32);fill-rule:nonzero;"/>
            </g>
            <g transform="matrix(54.5483,0,0,57.0209,-1070.53,-5277.76)">
                <path d="M107.456,110.813C107.456,110.076 107.83,109.427 108.399,109.043L108.399,99.715C108.399,99.158 108.783,98.692 109.3,98.562C109.207,98.539 109.11,98.525 109.01,98.525C108.352,98.525 107.82,99.058 107.82,99.715L107.82,109.043C107.251,109.427 106.877,110.076 106.877,110.813C106.877,111.992 107.832,112.947 109.01,112.947C109.108,112.947 109.205,112.938 109.3,112.925C108.259,112.783 107.456,111.894 107.456,110.813Z" style="fill:rgb(245,154,32);fill-rule:nonzero;"/>
            </g>
            <g transform="matrix(54.5483,0,0,57.0209,-1070.53,-5277.76)">
                <path d="M109.01,111.099C108.852,111.099 108.724,110.972 108.724,110.813L108.724,99.805C108.724,99.648 108.852,99.52 109.01,99.52C109.168,99.52 109.296,99.648 109.296,99.805L109.296,110.813C109.296,110.972 109.168,111.099 109.01,111.099Z" style="fill:rgb(217,39,63);fill-rule:nonzero;"/>
            </g>
            <g transform="matrix(54.5483,0,0,57.0209,-1070.53,-5277.76)">
                <path d="M107.928,110.813C107.928,110.217 108.413,109.732 109.01,109.732C109.607,109.732 110.092,110.217 110.092,110.813C110.092,111.411 109.607,111.896 109.01,111.896C108.413,111.896 107.928,111.411 107.928,110.813Z" style="fill:rgb(239,69,80);fill-rule:nonzero;"/>
            </g>
            <g transform="matrix(54.5483,0,0,57.0209,-1070.53,-5277.76)">
                <path d="M109.01,109.732C108.949,109.732 108.889,109.738 108.831,109.748C109.344,109.834 109.734,110.277 109.734,110.813C109.734,111.351 109.344,111.794 108.831,111.88C108.889,111.89 108.949,111.896 109.01,111.896C109.607,111.896 110.092,111.411 110.092,110.813C110.092,110.217 109.607,109.732 109.01,109.732Z" style="fill:rgb(217,39,63);fill-rule:nonzero;"/>
            </g>
            <g transform="matrix(54.5483,0,0,57.0209,-1070.53,-5277.76)">
                <path d="M106.561,99.638L105.787,99.638C105.63,99.638 105.502,99.51 105.502,99.353C105.502,99.196 105.63,99.068 105.787,99.068L106.561,99.068C106.719,99.068 106.847,99.196 106.847,99.353C106.847,99.51 106.719,99.638 106.561,99.638Z" style="fill:rgb(4,45,65);fill-rule:nonzero;"/>
            </g>
            <g transform="matrix(54.5483,0,0,57.0209,-1070.53,-5277.76)">
                <path d="M106.561,100.89L105.787,100.89C105.63,100.89 105.502,100.762 105.502,100.604C105.502,100.446 105.63,100.319 105.787,100.319L106.561,100.319C106.719,100.319 106.847,100.446 106.847,100.604C106.847,100.762 106.719,100.89 106.561,100.89Z" style="fill:rgb(4,45,65);fill-rule:nonzero;"/>
            </g>
            <g transform="matrix(54.5483,0,0,57.0209,-1070.53,-5277.76)">
                <path d="M106.561,102.142L105.787,102.142C105.63,102.142 105.502,102.014 105.502,101.856C105.502,101.698 105.63,101.571 105.787,101.571L106.561,101.571C106.719,101.571 106.847,101.698 106.847,101.856C106.847,102.014 106.719,102.142 106.561,102.142Z" style="fill:rgb(4,45,65);fill-rule:nonzero;"/>
            </g>
            <g transform="matrix(54.5483,0,0,57.0209,-1070.53,-5277.76)">
                <path d="M106.561,103.394L105.787,103.394C105.63,103.394 105.502,103.266 105.502,103.108C105.502,102.95 105.63,102.822 105.787,102.822L106.561,102.822C106.719,102.822 106.847,102.95 106.847,103.108C106.847,103.266 106.719,103.394 106.561,103.394Z" style="fill:rgb(4,45,65);fill-rule:nonzero;"/>
            </g>
            <g transform="matrix(54.5483,0,0,57.0209,-1070.53,-5277.76)">
                <path d="M106.561,104.646L105.787,104.646C105.63,104.646 105.502,104.518 105.502,104.359C105.502,104.202 105.63,104.074 105.787,104.074L106.561,104.074C106.719,104.074 106.847,104.202 106.847,104.359C106.847,104.518 106.719,104.646 106.561,104.646Z" style="fill:rgb(4,45,65);fill-rule:nonzero;"/>
            </g>
            <g transform="matrix(54.5483,0,0,57.0209,-1070.53,-5277.76)">
                <path d="M106.561,105.896L105.787,105.896C105.63,105.896 105.502,105.77 105.502,105.611C105.502,105.454 105.63,105.326 105.787,105.326L106.561,105.326C106.719,105.326 106.847,105.454 106.847,105.611C106.847,105.77 106.719,105.896 106.561,105.896Z" style="fill:rgb(4,45,65);fill-rule:nonzero;"/>
            </g>
            <g transform="matrix(54.5483,0,0,57.0209,-1070.53,-5277.76)">
                <path d="M106.561,107.148L105.787,107.148C105.63,107.148 105.502,107.021 105.502,106.863C105.502,106.706 105.63,106.578 105.787,106.578L106.561,106.578C106.719,106.578 106.847,106.706 106.847,106.863C106.847,107.021 106.719,107.148 106.561,107.148Z" style="fill:rgb(4,45,65);fill-rule:nonzero;"/>
            </g>
            <g transform="matrix(54.5483,0,0,57.0209,-1070.53,-5277.76)">
                <path d="M106.561,108.4L105.787,108.4C105.63,108.4 105.502,108.273 105.502,108.115C105.502,107.958 105.63,107.83 105.787,107.83L106.561,107.83C106.719,107.83 106.847,107.958 106.847,108.115C106.847,108.273 106.719,108.4 106.561,108.4Z" style="fill:rgb(4,45,65);fill-rule:nonzero;"/>
            </g>
            <g transform="matrix(54.5483,0,0,57.0209,-1070.53,-5277.76)">
                <path d="M112.657,99.353C112.657,99.743 112.341,100.059 111.951,100.059C111.56,100.059 111.245,99.743 111.245,99.353C111.245,98.962 111.56,98.647 111.951,98.647C112.341,98.647 112.657,98.962 112.657,99.353Z" style="fill:rgb(239,69,80);fill-rule:nonzero;"/>
            </g>
            <g transform="matrix(54.5483,0,0,57.0209,-1070.53,-5277.76)">
                <path d="M111.951,98.647C111.885,98.647 111.821,98.659 111.761,98.676C112.057,98.759 112.276,99.029 112.276,99.353C112.276,99.676 112.057,99.947 111.761,100.029C111.821,100.047 111.885,100.059 111.951,100.059C112.341,100.059 112.657,99.743 112.657,99.353C112.657,98.962 112.341,98.647 111.951,98.647Z" style="fill:rgb(217,39,63);fill-rule:nonzero;"/>
            </g>
        </g>
    </g>
</svg>
