
<svg width="100%" height="100%" viewBox="0 0 872 766" version="1.1" xmlns="http://www.w3.org/2000/svg" xmlns:xlink="http://www.w3.org/1999/xlink" xml:space="preserve" xmlns:serif="http://www.serif.com/" style="fill-rule:evenodd;clip-rule:evenodd;stroke-linejoin:round;stroke-miterlimit:2;">
    <g transform="matrix(1,0,0,1,-7984.57,-4648.18)">
        <g id="_31" serif:id="31" transform="matrix(0.714264,0,0,0.683311,5063.59,4517.6)">
            <rect x="4089.49" y="191.094" width="1220.26" height="1120.61" style="fill:none;"/>
            <g transform="matrix(2.45391,0,0,2.20112,-7178.2,-1531.78)">
                <g transform="matrix(61.041,0,0,63.8061,-1769.14,-4621.97)">
                    <path d="M107.699,88.943C107.562,88.943 107.452,88.832 107.452,88.695C107.452,88.558 107.562,88.447 107.699,88.447C107.836,88.447 107.947,88.558 107.947,88.695C107.947,88.832 107.836,88.943 107.699,88.943ZM110.097,88.41L109.507,88.41L109.93,87.987C110.042,87.875 110.042,87.695 109.93,87.583C109.819,87.472 109.639,87.472 109.527,87.583L108.701,88.41L108.463,88.41C108.38,88.189 108.205,88.014 107.984,87.931L107.984,87.693L108.81,86.867C108.922,86.755 108.922,86.575 108.81,86.463C108.699,86.353 108.518,86.353 108.407,86.463L107.984,86.887L107.984,86.296C107.984,86.139 107.856,86.012 107.699,86.012C107.542,86.012 107.415,86.139 107.415,86.296L107.415,86.887L106.991,86.463C106.88,86.353 106.7,86.353 106.589,86.463C106.477,86.575 106.477,86.755 106.589,86.867L107.415,87.693L107.415,87.931C107.193,88.014 107.018,88.189 106.936,88.41L106.697,88.41L105.871,87.583C105.76,87.472 105.58,87.472 105.469,87.583C105.357,87.695 105.357,87.875 105.469,87.987L105.891,88.41L105.302,88.41C105.144,88.41 105.016,88.538 105.016,88.695C105.016,88.852 105.144,88.98 105.302,88.98L105.891,88.98L105.469,89.403C105.357,89.514 105.357,89.695 105.469,89.805C105.524,89.861 105.597,89.889 105.67,89.889C105.743,89.889 105.815,89.861 105.871,89.805L106.697,88.98L106.936,88.98C107.018,89.201 107.193,89.375 107.415,89.458L107.415,89.697L106.589,90.523C106.477,90.634 106.477,90.814 106.589,90.925C106.7,91.037 106.88,91.037 106.991,90.925L107.415,90.502L107.415,91.092C107.415,91.25 107.542,91.377 107.699,91.377C107.856,91.377 107.984,91.25 107.984,91.092L107.984,90.502L108.407,90.925C108.463,90.981 108.536,91.009 108.609,91.009C108.681,91.009 108.755,90.981 108.81,90.925C108.922,90.814 108.922,90.634 108.81,90.523L107.984,89.697L107.984,89.458C108.205,89.375 108.38,89.201 108.463,88.98L108.701,88.98L109.527,89.805C109.583,89.861 109.656,89.889 109.729,89.889C109.802,89.889 109.875,89.861 109.93,89.805C110.042,89.695 110.042,89.514 109.93,89.403L109.507,88.98L110.097,88.98C110.255,88.98 110.383,88.852 110.383,88.695C110.383,88.538 110.255,88.41 110.097,88.41Z" style="fill:rgb(33,163,185);fill-rule:nonzero;"/>
                </g>
                <g transform="matrix(61.041,0,0,63.8061,-1769.14,-4621.97)">
                    <path d="M106.676,86.463L107.098,86.887L107.098,86.571L106.991,86.463C106.893,86.366 106.743,86.354 106.632,86.428C106.647,86.439 106.662,86.451 106.676,86.463Z" style="fill:rgb(26,139,166);fill-rule:nonzero;"/>
                </g>
                <g transform="matrix(61.041,0,0,63.8061,-1769.14,-4621.97)">
                    <path d="M105.555,87.583L106.382,88.41L106.62,88.41C106.627,88.392 106.638,88.376 106.646,88.359L105.871,87.583C105.773,87.486 105.623,87.474 105.512,87.548C105.527,87.558 105.542,87.57 105.555,87.583Z" style="fill:rgb(26,139,166);fill-rule:nonzero;"/>
                </g>
                <g transform="matrix(61.041,0,0,63.8061,-1769.14,-4621.97)">
                    <path d="M109.614,87.583C109.725,87.695 109.725,87.875 109.614,87.987L109.191,88.41L109.507,88.41L109.93,87.987C110.042,87.875 110.042,87.695 109.93,87.583C109.833,87.486 109.681,87.474 109.571,87.548C109.586,87.558 109.6,87.57 109.614,87.583Z" style="fill:rgb(26,139,166);fill-rule:nonzero;"/>
                </g>
                <g transform="matrix(61.041,0,0,63.8061,-1769.14,-4621.97)">
                    <path d="M107.668,86.296L107.668,86.887L107.984,86.571L107.984,86.296C107.984,86.139 107.856,86.012 107.699,86.012C107.64,86.012 107.587,86.03 107.541,86.06C107.618,86.111 107.668,86.198 107.668,86.296Z" style="fill:rgb(26,139,166);fill-rule:nonzero;"/>
                </g>
                <g transform="matrix(61.041,0,0,63.8061,-1769.14,-4621.97)">
                    <path d="M108.494,86.463C108.605,86.575 108.605,86.755 108.494,86.867L107.668,87.693L107.668,87.931C107.889,88.014 108.064,88.189 108.146,88.41L108.386,88.41L108.436,88.359C108.347,88.163 108.187,88.007 107.984,87.931L107.984,87.693L108.81,86.867C108.922,86.755 108.922,86.575 108.81,86.463C108.713,86.366 108.561,86.354 108.451,86.428C108.466,86.439 108.48,86.451 108.494,86.463Z" style="fill:rgb(26,139,166);fill-rule:nonzero;"/>
                </g>
                <g transform="matrix(61.041,0,0,63.8061,-1769.14,-4621.97)">
                    <path d="M107.452,88.695C107.452,88.619 107.487,88.551 107.541,88.505C107.498,88.469 107.444,88.447 107.384,88.447C107.247,88.447 107.136,88.558 107.136,88.695C107.136,88.832 107.247,88.943 107.384,88.943C107.444,88.943 107.498,88.919 107.541,88.884C107.487,88.838 107.452,88.771 107.452,88.695Z" style="fill:rgb(26,139,166);fill-rule:nonzero;"/>
                </g>
                <g transform="matrix(61.041,0,0,63.8061,-1769.14,-4621.97)">
                    <path d="M106.62,88.98L106.382,88.98L105.555,89.805C105.542,89.819 105.527,89.831 105.512,89.841C105.559,89.873 105.614,89.889 105.67,89.889C105.743,89.889 105.815,89.861 105.871,89.805L106.646,89.031C106.638,89.013 106.627,88.998 106.62,88.98Z" style="fill:rgb(26,139,166);fill-rule:nonzero;"/>
                </g>
                <g transform="matrix(61.041,0,0,63.8061,-1769.14,-4621.97)">
                    <path d="M109.507,88.98L109.191,88.98L109.614,89.403C109.725,89.514 109.725,89.695 109.614,89.805C109.6,89.819 109.586,89.831 109.571,89.841C109.619,89.873 109.674,89.889 109.729,89.889C109.802,89.889 109.875,89.861 109.93,89.805C110.042,89.695 110.042,89.514 109.93,89.403L109.507,88.98Z" style="fill:rgb(26,139,166);fill-rule:nonzero;"/>
                </g>
                <g transform="matrix(61.041,0,0,63.8061,-1769.14,-4621.97)">
                    <path d="M107.098,90.502L106.676,90.925C106.662,90.939 106.647,90.951 106.632,90.961C106.743,91.036 106.893,91.024 106.991,90.925L107.098,90.819L107.098,90.502Z" style="fill:rgb(26,139,166);fill-rule:nonzero;"/>
                </g>
                <g transform="matrix(61.041,0,0,63.8061,-1769.14,-4621.97)">
                    <path d="M110.097,88.41L109.781,88.41C109.938,88.41 110.066,88.538 110.066,88.695C110.066,88.852 109.938,88.98 109.781,88.98L110.097,88.98C110.255,88.98 110.383,88.852 110.383,88.695C110.383,88.538 110.255,88.41 110.097,88.41Z" style="fill:rgb(26,139,166);fill-rule:nonzero;"/>
                </g>
                <g transform="matrix(61.041,0,0,63.8061,-1769.14,-4621.97)">
                    <path d="M107.668,90.502L107.668,91.092C107.668,91.192 107.618,91.279 107.541,91.33C107.587,91.36 107.64,91.377 107.699,91.377C107.856,91.377 107.984,91.25 107.984,91.092L107.984,90.819L107.668,90.502Z" style="fill:rgb(26,139,166);fill-rule:nonzero;"/>
                </g>
                <g transform="matrix(61.041,0,0,63.8061,-1769.14,-4621.97)">
                    <path d="M107.984,89.697L107.984,89.458C108.187,89.382 108.347,89.227 108.436,89.031L108.386,88.98L108.146,88.98C108.064,89.201 107.889,89.375 107.668,89.458L107.668,89.697L108.494,90.523C108.605,90.634 108.605,90.814 108.494,90.925C108.48,90.939 108.466,90.951 108.451,90.961C108.499,90.993 108.554,91.009 108.609,91.009C108.681,91.009 108.755,90.981 108.81,90.925C108.922,90.814 108.922,90.634 108.81,90.523L107.984,89.697Z" style="fill:rgb(26,139,166);fill-rule:nonzero;"/>
                </g>
            </g>
            <g transform="matrix(54.5483,0,0,57.0192,-1018.02,-5277.59)">
                <path d="M112.425,114.858L105.595,114.858C104.846,114.858 104.24,114.252 104.24,113.504L104.24,97.969C104.24,97.22 104.846,96.614 105.595,96.614L112.425,96.614C113.173,96.614 113.78,97.22 113.78,97.969L113.78,113.504C113.78,114.252 113.173,114.858 112.425,114.858Z" style="fill:rgb(217,237,244);fill-rule:nonzero;"/>
            </g>
            <g transform="matrix(1,0,0,1,52.5098,0)">
                <g transform="matrix(54.5483,0,0,57.0192,-1070.53,-5277.59)">
                    <path d="M106.984,99.638L106.209,99.638C106.052,99.638 105.924,99.51 105.924,99.353C105.924,99.196 106.052,99.068 106.209,99.068L106.984,99.068C107.141,99.068 107.269,99.196 107.269,99.353C107.269,99.51 107.141,99.638 106.984,99.638Z" style="fill:rgb(190,218,230);fill-rule:nonzero;"/>
                </g>
                <g transform="matrix(54.5483,0,0,57.0192,-1070.53,-5277.59)">
                    <path d="M106.984,100.89L106.209,100.89C106.052,100.89 105.924,100.762 105.924,100.604C105.924,100.446 106.052,100.319 106.209,100.319L106.984,100.319C107.141,100.319 107.269,100.446 107.269,100.604C107.269,100.762 107.141,100.89 106.984,100.89Z" style="fill:rgb(190,218,230);fill-rule:nonzero;"/>
                </g>
                <g transform="matrix(54.5483,0,0,57.0192,-1070.53,-5277.59)">
                    <path d="M106.984,102.142L106.209,102.142C106.052,102.142 105.924,102.014 105.924,101.856C105.924,101.698 106.052,101.571 106.209,101.571L106.984,101.571C107.141,101.571 107.269,101.698 107.269,101.856C107.269,102.014 107.141,102.142 106.984,102.142Z" style="fill:rgb(190,218,230);fill-rule:nonzero;"/>
                </g>
                <g transform="matrix(54.5483,0,0,57.0192,-1070.53,-5277.59)">
                    <path d="M106.984,103.394L106.209,103.394C106.052,103.394 105.924,103.266 105.924,103.108C105.924,102.95 106.052,102.822 106.209,102.822L106.984,102.822C107.141,102.822 107.269,102.95 107.269,103.108C107.269,103.266 107.141,103.394 106.984,103.394Z" style="fill:rgb(190,218,230);fill-rule:nonzero;"/>
                </g>
                <g transform="matrix(54.5483,0,0,57.0192,-1070.53,-5277.59)">
                    <path d="M106.984,104.646L106.209,104.646C106.052,104.646 105.924,104.518 105.924,104.359C105.924,104.202 106.052,104.074 106.209,104.074L106.984,104.074C107.141,104.074 107.269,104.202 107.269,104.359C107.269,104.518 107.141,104.646 106.984,104.646Z" style="fill:rgb(190,218,230);fill-rule:nonzero;"/>
                </g>
                <g transform="matrix(54.5483,0,0,57.0192,-1070.53,-5277.59)">
                    <path d="M106.984,105.896L106.209,105.896C106.052,105.896 105.924,105.77 105.924,105.611C105.924,105.454 106.052,105.326 106.209,105.326L106.984,105.326C107.141,105.326 107.269,105.454 107.269,105.611C107.269,105.77 107.141,105.896 106.984,105.896Z" style="fill:rgb(190,218,230);fill-rule:nonzero;"/>
                </g>
                <g transform="matrix(54.5483,0,0,57.0192,-1070.53,-5277.59)">
                    <path d="M106.984,107.148L106.209,107.148C106.052,107.148 105.924,107.021 105.924,106.863C105.924,106.706 106.052,106.578 106.209,106.578L106.984,106.578C107.141,106.578 107.269,106.706 107.269,106.863C107.269,107.021 107.141,107.148 106.984,107.148Z" style="fill:rgb(190,218,230);fill-rule:nonzero;"/>
                </g>
                <g transform="matrix(54.5483,0,0,57.0192,-1070.53,-5277.59)">
                    <path d="M106.984,108.4L106.209,108.4C106.052,108.4 105.924,108.273 105.924,108.115C105.924,107.958 106.052,107.83 106.209,107.83L106.984,107.83C107.141,107.83 107.269,107.958 107.269,108.115C107.269,108.273 107.141,108.4 106.984,108.4Z" style="fill:rgb(190,218,230);fill-rule:nonzero;"/>
                </g>
                <g transform="matrix(54.5483,0,0,57.0192,-1070.53,-5277.59)">
                    <path d="M112.425,96.614L111.503,96.614C112.252,96.614 112.858,97.22 112.858,97.969L112.858,113.504C112.858,114.252 112.252,114.858 111.503,114.858L112.425,114.858C113.173,114.858 113.78,114.252 113.78,113.504L113.78,97.969C113.78,97.22 113.173,96.614 112.425,96.614Z" style="fill:rgb(190,218,230);fill-rule:nonzero;"/>
                </g>
                <g transform="matrix(54.5483,0,0,57.0192,-1070.53,-5277.59)">
                    <path d="M110.2,109.043L110.2,99.715C110.2,99.058 109.668,98.525 109.01,98.525C108.352,98.525 107.82,99.058 107.82,99.715L107.82,109.043C107.251,109.427 106.877,110.076 106.877,110.813C106.877,111.992 107.832,112.947 109.01,112.947C110.188,112.947 111.143,111.992 111.143,110.813C111.143,110.076 110.769,109.427 110.2,109.043Z" style="fill:rgb(249,190,18);fill-rule:nonzero;"/>
                </g>
                <g transform="matrix(54.5483,0,0,57.0192,-1070.53,-5277.59)">
                    <path d="M109.683,109.771L109.683,99.805C109.683,99.648 109.555,99.52 109.398,99.52C109.241,99.52 109.113,99.648 109.113,99.805L109.113,109.771C108.654,109.896 108.316,110.315 108.316,110.813C108.316,111.411 108.801,111.896 109.398,111.896C109.996,111.896 110.479,111.411 110.479,110.813C110.479,110.315 110.142,109.896 109.683,109.771Z" style="fill:rgb(245,154,32);fill-rule:nonzero;"/>
                </g>
                <g transform="matrix(54.5483,0,0,57.0192,-1070.53,-5277.59)">
                    <path d="M107.456,110.813C107.456,110.076 107.83,109.427 108.399,109.043L108.399,99.715C108.399,99.158 108.783,98.692 109.3,98.562C109.207,98.539 109.11,98.525 109.01,98.525C108.352,98.525 107.82,99.058 107.82,99.715L107.82,109.043C107.251,109.427 106.877,110.076 106.877,110.813C106.877,111.992 107.832,112.947 109.01,112.947C109.108,112.947 109.205,112.938 109.3,112.925C108.259,112.783 107.456,111.894 107.456,110.813Z" style="fill:rgb(245,154,32);fill-rule:nonzero;"/>
                </g>
                <g transform="matrix(54.5483,0,0,57.0192,-1070.53,-5277.59)">
                    <path d="M109.01,111.099C108.852,111.099 108.724,110.972 108.724,110.813L108.724,99.805C108.724,99.648 108.852,99.52 109.01,99.52C109.168,99.52 109.296,99.648 109.296,99.805L109.296,110.813C109.296,110.972 109.168,111.099 109.01,111.099Z" style="fill:rgb(33,163,185);fill-rule:nonzero;"/>
                </g>
                <g transform="matrix(54.5483,0,0,57.0192,-1070.53,-5277.59)">
                    <path d="M107.928,110.813C107.928,110.217 108.413,109.732 109.01,109.732C109.607,109.732 110.092,110.217 110.092,110.813C110.092,111.411 109.607,111.896 109.01,111.896C108.413,111.896 107.928,111.411 107.928,110.813Z" style="fill:rgb(33,163,185);fill-rule:nonzero;"/>
                </g>
                <g transform="matrix(54.5483,0,0,57.0192,-1070.53,-5277.59)">
                    <path d="M109.01,109.732C108.949,109.732 108.889,109.738 108.831,109.748C109.344,109.834 109.734,110.277 109.734,110.813C109.734,111.351 109.344,111.794 108.831,111.88C108.889,111.89 108.949,111.896 109.01,111.896C109.607,111.896 110.092,111.411 110.092,110.813C110.092,110.217 109.607,109.732 109.01,109.732Z" style="fill:rgb(26,139,166);fill-rule:nonzero;"/>
                </g>
                <g transform="matrix(54.5483,0,0,57.0192,-1070.53,-5277.59)">
                    <path d="M106.561,99.638L105.787,99.638C105.63,99.638 105.502,99.51 105.502,99.353C105.502,99.196 105.63,99.068 105.787,99.068L106.561,99.068C106.719,99.068 106.847,99.196 106.847,99.353C106.847,99.51 106.719,99.638 106.561,99.638Z" style="fill:rgb(4,45,65);fill-rule:nonzero;"/>
                </g>
                <g transform="matrix(54.5483,0,0,57.0192,-1070.53,-5277.59)">
                    <path d="M106.561,100.89L105.787,100.89C105.63,100.89 105.502,100.762 105.502,100.604C105.502,100.446 105.63,100.319 105.787,100.319L106.561,100.319C106.719,100.319 106.847,100.446 106.847,100.604C106.847,100.762 106.719,100.89 106.561,100.89Z" style="fill:rgb(4,45,65);fill-rule:nonzero;"/>
                </g>
                <g transform="matrix(54.5483,0,0,57.0192,-1070.53,-5277.59)">
                    <path d="M106.561,102.142L105.787,102.142C105.63,102.142 105.502,102.014 105.502,101.856C105.502,101.698 105.63,101.571 105.787,101.571L106.561,101.571C106.719,101.571 106.847,101.698 106.847,101.856C106.847,102.014 106.719,102.142 106.561,102.142Z" style="fill:rgb(4,45,65);fill-rule:nonzero;"/>
                </g>
                <g transform="matrix(54.5483,0,0,57.0192,-1070.53,-5277.59)">
                    <path d="M106.561,103.394L105.787,103.394C105.63,103.394 105.502,103.266 105.502,103.108C105.502,102.95 105.63,102.822 105.787,102.822L106.561,102.822C106.719,102.822 106.847,102.95 106.847,103.108C106.847,103.266 106.719,103.394 106.561,103.394Z" style="fill:rgb(4,45,65);fill-rule:nonzero;"/>
                </g>
                <g transform="matrix(54.5483,0,0,57.0192,-1070.53,-5277.59)">
                    <path d="M106.561,104.646L105.787,104.646C105.63,104.646 105.502,104.518 105.502,104.359C105.502,104.202 105.63,104.074 105.787,104.074L106.561,104.074C106.719,104.074 106.847,104.202 106.847,104.359C106.847,104.518 106.719,104.646 106.561,104.646Z" style="fill:rgb(4,45,65);fill-rule:nonzero;"/>
                </g>
                <g transform="matrix(54.5483,0,0,57.0192,-1070.53,-5277.59)">
                    <path d="M106.561,105.896L105.787,105.896C105.63,105.896 105.502,105.77 105.502,105.611C105.502,105.454 105.63,105.326 105.787,105.326L106.561,105.326C106.719,105.326 106.847,105.454 106.847,105.611C106.847,105.77 106.719,105.896 106.561,105.896Z" style="fill:rgb(4,45,65);fill-rule:nonzero;"/>
                </g>
                <g transform="matrix(54.5483,0,0,57.0192,-1070.53,-5277.59)">
                    <path d="M106.561,107.148L105.787,107.148C105.63,107.148 105.502,107.021 105.502,106.863C105.502,106.706 105.63,106.578 105.787,106.578L106.561,106.578C106.719,106.578 106.847,106.706 106.847,106.863C106.847,107.021 106.719,107.148 106.561,107.148Z" style="fill:rgb(4,45,65);fill-rule:nonzero;"/>
                </g>
                <g transform="matrix(54.5483,0,0,57.0192,-1070.53,-5277.59)">
                    <path d="M106.561,108.4L105.787,108.4C105.63,108.4 105.502,108.273 105.502,108.115C105.502,107.958 105.63,107.83 105.787,107.83L106.561,107.83C106.719,107.83 106.847,107.958 106.847,108.115C106.847,108.273 106.719,108.4 106.561,108.4Z" style="fill:rgb(4,45,65);fill-rule:nonzero;"/>
                </g>
                <g transform="matrix(54.5483,0,0,57.0192,-1070.53,-5277.59)">
                    <path d="M112.657,99.353C112.657,99.743 112.341,100.059 111.951,100.059C111.56,100.059 111.245,99.743 111.245,99.353C111.245,98.962 111.56,98.647 111.951,98.647C112.341,98.647 112.657,98.962 112.657,99.353Z" style="fill:rgb(33,163,185);fill-rule:nonzero;"/>
                </g>
                <g transform="matrix(54.5483,0,0,57.0192,-1070.53,-5277.59)">
                    <path d="M111.951,98.647C111.885,98.647 111.821,98.659 111.761,98.676C112.057,98.759 112.276,99.029 112.276,99.353C112.276,99.676 112.057,99.947 111.761,100.029C111.821,100.047 111.885,100.059 111.951,100.059C112.341,100.059 112.657,99.743 112.657,99.353C112.657,98.962 112.341,98.647 111.951,98.647Z" style="fill:rgb(26,139,166);fill-rule:nonzero;"/>
                </g>
            </g>
        </g>
    </g>
</svg>
