
<svg width="100%" height="100%" viewBox="0 0 872 766" version="1.1" xmlns="http://www.w3.org/2000/svg" xmlns:xlink="http://www.w3.org/1999/xlink" xml:space="preserve" xmlns:serif="http://www.serif.com/" style="fill-rule:evenodd;clip-rule:evenodd;stroke-linejoin:round;stroke-miterlimit:2;">
    <g transform="matrix(1,0,0,1,-10276.3,-4648.18)">
        <g id="_32" serif:id="32" transform="matrix(0.714264,0,0,0.683291,7355.31,4517.61)">
            <rect x="4089.49" y="191.094" width="1220.26" height="1120.61" style="fill:none;"/>
            <g transform="matrix(54.5483,0,0,57.0209,1553.24,-3902.36)">
                <path d="M51.55,79.197C51.956,79.197 52.339,79.29 52.683,79.453C52.714,76.709 54.945,74.495 57.695,74.495C60.052,74.495 62.024,76.123 62.561,78.315C62.94,78.159 63.355,78.071 63.79,78.071C65.573,78.071 67.018,79.516 67.018,81.298C67.018,83.081 65.573,84.525 63.79,84.525L51.55,84.525C50.079,84.525 48.886,83.332 48.886,81.861C48.886,80.39 50.079,79.197 51.55,79.197Z" style="fill:rgb(217,237,244);fill-rule:nonzero;"/>
            </g>
            <g transform="matrix(54.5483,0,0,57.0209,1553.24,-3902.36)">
                <path d="M56.344,79.893C56.344,80.17 56.569,80.395 56.846,80.395C57.123,80.395 57.348,80.17 57.348,79.893C57.348,79.009 58.067,78.29 58.95,78.29C59.834,78.29 60.553,79.009 60.553,79.893C60.553,80.777 59.834,81.496 58.95,81.496L55.108,81.496C54.83,81.496 54.606,81.72 54.606,81.998C54.606,82.275 54.83,82.499 55.108,82.499L58.95,82.499C60.388,82.499 61.557,81.331 61.557,79.893C61.557,78.456 60.388,77.287 58.95,77.287C57.513,77.287 56.344,78.456 56.344,79.893Z" style="fill:rgb(190,218,230);fill-rule:nonzero;"/>
            </g>
            <g transform="matrix(54.5483,0,0,57.0209,1553.24,-3902.36)">
                <path d="M52.69,84.037C52.69,83.759 52.465,83.535 52.188,83.535L49.511,83.535C49.5,83.535 49.491,83.537 49.481,83.538C49.97,84.14 50.715,84.525 51.55,84.525L52.299,84.525C52.523,84.474 52.69,84.276 52.69,84.037Z" style="fill:rgb(190,218,230);fill-rule:nonzero;"/>
            </g>
            <g transform="matrix(54.5483,0,0,57.0209,1553.24,-3902.36)">
                <path d="M64.48,82.419L62.703,82.419C62.426,82.419 62.201,82.644 62.201,82.921C62.201,83.199 62.426,83.423 62.703,83.423L64.48,83.423C64.757,83.423 64.982,83.199 64.982,82.921C64.982,82.644 64.757,82.419 64.48,82.419Z" style="fill:rgb(190,218,230);fill-rule:nonzero;"/>
            </g>
            <g transform="matrix(54.5483,0,0,57.0209,1553.24,-3902.36)">
                <path d="M60.008,83.521L54.214,83.521C53.937,83.521 53.712,83.746 53.712,84.023C53.712,84.3 53.937,84.525 54.214,84.525L62.06,84.525C61.582,83.915 60.841,83.521 60.008,83.521Z" style="fill:rgb(190,218,230);fill-rule:nonzero;"/>
            </g>
            <g transform="matrix(54.5483,0,0,57.0209,1553.24,-3902.36)">
                <path d="M51.3,82.499L53.076,82.499C53.353,82.499 53.578,82.275 53.578,81.998C53.578,81.72 53.353,81.496 53.076,81.496L51.3,81.496C51.022,81.496 50.797,81.72 50.797,81.998C50.797,82.275 51.022,82.499 51.3,82.499Z" style="fill:rgb(190,218,230);fill-rule:nonzero;"/>
            </g>
            <g transform="matrix(54.5483,0,0,57.0209,1553.24,-3902.36)">
                <path d="M61.159,78.315C61.538,78.159 61.953,78.071 62.389,78.071C62.425,78.071 62.46,78.075 62.495,78.077C61.878,76.006 59.966,74.495 57.695,74.495C57.458,74.495 57.224,74.513 56.995,74.544C59.034,74.831 60.677,76.345 61.159,78.315Z" style="fill:rgb(190,218,230);fill-rule:nonzero;"/>
            </g>
            <g transform="matrix(54.5483,0,0,57.0209,1553.24,-3902.36)">
                <path d="M63.79,78.071C63.55,78.071 63.317,78.1 63.092,78.15C64.535,78.471 65.616,79.757 65.616,81.298C65.616,83.081 64.171,84.525 62.389,84.525L63.79,84.525C65.573,84.525 67.018,83.081 67.018,81.298C67.018,79.516 65.573,78.071 63.79,78.071Z" style="fill:rgb(190,218,230);fill-rule:nonzero;"/>
            </g>
            <g transform="matrix(54.5483,0,0,57.0209,1553.24,-3902.36)">
                <path d="M62.065,81.123C62.065,81.123 63.686,80.287 63.977,78.081C63.914,78.077 63.853,78.071 63.79,78.071C63.355,78.071 62.94,78.159 62.561,78.315C63.009,80.24 62.065,81.123 62.065,81.123Z" style="fill:rgb(190,218,230);fill-rule:nonzero;"/>
            </g>
            <g transform="matrix(54.5483,0,0,57.0209,1553.24,-3902.36)">
                <path d="M51.522,84.539L48.845,84.539C48.567,84.539 48.343,84.314 48.343,84.037C48.343,83.759 48.567,83.535 48.845,83.535L51.522,83.535C51.799,83.535 52.024,83.759 52.024,84.037C52.024,84.314 51.799,84.539 51.522,84.539Z" style="fill:rgb(33,163,185);fill-rule:nonzero;"/>
            </g>
            <g transform="matrix(54.5483,0,0,57.0209,1553.24,-3902.36)">
                <path d="M52.41,82.499L50.634,82.499C50.356,82.499 50.131,82.275 50.131,81.998C50.131,81.72 50.356,81.496 50.634,81.496L52.41,81.496C52.687,81.496 52.912,81.72 52.912,81.998C52.912,82.275 52.687,82.499 52.41,82.499Z" style="fill:rgb(33,163,185);fill-rule:nonzero;"/>
            </g>
            <g transform="matrix(54.5483,0,0,57.0209,1553.24,-3902.36)">
                <path d="M63.814,83.423L62.037,83.423C61.76,83.423 61.535,83.199 61.535,82.921C61.535,82.644 61.76,82.419 62.037,82.419L63.814,82.419C64.091,82.419 64.316,82.644 64.316,82.921C64.316,83.199 64.091,83.423 63.814,83.423Z" style="fill:rgb(33,163,185);fill-rule:nonzero;"/>
            </g>
            <g transform="matrix(54.5483,0,0,57.0209,1553.24,-3902.36)">
                <path d="M59.342,88.735C57.905,88.735 56.735,87.565 56.735,86.127C56.735,85.85 56.96,85.625 57.237,85.625C57.514,85.625 57.739,85.85 57.739,86.127C57.739,87.011 58.458,87.73 59.342,87.73C60.226,87.73 60.945,87.011 60.945,86.127C60.945,85.244 60.226,84.525 59.342,84.525L53.548,84.525C53.271,84.525 53.046,84.3 53.046,84.023C53.046,83.746 53.271,83.521 53.548,83.521L59.342,83.521C60.78,83.521 61.949,84.69 61.949,86.127C61.949,87.565 60.78,88.735 59.342,88.735Z" style="fill:rgb(33,163,185);fill-rule:nonzero;"/>
            </g>
            <g transform="matrix(54.5483,0,0,57.0209,1553.24,-3902.36)">
                <path d="M58.284,77.287C56.847,77.287 55.678,78.456 55.678,79.893C55.678,80.17 55.903,80.395 56.18,80.395C56.457,80.395 56.682,80.17 56.682,79.893C56.682,79.009 57.401,78.29 58.284,78.29C59.168,78.29 59.887,79.009 59.887,79.893C59.887,80.777 59.168,81.496 58.284,81.496L54.442,81.496C54.164,81.496 53.94,81.72 53.94,81.998C53.94,82.275 54.164,82.499 54.442,82.499L58.284,82.499C59.722,82.499 60.891,81.331 60.891,79.893C60.891,78.456 59.722,77.287 58.284,77.287Z" style="fill:rgb(33,163,185);fill-rule:nonzero;"/>
            </g>
            <g transform="matrix(54.5483,0,0,57.0209,1553.24,-3902.36)">
                <path d="M51.522,83.535L50.977,83.535C51.255,83.535 51.479,83.759 51.479,84.037C51.479,84.314 51.255,84.539 50.977,84.539L51.522,84.539C51.799,84.539 52.024,84.314 52.024,84.037C52.024,83.759 51.799,83.535 51.522,83.535Z" style="fill:rgb(26,139,166);fill-rule:nonzero;"/>
            </g>
            <g transform="matrix(54.5483,0,0,57.0209,1553.24,-3902.36)">
                <path d="M52.41,81.496L51.866,81.496C52.143,81.496 52.368,81.72 52.368,81.998C52.368,82.275 52.143,82.499 51.866,82.499L52.41,82.499C52.687,82.499 52.912,82.275 52.912,81.998C52.912,81.72 52.687,81.496 52.41,81.496Z" style="fill:rgb(26,139,166);fill-rule:nonzero;"/>
            </g>
            <g transform="matrix(54.5483,0,0,57.0209,1553.24,-3902.36)">
                <path d="M63.814,82.419L63.27,82.419C63.547,82.419 63.772,82.644 63.772,82.921C63.772,83.199 63.547,83.423 63.27,83.423L63.814,83.423C64.091,83.423 64.316,83.199 64.316,82.921C64.316,82.644 64.091,82.419 63.814,82.419Z" style="fill:rgb(26,139,166);fill-rule:nonzero;"/>
            </g>
            <g transform="matrix(54.5483,0,0,57.0209,1553.24,-3902.36)">
                <path d="M57.739,86.127C57.739,85.85 57.514,85.625 57.237,85.625C57.137,85.625 57.043,85.656 56.965,85.707C57.103,85.796 57.195,85.951 57.195,86.127C57.195,87.011 57.914,87.73 58.797,87.73C58.891,87.73 58.981,87.721 59.07,87.706C58.315,87.576 57.739,86.918 57.739,86.127Z" style="fill:rgb(26,139,166);fill-rule:nonzero;"/>
            </g>
            <g transform="matrix(54.5483,0,0,57.0209,1553.24,-3902.36)">
                <path d="M59.342,83.521L58.797,83.521C60.235,83.521 61.405,84.69 61.405,86.127C61.405,87.473 60.379,88.583 59.07,88.72C59.159,88.729 59.25,88.735 59.342,88.735C60.78,88.735 61.949,87.565 61.949,86.127C61.949,84.69 60.78,83.521 59.342,83.521Z" style="fill:rgb(26,139,166);fill-rule:nonzero;"/>
            </g>
            <g transform="matrix(54.5483,0,0,57.0209,1553.24,-3902.36)">
                <path d="M56.138,79.893C56.138,80.07 56.046,80.225 55.908,80.314C55.986,80.365 56.079,80.395 56.18,80.395C56.457,80.395 56.682,80.17 56.682,79.893C56.682,79.102 57.258,78.445 58.012,78.316C57.924,78.3 57.833,78.29 57.74,78.29C56.856,78.29 56.138,79.009 56.138,79.893Z" style="fill:rgb(26,139,166);fill-rule:nonzero;"/>
            </g>
            <g transform="matrix(54.5483,0,0,57.0209,1553.24,-3902.36)">
                <path d="M58.284,77.287C58.193,77.287 58.102,77.291 58.012,77.301C59.323,77.438 60.347,78.547 60.347,79.893C60.347,81.331 59.177,82.499 57.74,82.499L58.284,82.499C59.722,82.499 60.891,81.331 60.891,79.893C60.891,78.456 59.722,77.287 58.284,77.287Z" style="fill:rgb(26,139,166);fill-rule:nonzero;"/>
            </g>
        </g>
    </g>
</svg>
