
<svg width="100%" height="100%" viewBox="0 0 872 766" version="1.1" xmlns="http://www.w3.org/2000/svg" xmlns:xlink="http://www.w3.org/1999/xlink" xml:space="preserve" xmlns:serif="http://www.serif.com/" style="fill-rule:evenodd;clip-rule:evenodd;stroke-linejoin:round;stroke-miterlimit:2;">
    <g transform="matrix(1,0,0,1,-11363.8,-4713.75)">
        <g id="_33" serif:id="33" transform="matrix(0.714264,0,0,0.683291,8442.83,4583.17)">
            <rect x="4089.49" y="191.094" width="1220.26" height="1120.61" style="fill:none;"/>
            <g>
                <g transform="matrix(54.5483,0,0,57.0209,237.486,-2526.9)">
                    <path d="M81.345,65.103C85.715,65.103 89.258,61.56 89.258,57.189C89.258,52.819 85.715,49.276 81.345,49.276C76.974,49.276 73.431,52.819 73.431,57.189C73.431,61.56 76.974,65.103 81.345,65.103Z" style="fill:rgb(217,237,244);fill-rule:nonzero;"/>
                </g>
                <g transform="matrix(54.5483,0,0,57.0209,237.486,-2526.9)">
                    <path d="M81.345,49.276C81.025,49.276 80.71,49.297 80.401,49.334C84.325,49.801 87.37,53.139 87.37,57.189C87.37,61.241 84.325,64.579 80.401,65.045C80.71,65.082 81.025,65.103 81.345,65.103C85.715,65.103 89.258,61.56 89.258,57.189C89.258,52.819 85.715,49.276 81.345,49.276Z" style="fill:rgb(190,218,230);fill-rule:nonzero;"/>
                </g>
                <g transform="matrix(54.5483,0,0,57.0209,237.486,-2526.9)">
                    <path d="M79.456,60.79C79.456,60.191 79.942,59.706 80.54,59.706C81.139,59.706 81.624,60.191 81.624,60.79C81.624,61.388 81.139,61.873 80.54,61.873C79.942,61.873 79.456,61.388 79.456,60.79Z" style="fill:rgb(190,218,230);fill-rule:nonzero;"/>
                </g>
                <g transform="matrix(54.5483,0,0,57.0209,237.486,-2526.9)">
                    <path d="M75.452,62.471C75.809,62.219 76.041,61.806 76.041,61.337C76.041,60.571 75.42,59.949 74.654,59.949C74.414,59.949 74.189,60.009 73.992,60.116C74.34,60.988 74.836,61.784 75.452,62.471Z" style="fill:rgb(190,218,230);fill-rule:nonzero;"/>
                </g>
                <g transform="matrix(54.5483,0,0,57.0209,237.486,-2526.9)">
                    <path d="M82.177,55.686C82.177,54.619 83.043,53.754 84.111,53.754C85.178,53.754 86.043,54.619 86.043,55.686C86.043,56.754 85.178,57.62 84.111,57.62C83.043,57.62 82.177,56.754 82.177,55.686Z" style="fill:rgb(190,218,230);fill-rule:nonzero;"/>
                </g>
                <g transform="matrix(54.5483,0,0,57.0209,237.486,-2526.9)">
                    <path d="M76.239,54.594C76.239,53.991 76.727,53.502 77.33,53.502C77.934,53.502 78.423,53.991 78.423,54.594C78.423,55.198 77.934,55.686 77.33,55.686C76.727,55.686 76.239,55.198 76.239,54.594Z" style="fill:rgb(190,218,230);fill-rule:nonzero;"/>
                </g>
                <g transform="matrix(54.5483,0,0,57.0209,237.486,-2526.9)">
                    <path d="M88.941,59.408L86.929,59.408C86.582,59.408 86.301,59.689 86.301,60.036C86.301,60.382 86.582,60.664 86.929,60.664L88.455,60.664C88.652,60.263 88.814,59.843 88.941,59.408ZM80.521,51.34C80.521,50.993 80.802,50.712 81.149,50.712L85.888,50.712C86.404,51.074 86.873,51.496 87.288,51.968L81.149,51.968C80.802,51.968 80.521,51.686 80.521,51.34Z" style="fill:rgb(190,218,230);fill-rule:nonzero;"/>
                </g>
                <g transform="matrix(54.5483,0,0,57.0209,237.486,-2526.9)">
                    <path d="M87.054,59.408C86.937,59.811 86.786,60.2 86.61,60.574C86.703,60.629 86.812,60.664 86.929,60.664L88.455,60.664C88.495,60.582 88.533,60.5 88.57,60.417C88.58,60.393 88.592,60.37 88.603,60.345C88.64,60.26 88.674,60.174 88.708,60.087C88.716,60.068 88.724,60.048 88.732,60.029C88.767,59.936 88.801,59.841 88.833,59.747C88.837,59.737 88.84,59.726 88.844,59.716C88.878,59.614 88.91,59.512 88.941,59.409L88.941,59.408L87.054,59.408Z" style="fill:rgb(217,237,244);fill-rule:nonzero;"/>
                </g>
                <g transform="matrix(54.5483,0,0,57.0209,237.486,-2526.9)">
                    <path d="M83.999,50.712C84.515,51.074 84.985,51.496 85.401,51.968L87.288,51.968C86.977,51.614 86.635,51.288 86.266,50.995L86.266,50.994C86.143,50.896 86.017,50.802 85.888,50.712L83.999,50.712Z" style="fill:rgb(217,237,244);fill-rule:nonzero;"/>
                </g>
                <g transform="matrix(54.5483,0,0,57.0209,237.486,-2526.9)">
                    <path d="M73.504,58.248L75.634,58.248C75.981,58.248 76.262,57.967 76.262,57.62C76.262,57.273 75.981,56.992 75.634,56.992L73.436,56.992C73.435,57.058 73.431,57.123 73.431,57.189C73.431,57.549 73.457,57.901 73.504,58.248Z" style="fill:rgb(190,218,230);fill-rule:nonzero;"/>
                </g>
                <g transform="matrix(54.5483,0,0,57.0209,237.486,-2526.9)">
                    <path d="M89.35,51.338L88.364,51.707L88.67,50.699L88.014,49.874L89.068,49.855L89.649,48.976L89.993,49.972L91.009,50.253L90.168,50.889L90.214,51.941L89.35,51.338Z" style="fill:rgb(249,190,18);fill-rule:nonzero;"/>
                </g>
                <g transform="matrix(54.5483,0,0,57.0209,237.486,-2526.9)">
                    <path d="M89.649,48.976L89.586,50.215L90.078,50.475L89.462,50.866L90.214,51.941L90.168,50.889L91.009,50.253L89.993,49.972L89.649,48.976Z" style="fill:rgb(245,154,32);fill-rule:nonzero;"/>
                </g>
                <g transform="matrix(54.5483,0,0,57.0209,237.486,-2526.9)">
                    <path d="M74.308,65.282L73.677,66.01L73.483,65.066L72.594,64.692L73.432,64.214L73.513,63.254L74.226,63.903L75.164,63.684L74.768,64.562L75.266,65.387L74.308,65.282Z" style="fill:rgb(249,190,18);fill-rule:nonzero;"/>
                </g>
                <g transform="matrix(54.5483,0,0,57.0209,237.486,-2526.9)">
                    <path d="M73.513,63.254L73.93,64.329L74.492,64.252L74.222,64.829L75.266,65.387L74.768,64.562L75.164,63.684L74.226,63.903L73.513,63.254Z" style="fill:rgb(245,154,32);fill-rule:nonzero;"/>
                </g>
            </g>
        </g>
    </g>
</svg>
