
<svg width="100%" height="100%" viewBox="0 0 872 766" version="1.1" xmlns="http://www.w3.org/2000/svg" xmlns:xlink="http://www.w3.org/1999/xlink" xml:space="preserve" xmlns:serif="http://www.serif.com/" style="fill-rule:evenodd;clip-rule:evenodd;stroke-linejoin:round;stroke-miterlimit:2;">
    <g transform="matrix(1,0,0,1,-12283.7,-5709.49)">
        <g id="_39" serif:id="39" transform="matrix(0.714264,0,0,0.683311,9362.72,5578.92)">
            <rect x="4089.49" y="191.094" width="1220.26" height="1120.61" style="fill:none;"/>
            <g transform="matrix(-47.0831,0,0,49.2159,9745.73,199.767)">
                <path d="M109.742,12.519C112.782,12.519 115.246,10.055 115.246,7.015C115.246,3.976 112.782,1.511 109.742,1.511C106.702,1.511 104.238,3.976 104.238,7.015C104.238,10.055 106.702,12.519 109.742,12.519Z" style="fill:rgb(217,237,244);fill-rule:nonzero;"/>
            </g>
            <g transform="matrix(-47.0831,0,0,49.2159,9745.73,199.767)">
                <path d="M111.179,11.494C110.893,11.494 110.62,11.543 110.363,11.629C110.373,11.513 110.379,11.396 110.379,11.278C110.379,8.866 108.424,6.91 106.011,6.91C105.383,6.91 104.785,7.044 104.245,7.284C104.386,10.199 106.793,12.519 109.742,12.519C110.717,12.519 111.632,12.264 112.426,11.82C112.056,11.613 111.632,11.494 111.179,11.494Z" style="fill:rgb(190,218,230);fill-rule:nonzero;"/>
            </g>
            <g transform="matrix(-47.0831,0,0,49.2159,9745.73,199.767)">
                <path d="M109.742,1.511C109.464,1.511 109.191,1.532 108.925,1.572C111.576,1.967 113.61,4.253 113.61,7.015C113.61,9.777 111.576,12.063 108.925,12.458C109.191,12.498 109.464,12.519 109.742,12.519C112.782,12.519 115.246,10.055 115.246,7.015C115.246,3.976 112.782,1.511 109.742,1.511Z" style="fill:rgb(190,218,230);fill-rule:nonzero;"/>
            </g>
            <g transform="matrix(-47.0831,0,0,49.2159,9745.73,199.767)">
                <path d="M108.428,9.519C108.428,9.103 108.766,8.765 109.182,8.765C109.599,8.765 109.936,9.103 109.936,9.519C109.936,9.935 109.599,10.272 109.182,10.272C108.766,10.272 108.428,9.935 108.428,9.519Z" style="fill:rgb(217,237,244);fill-rule:nonzero;"/>
            </g>
            <g transform="matrix(-47.0831,0,0,49.2159,9745.73,199.767)">
                <path d="M105.644,10.688C105.891,10.513 106.053,10.226 106.053,9.899C106.053,9.366 105.621,8.934 105.089,8.934C104.922,8.934 104.765,8.976 104.629,9.05C104.87,9.657 105.216,10.21 105.644,10.688Z" style="fill:rgb(190,218,230);fill-rule:nonzero;"/>
            </g>
            <g transform="matrix(-47.0831,0,0,49.2159,9745.73,199.767)">
                <path d="M110.321,5.97C110.321,5.228 110.923,4.625 111.666,4.625C112.408,4.625 113.01,5.228 113.01,5.97C113.01,6.712 112.408,7.314 111.666,7.314C110.923,7.314 110.321,6.712 110.321,5.97Z" style="fill:rgb(190,218,230);fill-rule:nonzero;"/>
            </g>
            <g transform="matrix(-47.0831,0,0,49.2159,9745.73,199.767)">
                <path d="M106.19,5.21C106.19,4.791 106.53,4.451 106.95,4.451C107.37,4.451 107.71,4.791 107.71,5.21C107.71,5.63 107.37,5.97 106.95,5.97C106.53,5.97 106.19,5.63 106.19,5.21Z" style="fill:rgb(190,218,230);fill-rule:nonzero;"/>
            </g>
            <g transform="matrix(-47.0831,0,0,49.2159,9745.73,199.767)">
                <path d="M109.605,3.383L113.876,3.383C113.587,3.055 113.261,2.762 112.901,2.51L109.605,2.51C109.364,2.51 109.169,2.706 109.169,2.947C109.169,3.188 109.364,3.383 109.605,3.383Z" style="fill:rgb(190,218,230);fill-rule:nonzero;"/>
            </g>
            <g transform="matrix(-47.0831,0,0,49.2159,9745.73,199.767)">
                <path d="M113.876,3.383C113.659,3.137 113.421,2.911 113.165,2.707C113.079,2.639 112.991,2.573 112.902,2.51L111.266,2.51C111.625,2.762 111.953,3.055 112.241,3.383L113.876,3.383Z" style="fill:rgb(217,237,244);fill-rule:nonzero;"/>
            </g>
            <g transform="matrix(-47.0831,0,0,49.2159,9745.73,199.767)">
                <path d="M115.025,8.558L113.626,8.558C113.385,8.558 113.189,8.753 113.189,8.995C113.189,9.236 113.385,9.431 113.626,9.431L114.687,9.431C114.824,9.153 114.936,8.86 115.025,8.558Z" style="fill:rgb(190,218,230);fill-rule:nonzero;"/>
            </g>
            <g transform="matrix(-47.0831,0,0,49.2159,9745.73,199.767)">
                <path d="M113.626,8.558C113.526,8.558 113.436,8.592 113.363,8.648C113.315,8.8 113.261,8.95 113.202,9.096C113.248,9.288 113.42,9.431 113.626,9.431L114.687,9.431C114.754,9.295 114.814,9.156 114.87,9.014C114.872,9.008 114.875,9.002 114.877,8.996C114.932,8.853 114.981,8.707 115.025,8.558L113.626,8.558Z" style="fill:rgb(217,237,244);fill-rule:nonzero;"/>
            </g>
            <g transform="matrix(-47.0831,0,0,49.2159,9745.73,199.767)">
                <path d="M104.289,7.751L105.77,7.751C106.011,7.751 106.207,7.556 106.207,7.314C106.207,7.073 106.011,6.877 105.77,6.877L104.242,6.877C104.24,6.923 104.238,6.969 104.238,7.015C104.238,7.265 104.257,7.51 104.289,7.751Z" style="fill:rgb(190,218,230);fill-rule:nonzero;"/>
            </g>
            <g transform="matrix(-47.0831,0,0,49.2159,9745.73,199.767)">
                <path d="M106.207,7.314C106.207,7.133 106.097,6.979 105.94,6.912C105.339,6.922 104.766,7.053 104.248,7.283C104.249,7.307 104.249,7.332 104.25,7.356C104.252,7.379 104.254,7.401 104.255,7.424C104.263,7.534 104.274,7.643 104.289,7.75L104.289,7.751L105.77,7.751C106.011,7.751 106.207,7.556 106.207,7.314Z" style="fill:rgb(217,237,244);fill-rule:nonzero;"/>
            </g>
            <g transform="matrix(-47.0831,0,0,49.2159,9745.73,199.767)">
                <path d="M110.367,12.307C110.081,12.307 109.807,12.355 109.551,12.442C109.56,12.326 109.566,12.208 109.566,12.09C109.566,9.678 107.611,7.723 105.199,7.723C103.24,7.723 101.582,9.012 101.028,10.789C100.703,10.685 100.356,10.628 99.995,10.628C98.121,10.628 96.601,12.147 96.601,14.022C96.601,15.897 98.121,17.417 99.995,17.417L110.367,17.417C111.778,17.417 112.922,16.273 112.922,14.862C112.922,13.451 111.778,12.307 110.367,12.307Z" style="fill:rgb(33,163,185);fill-rule:nonzero;"/>
            </g>
            <g transform="matrix(-47.0831,0,0,49.2159,9745.73,199.767)">
                <path d="M108.475,12.09L108.475,12.117C108.474,12.376 108.704,12.576 108.961,12.536L109.551,12.442L109.559,12.322C109.563,12.245 109.566,12.168 109.566,12.09C109.566,9.678 107.611,7.723 105.199,7.723C105.016,7.723 104.839,7.737 104.662,7.759C106.812,8.032 108.475,9.866 108.475,12.09Z" style="fill:rgb(26,139,166);fill-rule:nonzero;"/>
            </g>
            <g transform="matrix(-47.0831,0,0,49.2159,9745.73,199.767)">
                <path d="M110.367,12.307C110.18,12.307 110,12.329 109.826,12.368C110.972,12.62 111.831,13.64 111.831,14.862C111.831,16.273 110.686,17.417 109.275,17.417L110.367,17.417C111.778,17.417 112.922,16.273 112.922,14.862C112.922,13.451 111.778,12.307 110.367,12.307Z" style="fill:rgb(26,139,166);fill-rule:nonzero;"/>
            </g>
            <g transform="matrix(1,0,0,1,135.029,-15.0081)">
                <g transform="matrix(54.5483,0,0,57.0192,-1141.5,-3918.75)">
                    <path d="M103.754,89.937C103.754,90.437 103.348,90.843 102.847,90.843C102.347,90.843 101.941,90.437 101.941,89.937C101.941,89.436 102.847,88.126 102.847,88.126C102.847,88.126 103.754,89.436 103.754,89.937Z" style="fill:rgb(33,163,185);fill-rule:nonzero;"/>
                </g>
                <g transform="matrix(54.5483,0,0,57.0192,-1141.5,-3918.75)">
                    <path d="M102.847,88.126C102.847,88.126 102.726,88.302 102.573,88.548C102.84,88.976 103.205,89.619 103.205,89.937C103.205,90.341 102.939,90.684 102.573,90.8C102.66,90.828 102.752,90.842 102.847,90.842C103.348,90.842 103.754,90.437 103.754,89.937C103.754,89.436 102.847,88.126 102.847,88.126Z" style="fill:rgb(26,139,166);fill-rule:nonzero;"/>
                </g>
            </g>
            <g transform="matrix(1,0,0,1,124.263,-15.0081)">
                <g transform="matrix(54.5483,0,0,57.0192,-1215.08,-3918.75)">
                    <path d="M109.337,89.937C109.337,90.437 108.93,90.843 108.43,90.843C107.929,90.843 107.524,90.437 107.524,89.937C107.524,89.436 108.43,88.126 108.43,88.126C108.43,88.126 109.337,89.436 109.337,89.937Z" style="fill:rgb(33,163,185);fill-rule:nonzero;"/>
                </g>
                <g transform="matrix(54.5483,0,0,57.0192,-1215.08,-3918.75)">
                    <path d="M108.43,88.126C108.43,88.126 108.308,88.302 108.155,88.548C108.423,88.976 108.787,89.619 108.787,89.937C108.787,90.341 108.521,90.684 108.155,90.8C108.242,90.828 108.335,90.842 108.43,90.842C108.93,90.842 109.337,90.437 109.337,89.937C109.337,89.436 108.43,88.126 108.43,88.126Z" style="fill:rgb(26,139,166);fill-rule:nonzero;"/>
                </g>
            </g>
            <g transform="matrix(54.5483,0,0,57.0192,-870.617,-3933.82)">
                <path d="M109.337,89.937C109.337,90.437 108.93,90.843 108.43,90.843C107.929,90.843 107.524,90.437 107.524,89.937C107.524,89.436 108.43,88.126 108.43,88.126C108.43,88.126 109.337,89.436 109.337,89.937Z" style="fill:rgb(33,163,185);fill-rule:nonzero;"/>
            </g>
        </g>
    </g>
</svg>
