
<svg width="100%" height="100%" viewBox="0 0 872 766" version="1.1" xmlns="http://www.w3.org/2000/svg" xmlns:xlink="http://www.w3.org/1999/xlink" xml:space="preserve" xmlns:serif="http://www.serif.com/" style="fill-rule:evenodd;clip-rule:evenodd;stroke-linejoin:round;stroke-miterlimit:2;">
    <g transform="matrix(1,0,0,1,-14549,-5645.99)">
        <g id="_41" serif:id="41" transform="matrix(0.714264,0,0,0.683291,11628.1,5515.42)">
            <rect x="4089.49" y="191.094" width="1220.26" height="1120.61" style="fill:none;"/>
            <g transform="matrix(1.19581,0,0,1.19584,-982.462,-74.4836)">
                <g transform="matrix(-47.0831,0,0,49.2159,9745.73,199.767)">
                    <path d="M109.742,12.519C112.782,12.519 115.246,10.055 115.246,7.015C115.246,3.976 112.782,1.511 109.742,1.511C106.702,1.511 104.238,3.976 104.238,7.015C104.238,10.055 106.702,12.519 109.742,12.519Z" style="fill:rgb(217,237,244);fill-rule:nonzero;"/>
                </g>
                <g transform="matrix(-47.0831,0,0,49.2159,9745.73,199.767)">
                    <path d="M111.179,11.494C110.893,11.494 110.62,11.543 110.363,11.629C110.373,11.513 110.379,11.396 110.379,11.278C110.379,8.866 108.424,6.91 106.011,6.91C105.383,6.91 104.785,7.044 104.245,7.284C104.386,10.199 106.793,12.519 109.742,12.519C110.717,12.519 111.632,12.264 112.426,11.82C112.056,11.613 111.632,11.494 111.179,11.494Z" style="fill:rgb(190,218,230);fill-rule:nonzero;"/>
                </g>
                <g transform="matrix(-47.0831,0,0,49.2159,9745.73,199.767)">
                    <path d="M109.742,1.511C109.464,1.511 109.191,1.532 108.925,1.572C111.576,1.967 113.61,4.253 113.61,7.015C113.61,9.777 111.576,12.063 108.925,12.458C109.191,12.498 109.464,12.519 109.742,12.519C112.782,12.519 115.246,10.055 115.246,7.015C115.246,3.976 112.782,1.511 109.742,1.511Z" style="fill:rgb(190,218,230);fill-rule:nonzero;"/>
                </g>
                <g transform="matrix(-47.0831,0,0,49.2159,9745.73,199.767)">
                    <path d="M108.428,9.519C108.428,9.103 108.766,8.765 109.182,8.765C109.599,8.765 109.936,9.103 109.936,9.519C109.936,9.935 109.599,10.272 109.182,10.272C108.766,10.272 108.428,9.935 108.428,9.519Z" style="fill:rgb(217,237,244);fill-rule:nonzero;"/>
                </g>
                <g transform="matrix(-47.0831,0,0,49.2159,9745.73,199.767)">
                    <path d="M105.644,10.688C105.891,10.513 106.053,10.226 106.053,9.899C106.053,9.366 105.621,8.934 105.089,8.934C104.922,8.934 104.765,8.976 104.629,9.05C104.87,9.657 105.216,10.21 105.644,10.688Z" style="fill:rgb(190,218,230);fill-rule:nonzero;"/>
                </g>
                <g transform="matrix(-47.0831,0,0,49.2159,9745.73,199.767)">
                    <path d="M110.321,5.97C110.321,5.228 110.923,4.625 111.666,4.625C112.408,4.625 113.01,5.228 113.01,5.97C113.01,6.712 112.408,7.314 111.666,7.314C110.923,7.314 110.321,6.712 110.321,5.97Z" style="fill:rgb(190,218,230);fill-rule:nonzero;"/>
                </g>
                <g transform="matrix(-47.0831,0,0,49.2159,9745.73,199.767)">
                    <path d="M106.19,5.21C106.19,4.791 106.53,4.451 106.95,4.451C107.37,4.451 107.71,4.791 107.71,5.21C107.71,5.63 107.37,5.97 106.95,5.97C106.53,5.97 106.19,5.63 106.19,5.21Z" style="fill:rgb(190,218,230);fill-rule:nonzero;"/>
                </g>
                <g transform="matrix(-47.0831,0,0,49.2159,9745.73,199.767)">
                    <path d="M109.605,3.383L113.876,3.383C113.587,3.055 113.261,2.762 112.901,2.51L109.605,2.51C109.364,2.51 109.169,2.706 109.169,2.947C109.169,3.188 109.364,3.383 109.605,3.383Z" style="fill:rgb(190,218,230);fill-rule:nonzero;"/>
                </g>
                <g transform="matrix(-47.0831,0,0,49.2159,9745.73,199.767)">
                    <path d="M113.876,3.383C113.659,3.137 113.421,2.911 113.165,2.707C113.079,2.639 112.991,2.573 112.902,2.51L111.266,2.51C111.625,2.762 111.953,3.055 112.241,3.383L113.876,3.383Z" style="fill:rgb(217,237,244);fill-rule:nonzero;"/>
                </g>
                <g transform="matrix(-47.0831,0,0,49.2159,9745.73,199.767)">
                    <path d="M115.025,8.558L113.626,8.558C113.385,8.558 113.189,8.753 113.189,8.995C113.189,9.236 113.385,9.431 113.626,9.431L114.687,9.431C114.824,9.153 114.936,8.86 115.025,8.558Z" style="fill:rgb(190,218,230);fill-rule:nonzero;"/>
                </g>
                <g transform="matrix(-47.0831,0,0,49.2159,9745.73,199.767)">
                    <path d="M113.626,8.558C113.526,8.558 113.436,8.592 113.363,8.648C113.315,8.8 113.261,8.95 113.202,9.096C113.248,9.288 113.42,9.431 113.626,9.431L114.687,9.431C114.754,9.295 114.814,9.156 114.87,9.014C114.872,9.008 114.875,9.002 114.877,8.996C114.932,8.853 114.981,8.707 115.025,8.558L113.626,8.558Z" style="fill:rgb(217,237,244);fill-rule:nonzero;"/>
                </g>
                <g transform="matrix(-47.0831,0,0,49.2159,9745.73,199.767)">
                    <path d="M104.289,7.751L105.77,7.751C106.011,7.751 106.207,7.556 106.207,7.314C106.207,7.073 106.011,6.877 105.77,6.877L104.242,6.877C104.24,6.923 104.238,6.969 104.238,7.015C104.238,7.265 104.257,7.51 104.289,7.751Z" style="fill:rgb(190,218,230);fill-rule:nonzero;"/>
                </g>
                <g transform="matrix(-47.0831,0,0,49.2159,9745.73,199.767)">
                    <path d="M106.207,7.314C106.207,7.133 106.097,6.979 105.94,6.912C105.339,6.922 104.766,7.053 104.248,7.283C104.249,7.307 104.249,7.332 104.25,7.356C104.252,7.379 104.254,7.401 104.255,7.424C104.263,7.534 104.274,7.643 104.289,7.75L104.289,7.751L105.77,7.751C106.011,7.751 106.207,7.556 106.207,7.314Z" style="fill:rgb(217,237,244);fill-rule:nonzero;"/>
                </g>
            </g>
            <g transform="matrix(0.745225,0,0,0.745225,1323.26,341.245)">
                <g transform="matrix(54.5483,0,0,57.0209,245.253,-1159.57)">
                    <path d="M89.382,29.815C89.397,29.7 89.407,29.583 89.407,29.464C89.407,27.919 88.154,26.666 86.609,26.666C85.947,26.666 85.339,26.898 84.86,27.283C84.056,26.098 82.701,25.318 81.162,25.318C79.08,25.318 77.332,26.742 76.836,28.669C76.446,28.478 76.008,28.367 75.544,28.367C73.919,28.367 72.602,29.684 72.602,31.309C72.602,32.934 73.919,34.251 75.544,34.251L89.038,34.251C90.272,34.251 91.272,33.251 91.272,32.018C91.272,30.902 90.452,29.981 89.382,29.815Z" style="fill:rgb(33,163,185);fill-rule:nonzero;"/>
                </g>
                <g transform="matrix(54.5483,0,0,57.0209,245.253,-1159.57)">
                    <path d="M81.242,31.409L78.975,34.251L82.088,34.251L84.355,31.409L81.242,31.409Z" style="fill:rgb(26,139,166);fill-rule:nonzero;"/>
                </g>
                <g transform="matrix(54.5483,0,0,57.0209,245.253,-1159.57)">
                    <path d="M89.382,29.815C89.397,29.7 89.407,29.583 89.407,29.464C89.407,27.919 88.154,26.666 86.609,26.666C86.344,26.666 86.089,26.705 85.846,26.774C87.022,27.105 87.884,28.183 87.884,29.464C87.884,29.583 87.874,29.7 87.86,29.815C88.93,29.981 89.749,30.902 89.749,32.018C89.749,33.251 88.75,34.251 87.517,34.251L89.038,34.251C90.272,34.251 91.272,33.251 91.272,32.018C91.272,30.902 90.452,29.981 89.382,29.815Z" style="fill:rgb(26,139,166);fill-rule:nonzero;"/>
                </g>
                <g transform="matrix(54.5483,0,0,57.0209,245.253,-1159.57)">
                    <path d="M75.544,28.367C75.453,28.367 75.365,28.373 75.276,28.38C75.618,29.966 76.908,30.836 76.908,30.836C76.908,30.836 76.594,29.902 76.836,28.669C76.446,28.478 76.008,28.367 75.544,28.367Z" style="fill:rgb(26,139,166);fill-rule:nonzero;"/>
                </g>
                <g transform="matrix(54.5483,0,0,57.0209,245.253,-1159.57)">
                    <path d="M86.671,35.576L84.677,35.576L82.726,38.022L84.436,38.022L82.516,40.431L87.124,37.397L85.219,37.397L86.671,35.576Z" style="fill:rgb(249,190,18);fill-rule:nonzero;"/>
                </g>
                <g transform="matrix(54.5483,0,0,57.0209,245.253,-1159.57)">
                    <path d="M83.131,31.409L80.018,31.409L76.973,35.227L79.643,35.227L76.644,38.987L83.838,34.251L80.864,34.251L83.131,31.409Z" style="fill:rgb(249,190,18);fill-rule:nonzero;"/>
                </g>
                <g transform="matrix(54.5483,0,0,57.0209,245.253,-1159.57)">
                    <path d="M85.219,37.397L86.671,35.576L85.723,35.576L84.271,37.397L85.219,37.397Z" style="fill:rgb(245,154,32);fill-rule:nonzero;"/>
                </g>
                <g transform="matrix(54.5483,0,0,57.0209,245.253,-1159.57)">
                    <path d="M86.176,37.397L83.564,39.117L82.516,40.431L87.124,37.397L86.176,37.397Z" style="fill:rgb(245,154,32);fill-rule:nonzero;"/>
                </g>
                <g transform="matrix(54.5483,0,0,57.0209,245.253,-1159.57)">
                    <path d="M80.864,34.251L83.131,31.409L82.183,31.409L79.916,34.251L80.864,34.251Z" style="fill:rgb(245,154,32);fill-rule:nonzero;"/>
                </g>
                <g transform="matrix(54.5483,0,0,57.0209,245.253,-1159.57)">
                    <path d="M82.89,34.251L77.692,37.673L76.644,38.987L83.838,34.251L82.89,34.251Z" style="fill:rgb(245,154,32);fill-rule:nonzero;"/>
                </g>
                <g transform="matrix(54.5483,0,0,57.0209,245.253,-1159.57)">
                    <path d="M72.331,39.272C72.269,39.272 72.205,39.252 72.154,39.21C72.031,39.112 72.01,38.932 72.108,38.809L72.849,37.881C72.948,37.758 73.126,37.738 73.249,37.836C73.372,37.935 73.393,38.114 73.295,38.237L72.554,39.165C72.497,39.236 72.414,39.272 72.331,39.272Z" style="fill:rgb(190,218,230);fill-rule:nonzero;"/>
                </g>
                <g transform="matrix(54.5483,0,0,57.0209,245.253,-1159.57)">
                    <path d="M73.814,37.415C73.751,37.415 73.689,37.394 73.636,37.352C73.513,37.254 73.493,37.074 73.591,36.951L74.984,35.207C75.082,35.083 75.262,35.063 75.385,35.162C75.508,35.26 75.529,35.439 75.43,35.562L74.037,37.307C73.981,37.378 73.898,37.415 73.814,37.415Z" style="fill:rgb(33,163,185);fill-rule:nonzero;"/>
                </g>
                <g transform="matrix(54.5483,0,0,57.0209,245.253,-1159.57)">
                    <path d="M72.925,41.709C72.863,41.709 72.8,41.689 72.747,41.647C72.624,41.549 72.604,41.37 72.702,41.247L73.591,40.133C73.69,40.009 73.869,39.989 73.992,40.087C74.116,40.186 74.135,40.365 74.037,40.488L73.148,41.603C73.092,41.673 73.009,41.709 72.925,41.709Z" style="fill:rgb(190,218,230);fill-rule:nonzero;"/>
                </g>
                <g transform="matrix(54.5483,0,0,57.0209,245.253,-1159.57)">
                    <path d="M74.51,39.724C74.448,39.724 74.385,39.703 74.332,39.661C74.209,39.563 74.19,39.383 74.287,39.26L74.914,38.475C75.013,38.352 75.193,38.332 75.316,38.43C75.439,38.528 75.458,38.707 75.361,38.831L74.734,39.616C74.677,39.686 74.594,39.724 74.51,39.724Z" style="fill:rgb(33,163,185);fill-rule:nonzero;"/>
                </g>
                <g transform="matrix(54.5483,0,0,57.0209,245.253,-1159.57)">
                    <path d="M75.847,38.049C75.784,38.049 75.722,38.028 75.669,37.986C75.546,37.888 75.526,37.709 75.624,37.585L76.827,36.079C76.925,35.956 77.105,35.936 77.228,36.034C77.351,36.132 77.371,36.311 77.273,36.435L76.071,37.941C76.014,38.012 75.931,38.049 75.847,38.049Z" style="fill:rgb(190,218,230);fill-rule:nonzero;"/>
                </g>
                <g transform="matrix(54.5483,0,0,57.0209,245.253,-1159.57)">
                    <path d="M75.464,41.709C75.402,41.709 75.339,41.689 75.286,41.647C75.163,41.549 75.144,41.37 75.242,41.247L76.421,39.769C76.52,39.645 76.7,39.625 76.823,39.724C76.946,39.822 76.965,40.001 76.867,40.124L75.688,41.603C75.631,41.673 75.548,41.709 75.464,41.709Z" style="fill:rgb(190,218,230);fill-rule:nonzero;"/>
                </g>
                <g transform="matrix(54.5483,0,0,57.0209,245.253,-1159.57)">
                    <path d="M78.004,41.709C77.942,41.709 77.878,41.689 77.826,41.647C77.703,41.549 77.683,41.37 77.782,41.247L79.367,39.26C79.465,39.137 79.645,39.117 79.768,39.215C79.891,39.313 79.91,39.493 79.813,39.616L78.227,41.603C78.171,41.673 78.087,41.709 78.004,41.709Z" style="fill:rgb(190,218,230);fill-rule:nonzero;"/>
                </g>
                <g transform="matrix(54.5483,0,0,57.0209,245.253,-1159.57)">
                    <path d="M80.414,38.689C80.352,38.689 80.289,38.669 80.237,38.627C80.114,38.529 80.094,38.35 80.192,38.227L81.529,36.551C81.627,36.428 81.807,36.408 81.93,36.506C82.053,36.604 82.074,36.784 81.975,36.907L80.638,38.582C80.581,38.653 80.498,38.689 80.414,38.689Z" style="fill:rgb(33,163,185);fill-rule:nonzero;"/>
                </g>
                <g transform="matrix(54.5483,0,0,57.0209,245.253,-1159.57)">
                    <path d="M80.543,41.709C80.481,41.709 80.418,41.689 80.366,41.647C80.242,41.549 80.222,41.37 80.321,41.247L82.162,38.938C82.261,38.815 82.441,38.795 82.564,38.894C82.687,38.992 82.707,39.171 82.609,39.294L80.767,41.603C80.71,41.673 80.627,41.709 80.543,41.709Z" style="fill:rgb(190,218,230);fill-rule:nonzero;"/>
                </g>
                <g transform="matrix(54.5483,0,0,57.0209,245.253,-1159.57)">
                    <path d="M83.083,41.709C83.021,41.709 82.957,41.689 82.906,41.647C82.783,41.549 82.762,41.37 82.861,41.247L83.152,40.881C83.249,40.758 83.429,40.738 83.552,40.836C83.675,40.935 83.696,41.114 83.597,41.237L83.306,41.602C83.25,41.673 83.166,41.709 83.083,41.709Z" style="fill:rgb(33,163,185);fill-rule:nonzero;"/>
                </g>
                <g transform="matrix(54.5483,0,0,57.0209,245.253,-1159.57)">
                    <path d="M86.999,36.804C86.937,36.804 86.873,36.784 86.822,36.742C86.699,36.643 86.678,36.464 86.776,36.341L87.681,35.207C87.78,35.083 87.959,35.063 88.082,35.162C88.205,35.26 88.226,35.439 88.127,35.562L87.222,36.697C87.165,36.767 87.082,36.804 86.999,36.804Z" style="fill:rgb(190,218,230);fill-rule:nonzero;"/>
                </g>
                <g transform="matrix(54.5483,0,0,57.0209,245.253,-1159.57)">
                    <path d="M85.622,41.709C85.56,41.709 85.497,41.689 85.445,41.647C85.322,41.549 85.301,41.37 85.4,41.247L86.506,39.86C86.605,39.737 86.784,39.717 86.907,39.815C87.03,39.914 87.05,40.093 86.952,40.216L85.846,41.603C85.789,41.673 85.706,41.709 85.622,41.709Z" style="fill:rgb(190,218,230);fill-rule:nonzero;"/>
                </g>
                <g transform="matrix(54.5483,0,0,57.0209,245.253,-1159.57)">
                    <path d="M87.337,39.561C87.276,39.561 87.212,39.54 87.159,39.498C87.036,39.4 87.017,39.221 87.115,39.098L87.421,38.714C87.519,38.591 87.699,38.571 87.822,38.669C87.945,38.768 87.965,38.947 87.867,39.07L87.561,39.454C87.504,39.524 87.421,39.561 87.337,39.561Z" style="fill:rgb(33,163,185);fill-rule:nonzero;"/>
                </g>
                <g transform="matrix(54.5483,0,0,57.0209,245.253,-1159.57)">
                    <path d="M88.396,38.235C88.333,38.235 88.271,38.215 88.218,38.173C88.095,38.075 88.075,37.895 88.173,37.772L89.525,36.079C89.623,35.956 89.802,35.936 89.925,36.034C90.048,36.132 90.069,36.311 89.971,36.435L88.618,38.128C88.563,38.199 88.48,38.235 88.396,38.235Z" style="fill:rgb(33,163,185);fill-rule:nonzero;"/>
                </g>
            </g>
        </g>
    </g>
</svg>
