
<svg width="100%" height="100%" viewBox="0 0 872 766" version="1.1" xmlns="http://www.w3.org/2000/svg" xmlns:xlink="http://www.w3.org/1999/xlink" xml:space="preserve" xmlns:serif="http://www.serif.com/" style="fill-rule:evenodd;clip-rule:evenodd;stroke-linejoin:round;stroke-miterlimit:2;">
    <g transform="matrix(1,0,0,1,-14222.1,-6752.03)">
        <g id="_43" serif:id="43" transform="matrix(0.714264,0,0,0.683311,11301.1,6621.45)">
            <rect x="4089.49" y="191.094" width="1220.26" height="1120.61" style="fill:none;"/>
            <g transform="matrix(1.15135,0,0,1.15135,-755.703,-82.8521)">
                <g transform="matrix(-47.0831,0,0,49.2159,9745.73,199.767)">
                    <path d="M109.742,12.519C112.782,12.519 115.246,10.055 115.246,7.015C115.246,3.976 112.782,1.511 109.742,1.511C106.702,1.511 104.238,3.976 104.238,7.015C104.238,10.055 106.702,12.519 109.742,12.519Z" style="fill:rgb(217,237,244);fill-rule:nonzero;"/>
                </g>
                <g transform="matrix(-47.0831,0,0,49.2159,9745.73,199.767)">
                    <path d="M111.179,11.494C110.893,11.494 110.62,11.543 110.363,11.629C110.373,11.513 110.379,11.396 110.379,11.278C110.379,8.866 108.424,6.91 106.011,6.91C105.383,6.91 104.785,7.044 104.245,7.284C104.386,10.199 106.793,12.519 109.742,12.519C110.717,12.519 111.632,12.264 112.426,11.82C112.056,11.613 111.632,11.494 111.179,11.494Z" style="fill:rgb(190,218,230);fill-rule:nonzero;"/>
                </g>
                <g transform="matrix(-47.0831,0,0,49.2159,9745.73,199.767)">
                    <path d="M109.742,1.511C109.464,1.511 109.191,1.532 108.925,1.572C111.576,1.967 113.61,4.253 113.61,7.015C113.61,9.777 111.576,12.063 108.925,12.458C109.191,12.498 109.464,12.519 109.742,12.519C112.782,12.519 115.246,10.055 115.246,7.015C115.246,3.976 112.782,1.511 109.742,1.511Z" style="fill:rgb(190,218,230);fill-rule:nonzero;"/>
                </g>
                <g transform="matrix(-47.0831,0,0,49.2159,9745.73,199.767)">
                    <path d="M108.428,9.519C108.428,9.103 108.766,8.765 109.182,8.765C109.599,8.765 109.936,9.103 109.936,9.519C109.936,9.935 109.599,10.272 109.182,10.272C108.766,10.272 108.428,9.935 108.428,9.519Z" style="fill:rgb(217,237,244);fill-rule:nonzero;"/>
                </g>
                <g transform="matrix(-47.0831,0,0,49.2159,9745.73,199.767)">
                    <path d="M105.644,10.688C105.891,10.513 106.053,10.226 106.053,9.899C106.053,9.366 105.621,8.934 105.089,8.934C104.922,8.934 104.765,8.976 104.629,9.05C104.87,9.657 105.216,10.21 105.644,10.688Z" style="fill:rgb(190,218,230);fill-rule:nonzero;"/>
                </g>
                <g transform="matrix(-47.0831,0,0,49.2159,9745.73,199.767)">
                    <path d="M110.321,5.97C110.321,5.228 110.923,4.625 111.666,4.625C112.408,4.625 113.01,5.228 113.01,5.97C113.01,6.712 112.408,7.314 111.666,7.314C110.923,7.314 110.321,6.712 110.321,5.97Z" style="fill:rgb(190,218,230);fill-rule:nonzero;"/>
                </g>
                <g transform="matrix(-47.0831,0,0,49.2159,9745.73,199.767)">
                    <path d="M106.19,5.21C106.19,4.791 106.53,4.451 106.95,4.451C107.37,4.451 107.71,4.791 107.71,5.21C107.71,5.63 107.37,5.97 106.95,5.97C106.53,5.97 106.19,5.63 106.19,5.21Z" style="fill:rgb(190,218,230);fill-rule:nonzero;"/>
                </g>
                <g transform="matrix(-47.0831,0,0,49.2159,9745.73,199.767)">
                    <path d="M109.605,3.383L113.876,3.383C113.587,3.055 113.261,2.762 112.901,2.51L109.605,2.51C109.364,2.51 109.169,2.706 109.169,2.947C109.169,3.188 109.364,3.383 109.605,3.383Z" style="fill:rgb(190,218,230);fill-rule:nonzero;"/>
                </g>
                <g transform="matrix(-47.0831,0,0,49.2159,9745.73,199.767)">
                    <path d="M113.876,3.383C113.659,3.137 113.421,2.911 113.165,2.707C113.079,2.639 112.991,2.573 112.902,2.51L111.266,2.51C111.625,2.762 111.953,3.055 112.241,3.383L113.876,3.383Z" style="fill:rgb(217,237,244);fill-rule:nonzero;"/>
                </g>
                <g transform="matrix(-47.0831,0,0,49.2159,9745.73,199.767)">
                    <path d="M115.025,8.558L113.626,8.558C113.385,8.558 113.189,8.753 113.189,8.995C113.189,9.236 113.385,9.431 113.626,9.431L114.687,9.431C114.824,9.153 114.936,8.86 115.025,8.558Z" style="fill:rgb(190,218,230);fill-rule:nonzero;"/>
                </g>
                <g transform="matrix(-47.0831,0,0,49.2159,9745.73,199.767)">
                    <path d="M113.626,8.558C113.526,8.558 113.436,8.592 113.363,8.648C113.315,8.8 113.261,8.95 113.202,9.096C113.248,9.288 113.42,9.431 113.626,9.431L114.687,9.431C114.754,9.295 114.814,9.156 114.87,9.014C114.872,9.008 114.875,9.002 114.877,8.996C114.932,8.853 114.981,8.707 115.025,8.558L113.626,8.558Z" style="fill:rgb(217,237,244);fill-rule:nonzero;"/>
                </g>
                <g transform="matrix(-47.0831,0,0,49.2159,9745.73,199.767)">
                    <path d="M104.289,7.751L105.77,7.751C106.011,7.751 106.207,7.556 106.207,7.314C106.207,7.073 106.011,6.877 105.77,6.877L104.242,6.877C104.24,6.923 104.238,6.969 104.238,7.015C104.238,7.265 104.257,7.51 104.289,7.751Z" style="fill:rgb(190,218,230);fill-rule:nonzero;"/>
                </g>
                <g transform="matrix(-47.0831,0,0,49.2159,9745.73,199.767)">
                    <path d="M106.207,7.314C106.207,7.133 106.097,6.979 105.94,6.912C105.339,6.922 104.766,7.053 104.248,7.283C104.249,7.307 104.249,7.332 104.25,7.356C104.252,7.379 104.254,7.401 104.255,7.424C104.263,7.534 104.274,7.643 104.289,7.75L104.289,7.751L105.77,7.751C106.011,7.751 106.207,7.556 106.207,7.314Z" style="fill:rgb(217,237,244);fill-rule:nonzero;"/>
                </g>
            </g>
            <g transform="matrix(0.711418,0,0,0.681208,1471.02,395.481)">
                <g transform="matrix(57.0914,0,0,59.6775,24.8307,-2684.8)">
                    <path d="M74.9,53.161C74.886,53.053 74.877,52.943 74.877,52.832C74.877,51.382 76.052,50.207 77.501,50.207C78.122,50.207 78.693,50.424 79.142,50.785C79.895,49.674 81.166,48.943 82.61,48.943C84.562,48.943 86.202,50.278 86.666,52.085C87.033,51.906 87.443,51.802 87.878,51.802C89.402,51.802 90.637,53.038 90.637,54.561C90.637,56.085 89.402,57.321 87.878,57.321L75.222,57.321C74.066,57.321 73.127,56.383 73.127,55.227C73.127,54.18 73.897,53.316 74.9,53.161Z" style="fill:rgb(33,163,185);fill-rule:nonzero;"/>
                </g>
                <g transform="matrix(57.0914,0,0,59.6775,24.8307,-2684.8)">
                    <path d="M81.491,57.164C81.491,56.639 81.065,56.213 80.539,56.213C80.015,56.213 79.589,56.639 79.589,57.164C79.589,57.217 79.595,57.269 79.603,57.321L81.476,57.321C81.485,57.269 81.491,57.217 81.491,57.164Z" style="fill:rgb(26,139,166);fill-rule:nonzero;"/>
                </g>
                <g transform="matrix(57.0914,0,0,59.6775,24.8307,-2684.8)">
                    <path d="M85.476,52.085C85.813,51.92 86.186,51.821 86.581,51.805C86.027,50.143 84.458,48.943 82.61,48.943C82.405,48.943 82.204,48.959 82.008,48.988C83.695,49.226 85.059,50.464 85.476,52.085Z" style="fill:rgb(26,139,166);fill-rule:nonzero;"/>
                </g>
                <g transform="matrix(57.0914,0,0,59.6775,24.8307,-2684.8)">
                    <path d="M87.878,51.802C87.674,51.802 87.476,51.826 87.285,51.869C88.522,52.141 89.448,53.243 89.448,54.561C89.448,56.085 88.212,57.321 86.688,57.321L87.878,57.321C89.402,57.321 90.637,56.085 90.637,54.561C90.637,53.038 89.402,51.802 87.878,51.802Z" style="fill:rgb(26,139,166);fill-rule:nonzero;"/>
                </g>
                <g transform="matrix(57.0914,0,0,59.6775,24.8307,-2684.8)">
                    <path d="M86.6,54.118C86.6,54.118 87.403,53.133 87.665,51.811C87.309,51.839 86.972,51.936 86.666,52.085C86.893,53.242 86.6,54.118 86.6,54.118Z" style="fill:rgb(26,139,166);fill-rule:nonzero;"/>
                </g>
                <g transform="matrix(57.0914,0,0,59.6775,24.8307,-2684.8)">
                    <path d="M88.321,61.23C88.005,61.23 87.748,61.486 87.748,61.802C87.748,62.119 88.005,62.374 88.321,62.374C88.637,62.374 88.894,62.119 88.894,61.802C88.894,61.486 88.637,61.23 88.321,61.23ZM79.967,61.411C79.651,61.411 79.395,61.667 79.395,61.984C79.395,62.299 79.651,62.556 79.967,62.556C80.284,62.556 80.539,62.299 80.539,61.984C80.539,61.667 80.284,61.411 79.967,61.411ZM79.904,56.213C79.378,56.213 78.953,56.639 78.953,57.164C78.953,57.688 79.378,58.114 79.904,58.114C80.429,58.114 80.854,57.688 80.854,57.164C80.854,56.639 80.429,56.213 79.904,56.213ZM85.121,58.219C84.561,58.219 84.107,58.673 84.107,59.233C84.107,59.793 84.561,60.248 85.121,60.248C85.682,60.248 86.136,59.793 86.136,59.233C86.136,58.673 85.682,58.219 85.121,58.219ZM83.99,63.208C83.551,63.208 83.197,63.563 83.197,64.001C83.197,64.44 83.551,64.794 83.99,64.794C84.428,64.794 84.783,64.44 84.783,64.001C84.783,63.563 84.428,63.208 83.99,63.208ZM77.399,64.629C76.96,64.629 76.605,64.985 76.605,65.423C76.605,65.861 76.96,66.216 77.399,66.216C77.836,66.216 78.192,65.861 78.192,65.423C78.192,64.985 77.836,64.629 77.399,64.629ZM76.458,59.233C76.458,59.671 76.103,60.027 75.665,60.027C75.227,60.027 74.871,59.671 74.871,59.233C74.871,58.795 75.227,58.44 75.665,58.44C76.103,58.44 76.458,58.795 76.458,59.233Z" style="fill:rgb(217,237,244);fill-rule:nonzero;"/>
                </g>
                <g transform="matrix(57.0914,0,0,59.6775,24.8307,-2684.8)">
                    <path d="M79.967,61.411C79.854,61.411 79.749,61.445 79.661,61.501C79.82,61.603 79.926,61.781 79.926,61.984C79.926,62.187 79.82,62.364 79.661,62.465C79.749,62.522 79.854,62.556 79.967,62.556C80.284,62.556 80.539,62.299 80.539,61.984C80.539,61.667 80.284,61.411 79.967,61.411Z" style="fill:rgb(190,218,230);fill-rule:nonzero;"/>
                </g>
                <g transform="matrix(57.0914,0,0,59.6775,24.8307,-2684.8)">
                    <path d="M76.458,59.233C76.458,58.795 76.103,58.44 75.665,58.44C75.556,58.44 75.453,58.462 75.358,58.501C75.644,58.622 75.845,58.904 75.845,59.233C75.845,59.562 75.644,59.845 75.358,59.964C75.453,60.004 75.556,60.027 75.665,60.027C76.103,60.027 76.458,59.671 76.458,59.233Z" style="fill:rgb(190,218,230);fill-rule:nonzero;"/>
                </g>
                <g transform="matrix(57.0914,0,0,59.6775,24.8307,-2684.8)">
                    <path d="M77.399,64.629C77.289,64.629 77.186,64.652 77.092,64.692C77.377,64.811 77.578,65.094 77.578,65.423C77.578,65.752 77.377,66.035 77.092,66.155C77.186,66.195 77.289,66.216 77.399,66.216C77.836,66.216 78.192,65.861 78.192,65.423C78.192,64.985 77.836,64.629 77.399,64.629Z" style="fill:rgb(190,218,230);fill-rule:nonzero;"/>
                </g>
                <g transform="matrix(57.0914,0,0,59.6775,24.8307,-2684.8)">
                    <path d="M79.904,56.213C79.796,56.213 79.693,56.232 79.597,56.265C79.971,56.393 80.241,56.746 80.241,57.164C80.241,57.581 79.971,57.935 79.597,58.062C79.693,58.096 79.796,58.114 79.904,58.114C80.429,58.114 80.854,57.688 80.854,57.164C80.854,56.639 80.429,56.213 79.904,56.213Z" style="fill:rgb(190,218,230);fill-rule:nonzero;"/>
                </g>
                <g transform="matrix(57.0914,0,0,59.6775,24.8307,-2684.8)">
                    <path d="M83.99,63.208C83.881,63.208 83.778,63.23 83.683,63.27C83.969,63.39 84.169,63.672 84.169,64.001C84.169,64.331 83.969,64.613 83.683,64.733C83.778,64.773 83.881,64.794 83.99,64.794C84.428,64.794 84.783,64.44 84.783,64.001C84.783,63.563 84.428,63.208 83.99,63.208Z" style="fill:rgb(190,218,230);fill-rule:nonzero;"/>
                </g>
                <g transform="matrix(57.0914,0,0,59.6775,24.8307,-2684.8)">
                    <path d="M88.321,61.23C88.208,61.23 88.103,61.263 88.014,61.32C88.173,61.421 88.28,61.599 88.28,61.802C88.28,62.005 88.173,62.182 88.014,62.284C88.103,62.34 88.208,62.374 88.321,62.374C88.637,62.374 88.894,62.119 88.894,61.802C88.894,61.486 88.637,61.23 88.321,61.23Z" style="fill:rgb(190,218,230);fill-rule:nonzero;"/>
                </g>
                <g transform="matrix(57.0914,0,0,59.6775,24.8307,-2684.8)">
                    <path d="M85.121,58.219C85.014,58.219 84.911,58.236 84.815,58.266C85.225,58.396 85.522,58.78 85.522,59.233C85.522,59.686 85.225,60.07 84.815,60.2C84.911,60.231 85.014,60.248 85.121,60.248C85.682,60.248 86.136,59.793 86.136,59.233C86.136,58.673 85.682,58.219 85.121,58.219Z" style="fill:rgb(190,218,230);fill-rule:nonzero;"/>
                </g>
                <g transform="matrix(57.0914,0,0,59.6775,24.8307,-2684.8)">
                    <path d="M88.321,61.514C88.162,61.514 88.034,61.643 88.034,61.802C88.034,61.96 88.162,62.089 88.321,62.089C88.48,62.089 88.609,61.96 88.609,61.802C88.609,61.643 88.48,61.514 88.321,61.514ZM88.321,60.945C88.794,60.945 89.178,61.33 89.178,61.802C89.178,62.275 88.794,62.66 88.321,62.66C87.848,62.66 87.464,62.275 87.464,61.802C87.464,61.33 87.848,60.945 88.321,60.945ZM79.68,61.984C79.68,62.142 79.809,62.271 79.967,62.271C80.125,62.271 80.255,62.142 80.255,61.984C80.255,61.825 80.125,61.696 79.967,61.696C79.809,61.696 79.68,61.825 79.68,61.984ZM79.11,61.984C79.11,61.511 79.494,61.126 79.967,61.126C80.44,61.126 80.825,61.511 80.825,61.984C80.825,62.457 80.44,62.841 79.967,62.841C79.494,62.841 79.11,62.457 79.11,61.984ZM79.238,57.164C79.238,57.531 79.536,57.83 79.904,57.83C80.271,57.83 80.57,57.531 80.57,57.164C80.57,56.797 80.271,56.498 79.904,56.498C79.536,56.498 79.238,56.797 79.238,57.164ZM78.751,57.606L75.222,57.606C73.911,57.606 72.843,56.539 72.843,55.227C72.843,54.137 73.565,53.212 74.594,52.935C74.593,52.899 74.592,52.865 74.592,52.832C74.592,52.188 74.798,51.579 75.187,51.068C75.283,50.943 75.461,50.92 75.586,51.015C75.711,51.11 75.736,51.289 75.64,51.414C75.328,51.824 75.162,52.314 75.162,52.832C75.162,52.92 75.168,53.013 75.183,53.125C75.202,53.278 75.096,53.418 74.944,53.442C74.056,53.58 73.412,54.33 73.412,55.227C73.412,56.225 74.224,57.036 75.222,57.036L78.675,57.036C78.739,56.415 79.266,55.928 79.904,55.928C80.585,55.928 81.139,56.482 81.139,57.164C81.139,57.845 80.585,58.399 79.904,58.399C79.378,58.399 78.93,58.069 78.751,57.606ZM85.121,59.962C85.524,59.962 85.851,59.635 85.851,59.233C85.851,58.831 85.524,58.503 85.121,58.503C84.719,58.503 84.392,58.831 84.392,59.233C84.392,59.635 84.719,59.962 85.121,59.962ZM85.121,60.533C84.405,60.533 83.823,59.95 83.823,59.233C83.823,58.517 84.405,57.934 85.121,57.934C85.838,57.934 86.42,58.517 86.42,59.233C86.42,59.95 85.838,60.533 85.121,60.533ZM83.99,64.51C83.709,64.51 83.481,64.282 83.481,64.001C83.481,63.844 83.354,63.716 83.197,63.716C83.039,63.716 82.911,63.844 82.911,64.001C82.911,64.596 83.395,65.08 83.99,65.08C84.584,65.08 85.068,64.596 85.068,64.001C85.068,63.407 84.584,62.923 83.99,62.923C83.869,62.923 83.749,62.943 83.636,62.983C83.488,63.034 83.409,63.197 83.46,63.345C83.512,63.494 83.674,63.572 83.823,63.521C83.876,63.502 83.932,63.493 83.99,63.493C84.27,63.493 84.498,63.721 84.498,64.001C84.498,64.282 84.27,64.51 83.99,64.51ZM76.89,65.423C76.89,65.704 77.119,65.932 77.399,65.932C77.679,65.932 77.907,65.704 77.907,65.423C77.907,65.143 77.679,64.915 77.399,64.915C77.119,64.915 76.89,65.143 76.89,65.423ZM76.321,65.423C76.321,64.829 76.804,64.345 77.399,64.345C77.994,64.345 78.477,64.829 78.477,65.423C78.477,66.018 77.994,66.501 77.399,66.501C76.804,66.501 76.321,66.018 76.321,65.423ZM75.665,58.725C75.946,58.725 76.173,58.953 76.173,59.233C76.173,59.39 76.301,59.518 76.458,59.518C76.616,59.518 76.744,59.39 76.744,59.233C76.744,58.638 76.259,58.155 75.665,58.155C75.071,58.155 74.586,58.638 74.586,59.233C74.586,59.828 75.071,60.311 75.665,60.311C75.823,60.311 75.95,60.184 75.95,60.027C75.95,59.87 75.823,59.742 75.665,59.742C75.384,59.742 75.157,59.513 75.157,59.233C75.157,58.953 75.384,58.725 75.665,58.725ZM82.648,57.321C82.648,57.164 82.52,57.036 82.363,57.036L81.717,57.036C81.56,57.036 81.433,57.164 81.433,57.321C81.433,57.478 81.56,57.606 81.717,57.606L82.363,57.606C82.52,57.606 82.648,57.478 82.648,57.321ZM90.922,54.561C90.922,52.883 89.557,51.517 87.878,51.517C87.524,51.517 87.178,51.579 86.847,51.7C86.239,49.894 84.541,48.658 82.61,48.658C81.223,48.658 79.924,49.3 79.078,50.388C78.609,50.082 78.069,49.923 77.501,49.923C77.344,49.923 77.216,50.05 77.216,50.207C77.216,50.365 77.344,50.492 77.501,50.492C78.037,50.492 78.543,50.67 78.963,51.007C79.026,51.057 79.106,51.079 79.184,51.067C79.263,51.055 79.332,51.011 79.377,50.945C80.107,49.87 81.315,49.228 82.61,49.228C84.389,49.228 85.942,50.429 86.388,52.148C86.593,53.206 86.331,54.019 86.329,54.027C86.28,54.176 86.36,54.337 86.509,54.388C86.659,54.437 86.82,54.357 86.869,54.208C86.881,54.172 87.148,53.36 86.985,52.256C87.271,52.144 87.571,52.087 87.878,52.087C89.243,52.087 90.353,53.197 90.353,54.561C90.353,55.926 89.243,57.036 87.878,57.036L83.395,57.036C83.238,57.036 83.11,57.164 83.11,57.321C83.11,57.478 83.238,57.606 83.395,57.606L87.878,57.606C89.557,57.606 90.922,56.24 90.922,54.561ZM76.618,50.344C76.686,50.485 76.626,50.656 76.485,50.724C76.375,50.777 76.269,50.839 76.168,50.909C76.119,50.943 76.062,50.96 76.006,50.96C75.915,50.96 75.828,50.917 75.772,50.837C75.682,50.708 75.714,50.531 75.843,50.441C75.969,50.354 76.101,50.276 76.238,50.211C76.378,50.143 76.549,50.202 76.618,50.344Z" style="fill:rgb(4,45,65);fill-rule:nonzero;"/>
                </g>
            </g>
        </g>
    </g>
</svg>
