
<svg width="100%" height="100%" viewBox="0 0 872 766" version="1.1" xmlns="http://www.w3.org/2000/svg" xmlns:xlink="http://www.w3.org/1999/xlink" xml:space="preserve" xmlns:serif="http://www.serif.com/" style="fill-rule:evenodd;clip-rule:evenodd;stroke-linejoin:round;stroke-miterlimit:2;">
    <g transform="matrix(1,0,0,1,-7710.57,-1614.71)">
        <g id="_6" serif:id="6" transform="matrix(0.714264,0,0,0.683311,4789.59,1484.13)">
            <rect x="4089.49" y="191.094" width="1220.26" height="1120.61" style="fill:none;"/>
            <g transform="matrix(-1,0,0,1,9399.23,0)">
                <g transform="matrix(54.5483,0,0,57.0192,1545.5,-2518.68)">
                    <path d="M60.254,51.528C57.653,51.528 55.545,53.637 55.545,56.238C55.545,58.839 57.653,60.949 60.254,60.949C62.856,60.949 64.964,58.839 64.964,56.238C64.964,53.637 62.856,51.528 60.254,51.528Z" style="fill:rgb(249,190,18);fill-rule:nonzero;"/>
                </g>
                <g transform="matrix(54.5483,0,0,57.0192,1545.5,-2518.68)">
                    <path d="M60.254,51.528C60.031,51.528 59.81,51.545 59.594,51.576C61.883,51.896 63.644,53.861 63.644,56.238C63.644,58.616 61.883,60.581 59.594,60.902C59.81,60.932 60.031,60.949 60.254,60.949C62.856,60.949 64.964,58.839 64.964,56.238C64.964,53.637 62.856,51.528 60.254,51.528Z" style="fill:rgb(245,154,32);fill-rule:nonzero;"/>
                </g>
                <g transform="matrix(54.5483,0,0,57.0192,1545.5,-2518.68)">
                    <path d="M62.149,57.047C61.487,57.047 60.879,57.279 60.4,57.664C59.596,56.479 58.241,55.7 56.702,55.7C56.308,55.7 55.926,55.751 55.562,55.847C55.552,55.976 55.545,56.106 55.545,56.238C55.545,58.839 57.653,60.949 60.254,60.949C62.113,60.949 63.719,59.872 64.486,58.309C63.986,57.549 63.126,57.047 62.149,57.047Z" style="fill:rgb(245,154,32);fill-rule:nonzero;"/>
                </g>
                <g transform="matrix(54.5483,0,0,57.0192,1545.5,-2518.68)">
                    <path d="M60.254,50.705C60.097,50.705 59.969,50.577 59.969,50.42L59.969,49.275C59.969,49.118 60.097,48.99 60.254,48.99C60.412,48.99 60.539,49.118 60.539,49.275L60.539,50.42C60.539,50.577 60.412,50.705 60.254,50.705Z" style="fill:rgb(249,190,18);fill-rule:nonzero;"/>
                </g>
                <g transform="matrix(54.5483,0,0,57.0192,1545.5,-2518.68)">
                    <path d="M57.346,51.485C57.247,51.485 57.151,51.434 57.098,51.342L56.526,50.351C56.447,50.214 56.494,50.04 56.63,49.961C56.767,49.882 56.941,49.929 57.02,50.065L57.592,51.057C57.671,51.193 57.624,51.368 57.488,51.446C57.443,51.472 57.394,51.485 57.346,51.485Z" style="fill:rgb(249,190,18);fill-rule:nonzero;"/>
                </g>
                <g transform="matrix(54.5483,0,0,57.0192,1545.5,-2518.68)">
                    <path d="M55.215,53.614C55.167,53.614 55.118,53.602 55.073,53.576L54.082,53.004C53.945,52.925 53.898,52.75 53.977,52.614C54.056,52.478 54.23,52.431 54.367,52.51L55.358,53.082C55.494,53.161 55.541,53.335 55.463,53.472C55.409,53.563 55.314,53.614 55.215,53.614Z" style="fill:rgb(249,190,18);fill-rule:nonzero;"/>
                </g>
                <g transform="matrix(54.5483,0,0,57.0192,1545.5,-2518.68)">
                    <path d="M65.294,53.614C65.196,53.614 65.099,53.563 65.046,53.472C64.968,53.335 65.015,53.161 65.151,53.082L66.142,52.51C66.279,52.431 66.453,52.478 66.532,52.614C66.611,52.75 66.564,52.925 66.427,53.004L65.436,53.576C65.391,53.602 65.342,53.614 65.294,53.614Z" style="fill:rgb(249,190,18);fill-rule:nonzero;"/>
                </g>
                <g transform="matrix(54.5483,0,0,57.0192,1545.5,-2518.68)">
                    <path d="M63.163,51.485C63.116,51.485 63.067,51.472 63.022,51.446C62.885,51.368 62.838,51.193 62.917,51.057L63.49,50.065C63.568,49.929 63.742,49.882 63.879,49.961C64.015,50.04 64.062,50.214 63.983,50.351L63.411,51.342C63.358,51.434 63.262,51.485 63.163,51.485Z" style="fill:rgb(249,190,18);fill-rule:nonzero;"/>
                </g>
                <g transform="matrix(54.5483,0,0,57.0192,1545.5,-2518.68)">
                    <path d="M60.254,63.487C60.097,63.487 59.969,63.359 59.969,63.202L59.969,62.057C59.969,61.9 60.097,61.772 60.254,61.772C60.412,61.772 60.539,61.9 60.539,62.057L60.539,63.202C60.539,63.359 60.412,63.487 60.254,63.487Z" style="fill:rgb(249,190,18);fill-rule:nonzero;"/>
                </g>
                <g transform="matrix(54.5483,0,0,57.0192,1545.5,-2518.68)">
                    <path d="M67.218,56.523L66.074,56.523C65.915,56.523 65.788,56.396 65.788,56.238C65.788,56.081 65.915,55.953 66.074,55.953L67.218,55.953C67.375,55.953 67.503,56.081 67.503,56.238C67.503,56.396 67.375,56.523 67.218,56.523Z" style="fill:rgb(249,190,18);fill-rule:nonzero;"/>
                </g>
                <g transform="matrix(54.5483,0,0,57.0192,1545.5,-2518.68)">
                    <path d="M54.436,56.523L53.291,56.523C53.134,56.523 53.006,56.396 53.006,56.238C53.006,56.081 53.134,55.953 53.291,55.953L54.436,55.953C54.594,55.953 54.721,56.081 54.721,56.238C54.721,56.396 54.594,56.523 54.436,56.523Z" style="fill:rgb(249,190,18);fill-rule:nonzero;"/>
                </g>
                <g transform="matrix(54.5483,0,0,57.0192,1545.5,-2518.68)">
                    <path d="M63.737,62.554C63.638,62.554 63.542,62.502 63.49,62.412L62.917,61.42C62.838,61.284 62.885,61.109 63.022,61.031C63.158,60.952 63.332,60.998 63.411,61.135L63.983,62.126C64.062,62.262 64.015,62.437 63.879,62.516C63.834,62.541 63.784,62.554 63.737,62.554Z" style="fill:rgb(249,190,18);fill-rule:nonzero;"/>
                </g>
                <g transform="matrix(54.5483,0,0,57.0192,1545.5,-2518.68)">
                    <path d="M66.284,60.005C66.236,60.005 66.187,59.993 66.142,59.967L65.151,59.395C65.015,59.316 64.968,59.141 65.046,59.005C65.125,58.869 65.3,58.822 65.436,58.901L66.427,59.473C66.564,59.552 66.611,59.726 66.532,59.863C66.479,59.955 66.383,60.005 66.284,60.005Z" style="fill:rgb(249,190,18);fill-rule:nonzero;"/>
                </g>
                <g transform="matrix(54.5483,0,0,57.0192,1545.5,-2518.68)">
                    <path d="M54.224,60.005C54.126,60.005 54.03,59.955 53.977,59.863C53.898,59.726 53.945,59.552 54.082,59.473L55.073,58.901C55.209,58.822 55.384,58.869 55.463,59.005C55.541,59.141 55.494,59.316 55.358,59.395L54.367,59.967C54.322,59.993 54.273,60.005 54.224,60.005Z" style="fill:rgb(249,190,18);fill-rule:nonzero;"/>
                </g>
                <g transform="matrix(54.5483,0,0,57.0192,1545.5,-2518.68)">
                    <path d="M56.773,62.554C56.724,62.554 56.676,62.541 56.63,62.516C56.494,62.437 56.447,62.262 56.526,62.126L57.098,61.135C57.177,60.998 57.351,60.952 57.488,61.031C57.624,61.109 57.671,61.284 57.592,61.42L57.02,62.412C56.967,62.502 56.871,62.554 56.773,62.554Z" style="fill:rgb(249,190,18);fill-rule:nonzero;"/>
                </g>
            </g>
            <g transform="matrix(-1.13999,0,0,1.27824,10046.1,-291.544)">
                <g transform="matrix(54.5483,0,0,57.0192,1545.5,-2518.68)">
                    <path d="M64.922,61.275C64.937,61.16 64.947,61.043 64.947,60.924C64.947,59.378 63.694,58.126 62.149,58.126C61.487,58.126 60.879,58.357 60.4,58.742C59.596,57.558 58.241,56.778 56.702,56.778C54.621,56.778 52.872,58.202 52.376,60.128C51.986,59.937 51.549,59.827 51.084,59.827C49.459,59.827 48.142,61.144 48.142,62.769C48.142,64.394 49.459,65.711 51.084,65.711L64.579,65.711C65.812,65.711 66.812,64.711 66.812,63.478C66.812,62.362 65.992,61.441 64.922,61.275Z" style="fill:rgb(33,163,185);fill-rule:nonzero;"/>
                </g>
                <g transform="matrix(54.5483,0,0,57.0192,1545.5,-2518.68)">
                    <path d="M64.922,61.275C64.937,61.16 64.947,61.043 64.947,60.924C64.947,59.378 63.694,58.126 62.149,58.126C61.856,58.126 61.574,58.174 61.308,58.258C62.439,58.617 63.258,59.674 63.258,60.924C63.258,61.043 63.248,61.16 63.234,61.275C64.303,61.441 65.123,62.362 65.123,63.478C65.123,64.711 64.123,65.711 62.89,65.711L64.579,65.711C65.812,65.711 66.812,64.711 66.812,63.478C66.812,62.362 65.992,61.441 64.922,61.275Z" style="fill:rgb(26,139,166);fill-rule:nonzero;"/>
                </g>
                <g transform="matrix(54.5483,0,0,57.0192,1545.5,-2518.68)">
                    <path d="M51.101,59.827C51.33,61.661 52.448,62.295 52.448,62.295C52.448,62.295 52.135,61.362 52.376,60.128C51.991,59.939 51.559,59.83 51.101,59.827Z" style="fill:rgb(26,139,166);fill-rule:nonzero;"/>
                </g>
            </g>
        </g>
    </g>
</svg>
