
<svg width="100%" height="100%" viewBox="0 0 872 766" version="1.1" xmlns="http://www.w3.org/2000/svg" xmlns:xlink="http://www.w3.org/1999/xlink" xml:space="preserve" xmlns:serif="http://www.serif.com/" style="fill-rule:evenodd;clip-rule:evenodd;stroke-linejoin:round;stroke-miterlimit:2;">
    <g transform="matrix(1,0,0,1,-8643.95,-976.707)">
        <g id="_7" serif:id="7" transform="matrix(0.714264,0,0,0.683311,5722.98,846.13)">
            <rect x="4089.49" y="191.094" width="1220.26" height="1120.61" style="fill:none;"/>
            <g transform="matrix(1.2054,0,0,1.2054,-1124.02,-282.656)">
                <g transform="matrix(54.5483,0,0,57.0192,4316.53,-1044.96)">
                    <path d="M16.432,33.4C16.446,33.292 16.455,33.182 16.455,33.07C16.455,31.619 15.278,30.441 13.826,30.441C13.204,30.441 12.633,30.659 12.182,31.02C11.428,29.907 10.155,29.175 8.709,29.175C6.753,29.175 5.11,30.513 4.644,32.323C4.277,32.143 3.866,32.039 3.43,32.039C1.903,32.039 0.666,33.277 0.666,34.804C0.666,36.331 1.903,37.568 3.43,37.568L16.11,37.568C17.268,37.568 18.208,36.628 18.208,35.47C18.208,34.421 17.437,33.556 16.432,33.4Z" style="fill:rgb(217,237,244);fill-rule:nonzero;"/>
                </g>
                <g transform="matrix(54.5483,0,0,57.0192,4316.53,-1044.96)">
                    <path d="M16.432,33.4C16.446,33.292 16.455,33.182 16.455,33.07C16.455,31.619 15.278,30.441 13.826,30.441C13.536,30.441 13.258,30.49 12.997,30.578C14.041,30.925 14.795,31.909 14.795,33.07C14.795,33.182 14.786,33.292 14.772,33.4C15.777,33.556 16.548,34.421 16.548,35.47C16.548,36.628 15.608,37.568 14.45,37.568L16.11,37.568C17.268,37.568 18.208,36.628 18.208,35.47C18.208,34.421 17.437,33.556 16.432,33.4Z" style="fill:rgb(190,218,230);fill-rule:nonzero;"/>
                </g>
                <g transform="matrix(54.5483,0,0,57.0192,4316.53,-1044.96)">
                    <path d="M10.973,31.505C11.314,31.347 11.895,31.12 12.182,31.02C12.039,30.805 11.807,30.544 11.742,30.477C10.979,29.676 9.903,29.175 8.709,29.175C8.426,29.175 8.151,29.206 7.884,29.259C8.978,29.48 10.353,30.099 10.973,31.505Z" style="fill:rgb(190,218,230);fill-rule:nonzero;"/>
                </g>
                <g transform="matrix(54.5483,0,0,57.0192,4316.53,-1044.96)">
                    <path d="M3.593,32.044C3.774,33.477 4.711,34.359 4.711,34.359C4.711,34.359 4.417,33.482 4.644,32.323C4.323,32.165 3.969,32.066 3.593,32.044Z" style="fill:rgb(190,218,230);fill-rule:nonzero;"/>
                </g>
            </g>
        </g>
    </g>
</svg>
