
<svg width="100%" height="100%" viewBox="0 0 872 766" version="1.1" xmlns="http://www.w3.org/2000/svg" xmlns:xlink="http://www.w3.org/1999/xlink" xml:space="preserve" xmlns:serif="http://www.serif.com/" style="fill-rule:evenodd;clip-rule:evenodd;stroke-linejoin:round;stroke-miterlimit:2;">
    <g transform="matrix(1,0,0,1,-9634.73,-1653.96)">
        <g id="_8" serif:id="8" transform="matrix(0.714264,0,0,0.683311,6713.76,1523.38)">
            <rect x="4089.49" y="191.094" width="1220.26" height="1120.61" style="fill:none;"/>
            <g transform="matrix(0.854791,0,0,0.854791,430.098,-219.003)">
                <g transform="matrix(54.5483,0,0,57.0192,4316.53,-1044.96)">
                    <path d="M16.432,33.4C16.446,33.292 16.455,33.182 16.455,33.07C16.455,31.619 15.278,30.441 13.826,30.441C13.204,30.441 12.633,30.659 12.182,31.02C11.428,29.907 10.155,29.175 8.709,29.175C6.753,29.175 5.11,30.513 4.644,32.323C4.277,32.143 3.866,32.039 3.43,32.039C1.903,32.039 0.666,33.277 0.666,34.804C0.666,36.331 1.903,37.568 3.43,37.568L16.11,37.568C17.268,37.568 18.208,36.628 18.208,35.47C18.208,34.421 17.437,33.556 16.432,33.4Z" style="fill:rgb(217,237,244);fill-rule:nonzero;"/>
                </g>
                <g transform="matrix(54.5483,0,0,57.0192,4316.53,-1044.96)">
                    <path d="M16.432,33.4C16.446,33.292 16.455,33.182 16.455,33.07C16.455,31.619 15.278,30.441 13.826,30.441C13.536,30.441 13.258,30.49 12.997,30.578C14.041,30.925 14.795,31.909 14.795,33.07C14.795,33.182 14.786,33.292 14.772,33.4C15.777,33.556 16.548,34.421 16.548,35.47C16.548,36.628 15.608,37.568 14.45,37.568L16.11,37.568C17.268,37.568 18.208,36.628 18.208,35.47C18.208,34.421 17.437,33.556 16.432,33.4Z" style="fill:rgb(190,218,230);fill-rule:nonzero;"/>
                </g>
                <g transform="matrix(54.5483,0,0,57.0192,4316.53,-1044.96)">
                    <path d="M10.973,31.505C11.314,31.347 11.895,31.12 12.182,31.02C12.039,30.805 11.807,30.544 11.742,30.477C10.979,29.676 9.903,29.175 8.709,29.175C8.426,29.175 8.151,29.206 7.884,29.259C8.978,29.48 10.353,30.099 10.973,31.505Z" style="fill:rgb(190,218,230);fill-rule:nonzero;"/>
                </g>
                <g transform="matrix(54.5483,0,0,57.0192,4316.53,-1044.96)">
                    <path d="M3.593,32.044C3.774,33.477 4.711,34.359 4.711,34.359C4.711,34.359 4.417,33.482 4.644,32.323C4.323,32.165 3.969,32.066 3.593,32.044Z" style="fill:rgb(190,218,230);fill-rule:nonzero;"/>
                </g>
            </g>
            <g transform="matrix(-1.13999,0,0,1.27824,10035.7,-376.769)">
                <g transform="matrix(54.5483,0,0,57.0192,1545.5,-2518.68)">
                    <path d="M64.922,61.275C64.937,61.16 64.947,61.043 64.947,60.924C64.947,59.378 63.694,58.126 62.149,58.126C61.487,58.126 60.879,58.357 60.4,58.742C59.596,57.558 58.241,56.778 56.702,56.778C54.621,56.778 52.872,58.202 52.376,60.128C51.986,59.937 51.549,59.827 51.084,59.827C49.459,59.827 48.142,61.144 48.142,62.769C48.142,64.394 49.459,65.711 51.084,65.711L64.579,65.711C65.812,65.711 66.812,64.711 66.812,63.478C66.812,62.362 65.992,61.441 64.922,61.275Z" style="fill:rgb(33,163,185);fill-rule:nonzero;"/>
                </g>
                <g transform="matrix(54.5483,0,0,57.0192,1545.5,-2518.68)">
                    <path d="M64.922,61.275C64.937,61.16 64.947,61.043 64.947,60.924C64.947,59.378 63.694,58.126 62.149,58.126C61.856,58.126 61.574,58.174 61.308,58.258C62.439,58.617 63.258,59.674 63.258,60.924C63.258,61.043 63.248,61.16 63.234,61.275C64.303,61.441 65.123,62.362 65.123,63.478C65.123,64.711 64.123,65.711 62.89,65.711L64.579,65.711C65.812,65.711 66.812,64.711 66.812,63.478C66.812,62.362 65.992,61.441 64.922,61.275Z" style="fill:rgb(26,139,166);fill-rule:nonzero;"/>
                </g>
                <g transform="matrix(54.5483,0,0,57.0192,1545.5,-2518.68)">
                    <path d="M51.101,59.827C51.33,61.661 52.448,62.295 52.448,62.295C52.448,62.295 52.135,61.362 52.376,60.128C51.991,59.939 51.559,59.83 51.101,59.827Z" style="fill:rgb(26,139,166);fill-rule:nonzero;"/>
                </g>
            </g>
        </g>
    </g>
</svg>
